<svg width="140" height="173" viewBox="0 0 140 173" fill="none" xmlns="http://www.w3.org/2000/svg">
<g clip-path="url(#clip0_425_5814)">
<path d="M93.3195 153.672L93.3189 153.672C87.0425 158.978 78.0154 161.723 68.1044 161.995C58.1989 162.266 47.4556 160.064 37.7936 155.528C18.4545 146.449 3.48213 128.102 0.919565 109.181C-1.64182 90.2687 8.11639 70.7013 21.6028 56.6166C35.0669 42.5553 52.1152 33.987 71.9695 31.8399C81.9075 30.7651 92.5106 31.2753 101.46 33.6141C110.428 35.9575 117.636 40.1089 120.939 46.2334C124.232 52.3784 123.688 60.6285 121.577 70.1025C120.525 74.8257 119.092 79.8197 117.579 84.9681C117.391 85.6101 117.201 86.2545 117.011 86.9011C115.675 91.4342 114.309 96.0717 113.122 100.718C111.949 105.305 110.947 109.894 109.97 114.371C109.816 115.075 109.663 115.777 109.51 116.475C108.382 121.616 107.257 126.58 105.905 131.216C103.196 140.496 99.5946 148.384 93.3195 153.672Z" stroke="#DDDDDD"/>
<path d="M134.077 8.63334L92.9541 17.38V8.84325L133.907 0.134369L140.001 3.27872L134.077 8.63334Z" fill="#56A193"/>
<path d="M92.9532 8.84324L51.373 3.05176e-05L45.9082 3.11709L50.8966 8.43603L92.9532 17.38V8.84324Z" fill="#56A193"/>
<path d="M12.5694 135.289C12.3576 138.196 11.0872 151.33 11.9553 155.379H49.6438L45.767 135.965L12.5694 135.289Z" fill="#F2B439"/>
<path d="M36.9606 91.1147C41.6674 87.9977 53.0819 100.449 53.5986 104.15C52.4467 106.039 44.3247 111.622 41.335 111.312C38.1738 108.782 32.4189 94.1205 36.9606 91.1147Z" fill="#4C10CC"/>
<path d="M92.9541 3.84125V171.841" stroke="#FFBE3C" stroke-width="2.30893" stroke-linecap="round" stroke-linejoin="round"/>
<path d="M26.4827 85.122C53.6014 85.122 49.4388 129.37 47.7025 136.941C40.7958 140.788 18.6634 140.251 12.2606 136.17C9.80657 123.528 9.5165 85.122 26.4827 85.122Z" fill="#5B13F4"/>
<path d="M5.45037 107.38C4.69236 109.899 2.07746 129.84 6.08557 132.85C10.0937 135.86 24.9573 124.924 27.6103 122.669C30.2634 120.415 27.0789 116.698 24.2565 117.485C21.4341 118.272 15.4569 120.342 14.3559 121.018C15.4145 118.612 17.3858 111.927 17.3667 110.086C17.3476 108.245 5.45037 107.38 5.45037 107.38Z" fill="#E49D75"/>
<path d="M82.1616 129.009L27.8584 143.7V102.844L82.1616 88.153V129.009Z" fill="#DDDDDD"/>
<path d="M92.9532 17.5164L51.7732 26.2736L45.9082 23.2111L50.1492 18.0832L92.9532 8.97969V17.5164Z" fill="#64BAAA"/>
<path d="M134.644 17.846L92.9541 8.97969V17.5164L134.136 26.2736L140.001 23.0516L134.644 17.846Z" fill="#64BAAA"/>
<path d="M14.7285 68.3109C20.4935 68.3109 25.1669 63.6778 25.1669 57.9626C25.1669 52.2475 20.4935 47.6144 14.7285 47.6144C8.96349 47.6144 4.29004 52.2475 4.29004 57.9626C4.29004 63.6778 8.96349 68.3109 14.7285 68.3109Z" fill="#1F1926"/>
<path d="M29.6477 82.8047C36.43 82.8047 42.8708 82.7237 42.8708 76C42.8708 69.2763 39.8447 58.4559 29.6477 58.4559C22.8654 58.4559 17.3672 63.9066 17.3672 70.6303C17.3672 77.354 22.8654 82.8047 29.6477 82.8047Z" fill="#E49D75"/>
<path d="M37.267 69.9121C37.2445 71.0282 38.1438 71.6681 38.7358 71.9769C39.3279 72.2857 39.133 73.0931 39.0918 73.2121" stroke="#934735" stroke-width="0.45" stroke-linecap="round" stroke-linejoin="round"/>
<path d="M34.2969 78C34.2969 78 34.2877 76.64 36.2861 76.098C38.1443 75.594 39.3405 77.198 39.3405 77.198" stroke="#934735" stroke-width="0.45" stroke-linecap="round" stroke-linejoin="round"/>
<path d="M21.3711 79.6225C29.2052 73.4997 30.9436 63.7938 31.1616 58.5504C30.6594 58.4891 30.1538 58.4575 29.6477 58.4559C27.1713 58.4563 24.7529 59.1989 22.7098 60.5863C20.6667 61.9736 19.0944 63.941 18.1994 66.23C17.3043 68.5191 17.1282 71.0229 17.6942 73.413C18.2603 75.803 19.542 77.9675 21.3711 79.6225Z" fill="#372B47"/>
<path d="M36.7339 63.7266C37.6849 63.7268 38.6337 63.6354 39.5669 63.4537C38.05 61.3953 35.9202 59.8602 33.4772 59.0646C31.0342 58.2689 28.401 58.2528 25.9482 59.0185C27.3169 60.5037 28.983 61.6896 30.8402 62.5003C32.6973 63.311 34.7047 63.7286 36.7339 63.7266Z" fill="#372B47"/>
<path d="M32.553 89.0892C32.553 90.6739 23.8232 90.6403 23.8232 89.0892V77.6872H32.553V89.0892Z" fill="#E49D75"/>
<path d="M15.1416 90.019C20.7207 90.9699 20.3544 107.789 18.1588 110.827C16.0097 111.417 6.24455 109.92 4.29025 107.655C3.75457 103.665 9.75932 89.0997 15.1416 90.019Z" fill="#7D44F4"/>
<path d="M28.9618 123.009C31.7987 123.009 34.0985 120.311 34.0985 116.983C34.0985 113.655 31.7987 110.957 28.9618 110.957C26.1249 110.957 23.8252 113.655 23.8252 116.983C23.8252 120.311 26.1249 123.009 28.9618 123.009Z" fill="#E49D75"/>
<path d="M81.1474 110.004C82.8091 110.004 84.1561 107.798 84.1561 105.077C84.1561 102.357 82.8091 100.151 81.1474 100.151C79.4857 100.151 78.1387 102.357 78.1387 105.077C78.1387 107.798 79.4857 110.004 81.1474 110.004Z" fill="#E49D75"/>
</g>
<defs>
<clipPath id="clip0_425_5814">
<rect width="140" height="172.996" fill="white"/>
</clipPath>
</defs>
</svg>
