<svg width="311" height="256" viewBox="0 0 311 256" fill="none" xmlns="http://www.w3.org/2000/svg">
<path d="M106.707 25.7342C107.662 25.0165 108.624 24.3108 109.603 23.623" stroke="#DDDDDD" stroke-width="1.8" stroke-linecap="round" stroke-linejoin="round"/>
<path d="M115.395 19.8191C131.339 9.92121 149.72 4.66544 168.478 4.64063C176.332 4.63716 184.158 5.56256 191.795 7.39764" stroke="#DDDDDD" stroke-width="1.8" stroke-linecap="round" stroke-linejoin="round" stroke-dasharray="6.94 6.94"/>
<path d="M195.109 8.26514C196.26 8.5841 197.406 8.92299 198.549 9.28182" stroke="#DDDDDD" stroke-width="1.8" stroke-linecap="round" stroke-linejoin="round"/>
<path d="M115.867 235.888C114.845 235.29 113.83 234.632 112.833 233.98" stroke="#DDDDDD" stroke-width="1.8" stroke-linecap="round" stroke-linejoin="round"/>
<path d="M107.035 229.901C86.0348 214.143 70.1576 190.538 62.7773 162.848" stroke="#DDDDDD" stroke-width="1.8" stroke-linecap="round" stroke-linejoin="round" stroke-dasharray="7.14 7.14"/>
<path d="M61.8816 159.392C61.6069 158.231 61.3462 157.065 61.0994 155.893" stroke="#DDDDDD" stroke-width="1.8" stroke-linecap="round" stroke-linejoin="round"/>
<path d="M277.667 144.805C277.519 146.001 277.356 147.185 277.176 148.358" stroke="#DDDDDD" stroke-width="1.8" stroke-linecap="round" stroke-linejoin="round"/>
<path d="M275.881 155.57C274.148 163.942 271.604 172.124 268.285 180.001" stroke="#DDDDDD" stroke-width="1.8" stroke-linecap="round" stroke-linejoin="round" stroke-dasharray="7.35 7.35"/>
<path d="M266.817 183.379C266.319 184.468 265.809 185.546 265.288 186.615" stroke="#DDDDDD" stroke-width="1.8" stroke-linecap="round" stroke-linejoin="round"/>
<path d="M87.1036 188.708L54.2982 193.564C53.7121 193.648 53.1157 193.511 52.6247 193.18C52.1337 192.848 51.7832 192.346 51.6411 191.77L47.8435 174.02C47.7813 173.742 47.7779 173.455 47.8334 173.176C47.889 172.896 48.0022 172.632 48.1659 172.399C48.3295 172.167 48.54 171.971 48.7837 171.825C49.0275 171.678 49.2991 171.585 49.5811 171.55L82.3864 166.7C82.9726 166.616 83.569 166.753 84.06 167.084C84.551 167.416 84.9015 167.918 85.0436 168.494L88.8412 186.202C88.9091 186.482 88.9169 186.774 88.8641 187.057C88.8112 187.341 88.699 187.61 88.5348 187.846C88.3706 188.083 88.1582 188.282 87.9115 188.431C87.6648 188.579 87.3894 188.674 87.1036 188.708V188.708Z" fill="#F9F9F9" stroke="#EDEDED" stroke-width="1.2" stroke-linecap="round" stroke-linejoin="round"/>
<path d="M52.698 174.444C53.0503 174.379 72.2534 180.67 72.2534 180.67L81.2101 169.355" stroke="#EDEDED" stroke-width="1.2" stroke-linecap="round" stroke-linejoin="round"/>
<path d="M57.654 187.362L68.3423 179.396" stroke="#EDEDED" stroke-width="1.2" stroke-linecap="round" stroke-linejoin="round"/>
<path d="M77.3886 179.396L85.5213 181.974" stroke="#EDEDED" stroke-width="1.2" stroke-linecap="round" stroke-linejoin="round"/>
<path d="M100.891 216.266L92.3522 217.874C92.2373 217.896 92.1301 217.947 92.0417 218.024L86.6677 222.725C86.5756 222.803 86.4636 222.855 86.344 222.874C86.2245 222.893 86.1021 222.878 85.9903 222.832C85.8785 222.785 85.7816 222.709 85.7105 222.611C85.6393 222.513 85.5965 222.397 85.5869 222.276L84.6734 208.108C84.6643 207.989 84.6892 207.869 84.7452 207.763C84.8013 207.658 84.886 207.57 84.9898 207.51C85.0806 207.458 85.1836 207.43 85.2884 207.43C85.3932 207.43 85.4962 207.458 85.5869 207.51L101.064 215.046C101.188 215.105 101.29 215.202 101.354 215.323C101.419 215.445 101.444 215.583 101.424 215.719C101.405 215.855 101.343 215.982 101.247 216.08C101.151 216.178 101.026 216.243 100.891 216.266V216.266Z" fill="white" stroke="#EDEDED" stroke-width="1.2" stroke-linecap="round" stroke-linejoin="round"/>
<path d="M100.891 216.266L92.3522 217.874C92.2373 217.896 92.1301 217.947 92.0417 218.024L84.9898 207.51C85.0806 207.458 85.1836 207.43 85.2884 207.43C85.3932 207.43 85.4962 207.458 85.5869 207.51L101.064 215.046C101.188 215.105 101.29 215.202 101.354 215.323C101.419 215.445 101.444 215.583 101.424 215.719C101.405 215.855 101.343 215.982 101.247 216.08C101.151 216.178 101.026 216.243 100.891 216.266V216.266Z" fill="#EDEDED" stroke="#EDEDED" stroke-width="1.2" stroke-linecap="round" stroke-linejoin="round"/>
<path d="M101.518 131.971C104.253 133.347 107.794 130.775 111.729 127.294L107.465 123.467C107.465 123.467 100.777 129.71 101.518 131.971Z" fill="#56A193"/>
<path d="M137.972 115.507L128.101 135.655H107.34L103.882 125.979L115.634 115.507H137.972Z" fill="#FEBD9D"/>
<path d="M121.885 115.507L112.164 130.721" stroke="#EF8A66" stroke-width="0.45" stroke-linecap="round" stroke-linejoin="round"/>
<path d="M118.183 117.08C111.143 121.105 101.518 131.971 101.518 131.971L98.9324 137.114L97.4277 140.105H46.3507C45.1564 135.793 44.1294 130.177 43.3651 125.626C42.768 122.103 42.3858 119.221 42.2306 118.09L42.1649 117.582C40.8632 118.736 40.2303 118.778 40.2303 118.778L37.8418 125.1L37.6209 125.698C29.1419 120.016 13.6289 119.011 13.6289 119.011L15.7128 111.96C15.0867 110.511 14.9119 108.906 15.2113 107.355C15.5516 105.591 20.221 97.4099 24.9263 90.5443C26.7815 87.7515 28.8391 85.099 31.0825 82.6082C31.2676 82.4168 31.4587 82.2314 31.6498 82.058C37.3283 76.8251 46.7388 77.5846 52.9249 78.1468C53.8444 78.2305 54.7162 78.2903 55.5283 78.3262C57.3562 78.4225 59.1879 78.4225 61.0157 78.3262C62.5145 78.2485 63.3385 78.1348 63.3385 78.1348C63.5296 77.2617 63.7087 76.3407 63.8879 75.33C65.0045 68.7933 65.6314 60.0678 64.6343 54.3325L80.3503 61.3596C80.619 64.2182 81.6699 70.4918 82.3924 74.6183C82.7984 76.9268 83.091 78.5654 83.091 78.5654C84.3569 78.3322 85.5511 78.1229 86.6737 77.9315C102.629 75.2223 106.737 76.239 111.155 84.0316C111.275 84.2349 111.388 84.4502 111.508 84.6775C114.23 90.0599 116.087 100.825 117.12 108.432C117.855 113.432 118.183 117.08 118.183 117.08Z" fill="#64BAAA"/>
<path d="M118.183 117.079C111.281 121.033 101.876 131.57 101.524 131.959C101.649 131.696 103.703 127.438 103.912 125.978C104.121 124.519 103.393 120.201 102.264 116.14L117.192 108.456C117.855 113.431 118.183 117.079 118.183 117.079Z" fill="#64BAAA"/>
<path d="M65.0284 119.406C64.9149 125.136 51.5157 125.943 43.383 125.626C42.7859 122.104 42.4038 119.221 42.2485 118.091L42.1828 117.582C45.1383 114.579 47.5811 111.11 49.4139 107.314C54.1908 110.579 48.0644 113.934 47.8315 115.507C47.1986 119.819 65.1896 111.225 65.0284 119.406Z" fill="#56A193"/>
<path d="M111.567 84.7015C106.91 83.0808 101.679 83.1346 98.0546 88.9297C89.8921 101.979 74.5702 112.158 59.2423 96.7522C57.1464 94.5894 54.8535 92.6273 52.3935 90.8913C43.3353 84.6836 35.6743 85.9395 24.9621 90.5385C26.8173 87.7456 28.8749 85.0931 31.1183 82.6024C31.3034 82.411 31.4945 82.2256 31.6856 82.0522C37.3641 76.8192 46.7746 77.5788 52.9607 78.1409C53.8803 78.2246 54.752 78.2844 55.5641 78.3203C57.392 78.4166 59.2237 78.4166 61.0516 78.3203C62.5503 78.2426 63.3744 78.129 63.3744 78.129C63.5654 77.2558 63.7446 76.3348 63.9237 75.3241C65.0403 68.7875 65.6673 60.0619 64.6701 54.3267L80.3861 61.3537C80.6548 64.2124 81.7057 70.4859 82.4282 74.6124C82.8342 76.9209 83.1268 78.5596 83.1268 78.5596C84.3927 78.3263 85.5869 78.117 86.7095 77.9256C102.664 75.2165 106.772 76.2332 111.191 84.0257C111.334 84.259 111.448 84.4742 111.567 84.7015Z" fill="#9DD4C9"/>
<path d="M86.7334 77.9555C86.6856 81.9983 86.2497 89.3662 84.4942 94.5752C82.2252 101.333 79.5501 98.5881 76.6123 95.9208C73.9552 93.4928 64.27 85.4131 55.5701 78.3382C57.398 78.4345 59.2297 78.4345 61.0576 78.3382C62.5563 78.2605 63.3803 78.1468 63.3803 78.1468C63.5714 77.2737 63.7505 76.3527 63.9297 75.342C70.2412 74.9293 77.8125 74.5227 82.4402 74.6303C82.8462 76.9388 83.1388 78.5774 83.1388 78.5774C84.3927 78.3322 85.5869 78.1468 86.7334 77.9555Z" fill="#56A193"/>
<path d="M80.5473 93.4093C80.5473 93.4093 67.1003 84.2472 61.0576 78.3325C62.5563 78.2548 63.3803 78.1412 63.3803 78.1412C64.8194 71.5208 65.8225 60.9473 64.6761 54.3389L74.8927 58.902L80.3921 61.3659C80.5891 63.477 81.222 67.484 81.8251 71.0842C82.4939 75.0672 83.1328 78.5718 83.1328 78.5718C83.6224 90.1858 80.5473 93.4093 80.5473 93.4093Z" fill="#FEBD9D"/>
<path d="M81.8192 71.1017C71.2085 71.7535 72.4027 60.3308 72.4923 60.0438L74.8807 58.9194L80.3801 61.3834C80.5831 63.4945 81.2161 67.5014 81.8192 71.1017Z" fill="#F4A789"/>
<path d="M13.6648 119C13.3662 119.879 13.3662 120.836 20.024 122.714L21.051 118.342C21.051 118.342 14.9963 116.703 13.6648 119Z" fill="#56A193"/>
<path d="M17.3131 116.697C15.7487 121.804 10.2911 138.908 10.2911 138.908C8.81021 145.182 27.3864 149.278 33.9964 138.621L37.6328 121.463C31.6232 117.546 24.4343 115.86 17.3131 116.697V116.697Z" fill="#FEBD9D"/>
<path d="M47.8554 110.202C47.8323 110.236 47.8123 110.272 47.7957 110.31C47.0075 111.572 46.1298 112.858 45.1744 114.185L45.1087 114.275C44.2129 115.446 43.2352 116.551 42.1828 117.582C40.8811 118.736 40.2482 118.778 40.2482 118.778L37.6567 125.686C37.394 125.512 37.1253 125.339 36.8447 125.171C32.1155 122.301 25.607 120.722 20.7226 119.885C19.1164 119.61 17.6833 119.418 16.5428 119.287C14.7873 119.077 13.7006 119.006 13.7006 119.006L15.7845 111.955C15.1584 110.505 14.9836 108.9 15.2829 107.35C15.6233 105.585 20.2927 97.4041 24.998 90.5385C26.8532 87.7457 28.9108 85.0932 31.1542 82.6024C31.3393 82.4111 31.5304 82.2257 31.7214 82.0522C39.7705 78.2786 50.2319 79.2055 52.292 90.084C52.3457 90.3531 52.3935 90.6223 52.4293 90.8914C53.5758 98.1337 51.7904 103.881 47.8554 110.202Z" fill="#64BAAA"/>
<path d="M52.3935 90.8914C43.3353 84.6837 35.6743 85.9396 24.9621 90.5385C26.8173 87.7457 28.8749 85.0932 31.1183 82.6024C31.3034 82.4111 31.4945 82.2257 31.6856 82.0522C39.7347 78.2786 50.1961 79.2055 52.2561 90.084C52.3099 90.3711 52.3576 90.6402 52.3935 90.8914Z" fill="#9DD4C9"/>
<path d="M90.7221 112.588C90.9371 115.417 89.2771 116.141 89.2771 116.141C89.504 123.018 87.4858 126.307 84.13 127.18C80.7742 128.054 72.1041 129.896 72.1041 129.896C71.2055 130.262 70.3387 130.702 69.5127 131.211C68.5453 131.762 67.3452 132.467 65.93 133.305C61.6188 135.828 54.8297 138.185 46.7627 142.443C32.4678 149.99 22.2811 145.899 21.6004 137.892C20.3703 123.233 38.9584 122.277 45.7476 121.146C50.6678 120.321 58.287 118.365 63.0101 117.271C64.8015 116.864 66.145 116.577 66.7779 116.517C69.0469 116.314 73.7522 113.826 82.0102 111.225C90.2683 108.623 96.938 107.116 96.938 108.94C96.938 110.764 90.7221 112.588 90.7221 112.588Z" fill="#FEBD9D"/>
<path d="M25.0636 127.97C28.6463 124.495 34.3846 122.994 39.2331 122.145" stroke="#EF8A66" stroke-width="0.45" stroke-linecap="round" stroke-linejoin="round"/>
<path d="M69.5127 131.211C68.5453 131.762 67.3452 132.467 65.93 133.305C62.6041 129.591 60.8784 123.838 63.0101 117.253C64.8015 116.846 66.145 116.559 66.7779 116.5C65.2373 120.716 64.9507 127.593 69.5127 131.211Z" fill="#372B47"/>
<path d="M90.7221 112.588L85.6168 114.245" stroke="#EF8A66" stroke-width="0.45" stroke-linecap="round" stroke-linejoin="round"/>
<path d="M89.2771 116.141L86.1363 117.283" stroke="#EF8A66" stroke-width="0.45" stroke-linecap="round" stroke-linejoin="round"/>
<path d="M86.4766 120.584L89.1517 119.854" stroke="#EF8A66" stroke-width="0.45" stroke-linecap="round" stroke-linejoin="round"/>
<path d="M68.3065 124.98C68.3065 125.835 68.0533 126.671 67.5789 127.382C67.1046 128.093 66.4303 128.647 65.6415 128.974C64.8526 129.302 63.9846 129.387 63.1472 129.22C62.3097 129.054 61.5405 128.642 60.9367 128.037C60.333 127.432 59.9218 126.662 59.7552 125.823C59.5886 124.984 59.6741 124.115 60.0009 123.325C60.3276 122.535 60.881 121.86 61.5909 121.384C62.3009 120.909 63.1355 120.656 63.9894 120.656C65.1344 120.656 66.2324 121.111 67.042 121.922C67.8517 122.733 68.3065 123.833 68.3065 124.98V124.98Z" fill="white" stroke="#372B47" stroke-width="0.6" stroke-linecap="round" stroke-linejoin="round"/>
<path d="M128.101 44.9548V134.231H1V44.9548C0.999218 43.7724 1.23109 42.6013 1.68235 41.5086C2.13361 40.4159 2.79543 39.423 3.62999 38.5866C4.46455 37.7502 5.45547 37.0866 6.54616 36.6339C7.63685 36.1812 8.80591 35.9482 9.98655 35.9482H119.115C120.295 35.9482 121.465 36.1812 122.555 36.6339C123.646 37.0866 124.637 37.7502 125.471 38.5866C126.306 39.423 126.968 40.4159 127.419 41.5086C127.87 42.6013 128.102 43.7724 128.101 44.9548Z" stroke="#DDDDDD" stroke-width="1.2" stroke-linecap="round" stroke-linejoin="round"/>
<path d="M128.101 44.9548V45.3555H1V44.9548C0.999218 43.7724 1.23109 42.6013 1.68235 41.5086C2.13361 40.4159 2.79543 39.423 3.62999 38.5866C4.46455 37.7502 5.45547 37.0866 6.54616 36.6339C7.63685 36.1812 8.80591 35.9482 9.98655 35.9482H119.115C120.295 35.9482 121.465 36.1812 122.555 36.6339C123.646 37.0866 124.637 37.7502 125.471 38.5866C126.306 39.423 126.968 40.4159 127.419 41.5086C127.87 42.6013 128.102 43.7724 128.101 44.9548Z" stroke="#DDDDDD" stroke-width="1.2" stroke-linecap="round" stroke-linejoin="round"/>
<path d="M110.899 40.6548C110.899 40.9789 110.803 41.2957 110.623 41.5652C110.443 41.8346 110.188 42.0447 109.889 42.1687C109.59 42.2927 109.261 42.3252 108.943 42.2619C108.626 42.1987 108.334 42.0426 108.106 41.8135C107.877 41.5843 107.721 41.2923 107.658 40.9745C107.595 40.6566 107.627 40.3271 107.751 40.0277C107.875 39.7283 108.084 39.4723 108.353 39.2923C108.623 39.1122 108.939 39.0161 109.262 39.0161C109.477 39.0161 109.69 39.0585 109.889 39.1408C110.087 39.2232 110.267 39.3439 110.419 39.4961C110.571 39.6482 110.692 39.8289 110.774 40.0277C110.856 40.2265 110.899 40.4396 110.899 40.6548V40.6548Z" fill="#DDDDDD"/>
<path d="M114.595 42.2934C115.498 42.2934 116.231 41.5598 116.231 40.6548C116.231 39.7498 115.498 39.0161 114.595 39.0161C113.691 39.0161 112.959 39.7498 112.959 40.6548C112.959 41.5598 113.691 42.2934 114.595 42.2934Z" fill="#EDEDED"/>
<path d="M121.563 40.6548C121.563 40.9791 121.467 41.2962 121.287 41.5658C121.107 41.8354 120.851 42.0454 120.552 42.1693C120.252 42.2931 119.923 42.3252 119.605 42.2615C119.288 42.1978 118.996 42.0411 118.768 41.8114C118.539 41.5816 118.384 41.289 118.321 40.9708C118.259 40.6525 118.292 40.3229 118.417 40.0235C118.542 39.7242 118.752 39.4687 119.022 39.2894C119.292 39.11 119.609 39.0149 119.933 39.0161C120.147 39.0161 120.36 39.0586 120.558 39.141C120.756 39.2234 120.936 39.3442 121.088 39.4964C121.239 39.6487 121.359 39.8294 121.441 40.0281C121.522 40.2269 121.564 40.4399 121.563 40.6548Z" fill="#DDDDDD"/>
<path d="M97.2605 118.94C99.3026 116.769 102.712 116.5 102.712 116.5L106.659 120.584C106.659 120.584 107.782 108.522 102.712 91.9736C101.751 100.053 98.7831 113.055 97.2605 118.94Z" fill="#DDDDDD" stroke="#DDDDDD" stroke-width="0.6" stroke-linecap="round" stroke-linejoin="round"/>
<path d="M136.204 89.5214C141.907 107.642 141.632 120.584 141.632 120.584H106.659C106.659 120.584 101.948 102.601 102.712 91.9734C102.712 91.9734 102.049 89.4676 104.241 89.2463C106.432 89.025 136.204 89.5214 136.204 89.5214Z" fill="#F9F9F9" stroke="#DDDDDD" stroke-width="0.6" stroke-linecap="round" stroke-linejoin="round"/>
<path d="M108.182 89.3426C108.179 89.2928 108.179 89.2429 108.182 89.1931C108.232 88.7091 108.422 88.2502 108.728 87.872C109.034 87.4937 109.442 87.2123 109.904 87.0619C110.367 86.9114 110.862 86.8983 111.332 87.0241C111.801 87.1499 112.224 87.4093 112.549 87.7708C112.875 88.1324 113.088 88.5806 113.164 89.0612C113.241 89.5419 113.176 90.0344 112.979 90.4791C112.781 90.9238 112.46 91.3017 112.052 91.567C111.645 91.8323 111.169 91.9737 110.684 91.974" stroke="#EDEDED" stroke-width="0.6" stroke-linecap="round" stroke-linejoin="round"/>
<path d="M125.952 89.3425C126.016 88.8634 126.217 88.4128 126.53 88.0448C126.843 87.6767 127.255 87.4067 127.717 87.267C128.179 87.1274 128.672 87.1239 129.136 87.2571C129.6 87.3903 130.016 87.6545 130.334 88.0181C130.652 88.3817 130.859 88.8294 130.93 89.3076C131.001 89.7859 130.933 90.2744 130.734 90.715C130.535 91.1555 130.213 91.5293 129.808 91.7918C129.403 92.0543 128.93 92.1944 128.448 92.1952C128.028 92.1945 127.616 92.0831 127.253 91.8723" stroke="#EDEDED" stroke-width="0.6" stroke-linecap="round" stroke-linejoin="round"/>
<path d="M115.317 89.2346C115.345 88.5787 115.616 87.9568 116.078 87.491C116.54 87.0252 117.158 86.749 117.813 86.7168C118.502 86.7883 119.14 87.1131 119.604 87.6284C120.068 88.1437 120.325 88.8129 120.325 89.5067C120.325 90.2005 120.068 90.8697 119.604 91.385C119.14 91.9003 118.502 92.225 117.813 92.2966C117.25 92.2876 116.709 92.0752 116.29 91.6985" stroke="#EDEDED" stroke-width="0.6" stroke-linecap="round" stroke-linejoin="round"/>
<path d="M120.643 89.2942C120.707 88.8158 120.906 88.3657 121.218 87.9977C121.529 87.6298 121.941 87.3596 122.402 87.2195C122.863 87.0794 123.354 87.0753 123.818 87.2077C124.281 87.3401 124.696 87.6033 125.014 87.966C125.332 88.3287 125.539 88.7754 125.61 89.2527C125.681 89.73 125.613 90.2177 125.415 90.6575C125.217 91.0973 124.896 91.4705 124.491 91.7325C124.087 91.9945 123.615 92.1342 123.133 92.1349" stroke="#EDEDED" stroke-width="0.6" stroke-linecap="round" stroke-linejoin="round"/>
<path d="M134.329 95.3467H109.824V98.1515H134.329V95.3467Z" stroke="#DDDDDD" stroke-width="0.6" stroke-linecap="round" stroke-linejoin="round"/>
<path d="M115.896 117.528L115.586 115.166L114.009 103.007L113.747 101.01" stroke="#EDEDED" stroke-width="0.6" stroke-linecap="round" stroke-linejoin="round"/>
<path d="M123.85 117.528L123.521 114.998L121.981 103.163L121.7 101.01" stroke="#EDEDED" stroke-width="0.6" stroke-linecap="round" stroke-linejoin="round"/>
<path d="M129.66 101.004L131.803 117.534" stroke="#EDEDED" stroke-width="0.6" stroke-linecap="round" stroke-linejoin="round"/>
<path d="M134.592 104.311H122.13H114.177H110.69" stroke="#EDEDED" stroke-width="0.6" stroke-linecap="round" stroke-linejoin="round"/>
<path d="M135.804 111.53H123.068H115.114H111.896" stroke="#EDEDED" stroke-width="0.6" stroke-linecap="round" stroke-linejoin="round"/>
<path d="M116.446 101.579C112.493 103.6 110.588 112.027 117.294 112.589C127.176 113.414 127.648 101.226 118.989 102.374" fill="#F9F9F9"/>
<path d="M116.446 101.579C112.493 103.6 110.588 112.027 117.294 112.589C127.176 113.414 127.648 101.226 118.989 102.374" stroke="#DDDDDD" stroke-width="1.2" stroke-linecap="round" stroke-linejoin="round"/>
<path d="M123.068 111.529H115.114L114.177 104.311H122.13L123.068 111.529Z" fill="#EDEDED"/>
<path d="M137.357 110.441C137.524 113.186 142.731 110.166 142.372 107.762C142.014 105.358 137.16 107.26 137.357 110.441Z" fill="#FEBD9D" stroke="#EF8A66" stroke-width="0.45" stroke-linecap="round" stroke-linejoin="round"/>
<path d="M136.473 106.745C136.664 109.496 142.528 106.476 142.145 104.066C141.763 101.656 136.252 103.57 136.473 106.745Z" fill="#FEBD9D" stroke="#EF8A66" stroke-width="0.45" stroke-linecap="round" stroke-linejoin="round"/>
<path d="M136.061 103.989C136.264 106.734 142.551 103.714 142.139 101.309C141.727 98.9052 135.828 100.807 136.061 103.989Z" fill="#FEBD9D" stroke="#EF8A66" stroke-width="0.45" stroke-linecap="round" stroke-linejoin="round"/>
<path d="M135.177 100.586C135.386 103.08 141.871 100.34 141.447 98.1576C141.023 95.9747 134.932 97.7031 135.177 100.586Z" fill="#FEBD9D" stroke="#EF8A66" stroke-width="0.45" stroke-linecap="round" stroke-linejoin="round"/>
<path d="M116.446 101.579C112.493 103.6 110.588 112.027 117.294 112.589C127.176 113.414 127.648 101.226 118.989 102.374" stroke="#DDDDDD" stroke-width="1.2" stroke-linecap="round" stroke-linejoin="round"/>
<path d="M92.8478 37.5811C92.3283 41.905 86.5543 44.4407 86.5543 44.4407L70.5337 58.447C68.8917 61.0724 64.4193 62.3941 61.6965 60.1992C60.1022 58.9194 59.111 56.4375 59.6484 52.305C59.2026 52.3052 58.7665 52.1742 58.3944 51.9282C56.5494 50.786 55.4089 47.1439 58.1795 42.82C57.9824 43.0113 54.2923 46.6056 50.4946 45.5172C49.8416 45.3424 49.2329 45.0308 48.709 44.603C48.1851 44.1751 47.7578 43.6408 47.4553 43.0353C46.2611 40.5892 46.6791 36.5106 50.0886 30.9188C52.5129 26.9298 55.8866 26.2122 58.7766 26.9597C62.0488 27.797 64.7 30.4882 64.7 32.4438C65.4219 31.5565 66.2593 30.77 67.1899 30.1055C68.4677 29.2144 70.0501 28.6104 71.4652 29.4715C71.4652 29.4715 76.4452 26.7863 79.2755 28.4668C82.7984 30.548 82.0222 31.9953 85.4496 32.2226C87.9993 32.39 92.0178 33.0359 92.7523 35.9305C92.8921 36.469 92.9246 37.0299 92.8478 37.5811Z" fill="#FF7446"/>
<path d="M64.6999 32.4434L58.1914 42.8076C57.7266 43.2432 57.2296 43.6431 56.7046 44.0037C55.2417 45.0204 52.901 46.1806 50.5126 45.4988C49.8595 45.3241 49.2508 45.0125 48.7269 44.5846C48.203 44.1568 47.7757 43.6225 47.4733 43.0169C54.8894 42.8614 57.4988 40.7862 55.9761 36.7015C54.561 32.898 53.0921 28.1196 58.7945 26.9414C61.0253 27.4978 62.964 28.8777 64.2223 30.8048C64.5191 31.3009 64.6836 31.8652 64.6999 32.4434V32.4434Z" fill="#CC5D38"/>
<path d="M92.8478 37.5808C92.3283 41.9047 86.5543 44.4404 86.5543 44.4404L70.5337 58.4467C68.8917 61.0721 64.4193 62.3938 61.6965 60.1989C60.7549 57.9374 60.5237 55.4422 61.0336 53.0457C61.5435 50.6493 62.7703 48.4653 64.5507 46.7847C67.8348 43.7945 65.4284 41.5638 65.7449 37.6286C66.0614 33.6935 73.2506 27.6352 78.3977 33.0715C82.4342 37.3356 90.0295 32.1804 92.7821 35.9302C92.912 36.4707 92.9343 37.0316 92.8478 37.5808V37.5808Z" fill="#CC5D38"/>
<path d="M83.0253 66.1975C75.8242 65.4559 68.5155 57.9743 68.5155 57.9743C65.7688 61.1081 60.353 56.4254 63.034 52.5261C64.7895 49.9605 67.5362 51.4855 68.205 52.885C69.3192 52.1645 70.1362 51.0654 70.5059 49.7897C70.8756 48.5141 70.7731 47.1476 70.2173 45.9416C69.6278 44.4609 69.3729 42.8679 69.4709 41.2768C71.9071 37.569 78.3678 36.7197 78.3678 36.7197C79.3228 37.7282 80.4843 38.5176 81.7728 39.0337C83.0612 39.5499 84.4459 39.7806 85.8318 39.71C85.8318 39.71 88.047 44.0458 89.8503 48.4534C89.8862 48.5491 89.9339 48.6568 89.9698 48.7524C90.4773 50.0083 90.949 51.2643 91.3192 52.4125C91.355 52.5261 91.3849 52.6278 91.4207 52.7354C91.7171 53.6423 91.9369 54.5726 92.0776 55.5164C92.6568 60.2589 90.2205 66.969 83.0253 66.1975Z" fill="#FEBD9D"/>
<path d="M81.1086 52.52C82.6646 53.3015 84.3906 53.6818 86.1303 53.6264C86.1303 53.6264 85.796 56.5389 83.3 55.7614C81.1206 55.0856 81.1086 52.52 81.1086 52.52Z" fill="white" stroke="#EF8A66" stroke-width="0.45" stroke-linecap="round" stroke-linejoin="round"/>
<path d="M58.1914 42.808C59.5095 38.8852 61.7404 35.3327 64.7 32.4438C64.7 32.4438 63.028 35.8408 64.2521 38.2569C62.1274 39.6291 60.1022 41.15 58.1914 42.808V42.808Z" fill="#FFBE3C"/>
<path d="M83.9449 45.9121C83.9091 47.7063 85.3421 48.7349 86.2856 49.2313C87.229 49.7277 86.9185 51.0254 86.8528 51.2168" stroke="#EF8A66" stroke-width="0.45" stroke-linecap="round" stroke-linejoin="round"/>
<path d="M304.082 24.1731V113.45H177.005V24.1731C177.005 21.7844 177.952 19.4935 179.639 17.8045C181.325 16.1154 183.612 15.1665 185.997 15.1665H295.126C297.505 15.1744 299.784 16.127 301.463 17.8154C303.142 19.5038 304.084 21.7901 304.082 24.1731V24.1731Z" stroke="#EDEDED" stroke-width="1.2" stroke-linecap="round" stroke-linejoin="round"/>
<path d="M304.082 24.1731V24.5738H177.005V24.1731C177.005 21.7844 177.952 19.4935 179.639 17.8045C181.325 16.1154 183.612 15.1665 185.997 15.1665H295.126C297.505 15.1744 299.784 16.127 301.463 17.8154C303.142 19.5038 304.084 21.7901 304.082 24.1731V24.1731Z" stroke="#DDDDDD" stroke-width="1.2" stroke-linecap="round" stroke-linejoin="round"/>
<path d="M286.903 19.8726C286.903 20.1969 286.807 20.514 286.627 20.7836C286.447 21.0532 286.191 21.2632 285.892 21.387C285.593 21.5109 285.263 21.543 284.946 21.4793C284.628 21.4156 284.337 21.2589 284.108 21.0291C283.88 20.7994 283.724 20.5068 283.662 20.1886C283.599 19.8703 283.633 19.5406 283.757 19.2413C283.882 18.942 284.093 18.6865 284.363 18.5072C284.633 18.3278 284.949 18.2327 285.273 18.2339C285.488 18.2339 285.7 18.2763 285.898 18.3588C286.097 18.4412 286.277 18.562 286.428 18.7142C286.58 18.8664 286.699 19.0471 286.781 19.2459C286.863 19.4447 286.904 19.6576 286.903 19.8726V19.8726Z" fill="#EDEDED"/>
<path d="M292.242 19.8725C292.242 20.1966 292.146 20.5135 291.966 20.7829C291.786 21.0524 291.531 21.2624 291.232 21.3865C290.933 21.5105 290.604 21.5429 290.286 21.4797C289.969 21.4165 289.677 21.2604 289.449 21.0312C289.22 20.8021 289.064 20.5101 289.001 20.1922C288.938 19.8744 288.97 19.5449 289.094 19.2455C289.218 18.946 289.427 18.6901 289.696 18.5101C289.966 18.33 290.282 18.2339 290.605 18.2339C291.039 18.2339 291.456 18.4065 291.762 18.7138C292.069 19.0211 292.242 19.4379 292.242 19.8725V19.8725Z" fill="#DDDDDD"/>
<path d="M297.574 19.8725C297.574 20.1966 297.478 20.5135 297.298 20.7829C297.118 21.0524 296.863 21.2624 296.564 21.3865C296.265 21.5105 295.936 21.5429 295.618 21.4797C295.301 21.4165 295.01 21.2604 294.781 21.0312C294.552 20.8021 294.396 20.5101 294.333 20.1922C294.27 19.8744 294.302 19.5449 294.426 19.2455C294.55 18.946 294.76 18.6901 295.029 18.5101C295.298 18.33 295.614 18.2339 295.938 18.2339C296.372 18.2339 296.788 18.4065 297.095 18.7138C297.401 19.0211 297.574 19.4379 297.574 19.8725V19.8725Z" fill="#EDEDED"/>
<path d="M179.716 62.986C179.387 59.2542 195.838 52.1793 198.555 57.6395L193.181 62.986C193.181 62.986 182.08 67.3936 179.716 62.986Z" fill="#4C10CC"/>
<path d="M187.765 36.2955C185.376 28.8557 185.197 27.9228 186.797 27.3666C188.398 26.8104 192.452 35.2608 192.912 36.2955C194.518 39.5519 195.756 42.9781 196.602 46.5101C197.313 49.8113 198.244 57.4125 198.393 59.2425C199.026 66.9693 186.308 69.3196 185.753 63.3093C185.197 57.2989 185.155 55.3552 185.155 55.3552C185.155 55.3552 178.587 55.9533 177.668 51.0612C176.748 46.1692 177.005 39.4591 177.005 39.4591C177.005 39.4591 167.021 37.8025 167.367 35.1651C167.714 32.5278 187.251 37.8564 187.251 37.8564L187.765 36.2955Z" fill="#B25E47"/>
<path d="M187.251 37.8384C186.394 41.1353 186.531 44.6129 187.645 47.8318" stroke="#934735" stroke-width="0.45" stroke-linecap="round" stroke-linejoin="round"/>
<path d="M182.576 32.1332C184.14 32.9465 185.376 33.12 185.842 30.8833C186.308 28.6466 184.105 28.5928 183.394 28.7124C182.301 28.8918 181.901 31.7804 182.576 32.1332Z" fill="#372B47"/>
<path d="M182.868 31.5591C182.623 32.4311 182.424 33.3154 182.271 34.2084C182.528 34.34 184.063 34.8603 184.266 34.34C184.5 33.4267 184.666 32.4972 184.761 31.5591H182.868Z" fill="#372B47"/>
<path d="M181.471 34.9501C180.653 38.6161 176.426 58.7105 176.282 59.3684C176.139 60.0262 176.33 63.0643 176.587 63.1779C176.844 63.2916 178.318 61.1207 178.856 60.0203C179.393 58.9198 184.146 36.8698 184.439 35.8412C185.167 33.3354 182.009 32.5519 181.471 34.9501Z" fill="#372B47"/>
<path d="M177.751 46.3546C175.703 46.827 175.124 48.7826 176.635 50.0804C178.259 51.4798 182.259 50.8579 182.445 49.0697C182.63 47.2816 179.459 45.9658 177.751 46.3546Z" fill="#B25E47" stroke="#934735" stroke-width="0.45" stroke-linecap="round" stroke-linejoin="round"/>
<path d="M177.566 43.1495C175.464 42.8385 174.951 44.9436 176.45 46.5584C177.948 48.1731 182.898 48.5379 183.179 46.6182C183.46 44.6984 178.856 43.3409 177.566 43.1495Z" fill="#B25E47" stroke="#934735" stroke-width="0.45" stroke-linecap="round" stroke-linejoin="round"/>
<path d="M175.703 39.5552C178.342 38.9572 184.063 42.8146 183.83 44.0167C183.549 45.5297 180.844 45.757 177.035 44.1363C173.458 42.6172 174.413 39.8602 175.703 39.5552Z" fill="#B25E47" stroke="#934735" stroke-width="0.45" stroke-linecap="round" stroke-linejoin="round"/>
<path d="M302.751 68.6972C294.558 68.2965 287.775 75.6943 285.673 84.1986C285.614 84.4378 285.56 84.695 285.512 84.976C285.288 86.2849 285.131 87.6043 285.04 88.9291C284.169 100.154 284.993 122.48 285.076 123.018C285.106 123.203 279.278 123.018 271.193 122.635C268.208 122.498 264.936 122.348 261.52 122.175C244.156 121.319 223.532 120.165 223.532 120.165L222.278 106.195C222.278 106.195 219.68 110.596 210.795 119.19C201.91 127.784 187.705 122.994 189.234 112.187C190.189 105.399 194.19 100.436 199.038 92.1227C200.537 89.5511 202.119 86.6625 203.708 83.2955C205.833 78.8221 207.887 74.5521 209.87 70.6947C210.736 68.9962 211.59 67.3755 212.42 65.8565C215.537 60.0973 218.331 55.7375 220.582 53.6982C227.347 47.5622 241.845 51.0966 245.709 52.3406C251.464 54.2169 257.436 55.3445 263.479 55.6956C272.047 56.2937 285.058 59.9956 291.949 62.3997C295.923 63.7362 299.582 65.8755 302.697 68.6852L302.751 68.6972Z" fill="#5B13F4"/>
<path d="M308.519 81.4296C301.019 73.8942 289.632 70.605 278.203 80.8316C264.912 92.6909 254.713 94.7541 239.761 77.4347C228.948 64.8757 225.198 61.712 212.42 65.8804C215.537 60.1212 218.331 55.7614 220.582 53.7221C227.347 47.5861 241.845 51.1206 245.709 52.3645C251.465 54.2327 257.437 55.3522 263.479 55.6956C272.047 56.2937 285.058 59.9956 291.949 62.3997C295.923 63.7362 299.582 65.8755 302.697 68.6852C305.695 71.0535 307.444 75.79 308.519 81.4296Z" fill="#7D44F4"/>
<path d="M209.655 102.983C204.878 108.174 200.585 96.9192 199.038 92.1229C200.537 89.5513 202.119 86.6627 203.708 83.2957C205.833 78.8223 207.888 74.5522 209.87 70.6948C213.393 76.0773 208.634 81.0291 208.3 83.4691C207.428 89.9938 216.504 95.5317 209.655 102.983Z" fill="#4C10CC"/>
<path d="M179.716 62.9857C187.096 64.5466 198.555 57.6392 198.555 57.6392C198.555 57.6392 204.866 85.873 206.514 92.1346C208.162 98.3961 218.707 122.922 198.155 123.927C184.964 124.573 184.081 99.4606 183.298 91.1956C182.516 82.9306 179.716 62.9857 179.716 62.9857Z" fill="#5B13F4"/>
<path d="M239.761 56.9157C243.44 63.7514 253.196 70.324 264.971 61.2516C264.971 61.2516 266.237 57.4839 266.106 57.4839C265.975 57.4839 241.427 54.4937 241.427 54.4937L239.761 56.9157Z" fill="#BFA6F4"/>
<path d="M249.453 48.4715C246.419 47.7838 242.024 48.5552 238.991 53.22C235.958 57.8848 235.57 61.7302 235.743 61.6884C235.916 61.6465 240.52 58.734 242.58 58.9493C244.64 59.1646 249.255 60.5281 249.255 60.5281L249.453 48.4715Z" fill="#00CEFF"/>
<path d="M263.12 49.8403C263.12 49.8403 269.826 49.8822 270.722 54.5888C271.617 59.2955 269.145 64.941 266.112 67.5485C263.079 70.156 264.745 63.7808 253.853 60.7906L263.12 49.8403Z" fill="#00CEFF"/>
<path d="M266.393 55.3428C266.393 55.3428 262.667 61.0123 254.367 61.1378C246.067 61.2634 244.473 56.3116 244.473 56.3116C245.374 54.0629 246.455 49.2666 247.148 45.9056C247.59 43.7825 247.876 42.2276 247.876 42.2276C247.876 42.2276 249.249 28.915 263.497 29.7164L263.741 31.8993L266.393 55.3428Z" fill="#B25E47"/>
<path d="M247.148 46.0374C247.59 43.9203 247.876 42.3594 247.876 42.3594L255.985 38.5498C255.985 38.5498 257.269 47.8315 247.148 46.0374Z" fill="#914839"/>
<path d="M276.418 138.077C275.722 137.823 275.059 137.488 274.442 137.078C270.262 134.333 269.933 128.987 271.193 122.612C272.173 117.732 274.095 112.253 275.97 106.883C278.114 100.759 280.21 94.7845 280.801 90.0001C280.884 89.3303 280.932 88.6904 280.956 88.0804C281.07 84.4119 281.741 80.7821 282.944 77.3155C286.372 67.663 293.842 61.5869 302.727 68.6976C305.671 71.054 307.42 75.7905 308.495 81.4301C308.877 83.4455 309.176 85.5805 309.42 87.7574C310.233 95.1493 310.352 103.097 310.716 109.018C312.514 137.682 305.653 149.129 276.418 138.077Z" fill="#5B13F4"/>
<path d="M308.519 81.4298C302.064 74.947 292.719 71.6039 282.956 77.3033C286.384 67.6508 293.854 61.5747 302.739 68.6854C305.695 71.0537 307.444 75.7902 308.519 81.4298Z" fill="#7D44F4"/>
<path d="M285.076 122.994C285.106 123.179 279.278 122.994 271.193 122.611C268.208 122.474 264.936 122.324 261.52 122.151C255.68 119.519 252.05 115.71 255.161 110.25C263.628 95.412 279.183 115.967 279.995 101.279C280.544 91.2078 282.98 89.0189 285.04 88.9531C284.169 100.155 284.975 122.48 285.076 122.994Z" fill="#4C10CC"/>
<path d="M276.418 138.077C275.722 137.823 275.059 137.488 274.442 137.078C281.141 138.52 291.161 139.818 295.573 136.044C302.53 130.111 298.111 122.504 301.957 118.318C305.802 114.131 311.349 112.78 309.444 87.7754C310.256 95.1673 310.376 103.115 310.74 109.036C312.514 137.682 305.653 149.129 276.418 138.077Z" fill="#4C10CC"/>
<path d="M259.663 87.7569C260.726 82.9725 254.719 83.1818 254.719 83.1818C255.25 78.7682 249.411 77.5422 248.061 81.8542C243.314 80.4189 241.815 81.8542 241.123 84.354L259.663 87.7569Z" fill="#DDDDDD"/>
<path d="M251.566 83.6424C252.348 83.6424 252.981 83.0078 252.981 82.225C252.981 81.4422 252.348 80.8076 251.566 80.8076C250.785 80.8076 250.151 81.4422 250.151 82.225C250.151 83.0078 250.785 83.6424 251.566 83.6424Z" fill="#F9F9F9" stroke="#DDDDDD" stroke-width="0.6" stroke-linecap="round" stroke-linejoin="round"/>
<path d="M232.106 80.8013L223.245 128.926L258.427 136.043L267.879 87.8522L232.106 80.8013Z" fill="#F9F9F9" stroke="#DDDDDD" stroke-width="0.6" stroke-linecap="round" stroke-linejoin="round"/>
<path d="M242.944 112.689C241.153 117.372 241.045 122.294 241.869 123.938C241.869 123.938 245.225 124.566 248.581 115.446L242.944 112.689Z" fill="#4C10CC"/>
<path d="M247.5 103.635C239.451 100.866 235.605 99.1911 234.154 98.7964C232.704 98.4017 227.461 97.9591 226.625 98.7964C225.789 99.6336 225.729 100.698 226.028 101.787C226.326 102.875 225.431 103.718 225.305 104.843C225.18 105.967 226.529 106.308 226.255 107.426C225.98 108.545 225.06 109.771 225.693 111.014C226.326 112.258 225.096 113.526 226.255 115.033C227.413 116.54 239.284 117.27 241.887 116.714L246.998 119.004C246.998 119.004 255.991 109.753 247.5 103.635Z" fill="#B25E47"/>
<path d="M234.154 98.7965C232.704 98.4078 227.461 97.9592 226.625 98.7965C225.789 99.6338 225.729 100.698 226.028 101.787C226.326 102.875 225.431 103.718 225.305 104.843C225.18 105.967 226.529 106.308 226.255 107.426C225.98 108.545 225.06 109.771 225.693 111.015C226.326 112.259 225.096 113.526 226.255 115.033" stroke="#934735" stroke-width="0.45" stroke-linecap="round" stroke-linejoin="round"/>
<path d="M295.579 136.037C293.484 139.828 288.241 141.652 278.263 138.644C275.576 137.831 272.985 136.988 270.501 136.132C266.393 134.721 262.601 133.28 259.203 131.898C253.283 129.541 247.488 126.882 241.839 123.932C243.34 122.275 244.551 120.377 245.422 118.316C245.965 117.097 246.412 115.838 246.76 114.549C247.687 110.987 247.936 107.282 247.494 103.628C248.849 104.035 250.306 104.454 251.841 104.872C255.549 105.889 259.705 106.942 263.915 108.048C276.532 111.379 289.656 115.195 292.851 119.937C293.143 120.374 293.448 120.81 293.687 121.265C293.788 121.444 293.896 121.624 293.991 121.809C294.021 121.855 294.046 121.903 294.069 121.953C294.188 122.168 294.302 122.389 294.409 122.604C294.612 122.993 294.791 123.382 294.964 123.771C296.845 128.089 297.377 132.789 295.579 136.037Z" fill="#5B13F4"/>
<path d="M295.573 136.042C293.478 139.834 288.235 141.658 278.257 138.65C275.57 137.837 272.979 136.993 270.495 136.138C276.352 137.681 290.152 140.665 295.573 136.042Z" fill="#4C10CC"/>
<path d="M263.479 29.8309L263.723 32.0078C258.678 39.8901 251.781 42.372 247.858 42.3361C241.374 40.7154 239.158 34.8665 238.782 28.581C238.69 27.0913 238.69 25.5973 238.782 24.1076C239.072 19.8502 239.788 15.6327 240.92 11.5187C240.92 11.5187 260.398 2.44035 261.747 20.6629C261.747 20.6629 265.927 19.8974 266.697 24.5502C267.354 28.4136 263.479 29.8309 263.479 29.8309Z" fill="#B25E47"/>
<path d="M244.007 21.0933C244.664 22.3671 244.604 23.1386 244.174 23.9579C243.744 24.7772 242.424 26.6431 243.111 28.2997" stroke="#934735" stroke-width="0.45" stroke-linecap="round" stroke-linejoin="round"/>
<path d="M248.258 28.5806C247.661 30.5601 245.309 31.7981 244.216 31.5708C244.216 31.5708 245.344 34.6388 247.333 33.8554C249.62 32.9284 248.258 28.5806 248.258 28.5806Z" fill="white" stroke="#934735" stroke-width="0.45" stroke-linecap="round" stroke-linejoin="round"/>
<path d="M267.461 18.8027C269.695 21.8767 266.333 23.2103 266.333 23.2103C265.994 22.707 265.544 22.2877 265.019 21.9843C264.689 21.7893 264.32 21.6698 263.939 21.6343C263.558 21.5989 263.173 21.6484 262.813 21.7793C262.453 21.9102 262.126 22.1192 261.856 22.3914C261.586 22.6636 261.38 22.9923 261.251 23.3538C256.672 23.4495 258.648 19.8672 258.648 19.8672C254.54 21.5119 254.409 17.2956 256.176 15.3938C252.969 18.9821 248.897 15.3938 249.56 12.1464C248.425 15.6929 244.383 15.8304 244.92 12.888C244.573 13.4925 244.152 14.0511 243.666 14.5506C240.89 17.3494 238.394 14.3592 239.445 12.1584C235.265 16.1414 233.474 11.6859 237.445 9.29374C234.298 6.71017 238.042 3.0262 240.556 4.93995C239.958 0.352925 244.688 0.15557 246.76 2.82884C247.572 -2.20672 253.853 0.5443 254.104 2.93051C258.732 -0.310908 262.314 2.07531 261.866 7.34411C263.735 4.83829 267.742 6.30948 266.201 12.7265C270.047 12.4514 270.698 17.2298 267.461 18.8027Z" fill="#372B47"/>
<path d="M265.019 21.9843C264.689 21.7893 264.32 21.6698 263.939 21.6343C263.558 21.5989 263.173 21.6484 262.813 21.7793C262.453 21.9102 262.126 22.1192 261.856 22.3914C261.586 22.6636 261.38 22.9923 261.251 23.3538C256.672 23.4495 258.648 19.8672 258.648 19.8672C254.54 21.5119 254.409 17.2956 256.176 15.3938C252.969 18.9821 248.897 15.3938 249.56 12.1464C248.425 15.6929 244.383 15.8304 244.92 12.888C244.573 13.4925 244.152 14.0511 243.666 14.5506C242.544 11.1477 245.058 6.65635 248.897 8.68971C249.405 5.95066 255.68 4.17445 255.645 11.0819C257.967 7.83451 263.228 8.94687 260.738 15.1426C262.696 13.6774 267.199 16.2132 265.019 21.9843Z" fill="#1F1926"/>
<path d="M257.866 152.323V241.599H130.764V152.323C130.761 151.14 130.99 149.968 131.44 148.874C131.891 147.78 132.552 146.786 133.388 145.95C134.223 145.113 135.215 144.45 136.307 143.999C137.399 143.548 138.57 143.318 139.751 143.322H248.879C250.06 143.318 251.231 143.548 252.323 143.999C253.415 144.45 254.407 145.113 255.242 145.95C256.078 146.786 256.74 147.78 257.19 148.874C257.64 149.968 257.87 151.14 257.866 152.323Z" stroke="#EDEDED" stroke-width="1.2" stroke-linecap="round" stroke-linejoin="round"/>
<path d="M257.866 152.323V152.73H130.764V152.323C130.761 151.14 130.99 149.968 131.44 148.874C131.891 147.78 132.552 146.786 133.388 145.95C134.223 145.113 135.215 144.45 136.307 143.999C137.399 143.548 138.57 143.318 139.751 143.322H248.879C250.06 143.318 251.231 143.548 252.323 143.999C253.415 144.45 254.407 145.113 255.242 145.95C256.078 146.786 256.74 147.78 257.19 148.874C257.64 149.968 257.87 151.14 257.866 152.323Z" stroke="#DDDDDD" stroke-width="1.2" stroke-linecap="round" stroke-linejoin="round"/>
<path d="M240.663 148.022C240.663 148.347 240.567 148.663 240.387 148.933C240.207 149.202 239.952 149.412 239.653 149.536C239.354 149.66 239.025 149.693 238.708 149.63C238.39 149.566 238.099 149.41 237.87 149.181C237.641 148.952 237.485 148.66 237.422 148.342C237.359 148.024 237.392 147.695 237.515 147.395C237.639 147.096 237.849 146.84 238.118 146.66C238.387 146.48 238.703 146.384 239.027 146.384C239.461 146.384 239.877 146.556 240.184 146.864C240.491 147.171 240.663 147.588 240.663 148.022V148.022Z" fill="#EDEDED"/>
<path d="M244.359 149.661C245.263 149.661 245.995 148.927 245.995 148.022C245.995 147.117 245.263 146.384 244.359 146.384C243.456 146.384 242.723 147.117 242.723 148.022C242.723 148.927 243.456 149.661 244.359 149.661Z" fill="#DDDDDD"/>
<path d="M249.697 149.661C250.601 149.661 251.333 148.927 251.333 148.022C251.333 147.117 250.601 146.384 249.697 146.384C248.794 146.384 248.061 147.117 248.061 148.022C248.061 148.927 248.794 149.661 249.697 149.661Z" fill="#EDEDED"/>
<path d="M138.258 195.454C134.628 184.689 133.774 178.876 134.765 178.045C135.362 177.518 136.359 177.13 136.437 176.065C136.515 175 135.297 171.424 139.548 170.587C139.548 170.587 140.987 162.148 142.354 158.195C142.354 158.195 149.95 188.474 150.481 190.747C151.013 193.02 140.724 202.798 138.258 195.454Z" fill="#FEBD9D"/>
<path d="M175.186 140.084L141.911 149.484C139.969 150.032 138.838 152.054 139.386 154L145.845 176.937C146.393 178.883 148.412 180.015 150.354 179.466L183.629 170.067C185.571 169.518 186.702 167.496 186.154 165.551L179.695 142.614C179.147 140.668 177.129 139.536 175.186 140.084Z" fill="#F9F9F9" stroke="#DDDDDD" stroke-width="0.6" stroke-linecap="round" stroke-linejoin="round"/>
<path d="M173.542 143.434L145.072 151.476C143.786 151.839 143.038 153.177 143.401 154.464L149.026 174.443C149.389 175.731 150.725 176.48 152.01 176.117L180.481 168.075C181.766 167.712 182.514 166.374 182.152 165.086L176.526 145.107C176.163 143.82 174.827 143.071 173.542 143.434Z" stroke="#EDEDED" stroke-width="0.6" stroke-linecap="round" stroke-linejoin="round"/>
<path d="M165.289 162.765C165.299 162.934 165.299 163.104 165.289 163.273C165.197 164.56 164.748 165.795 163.994 166.841C163.239 167.886 162.209 168.701 161.018 169.192C159.828 169.684 158.524 169.834 157.253 169.625C155.982 169.417 154.794 168.857 153.823 168.01C152.851 167.163 152.135 166.062 151.753 164.829C151.372 163.597 151.341 162.283 151.664 161.034C151.986 159.785 152.65 158.651 153.58 157.759C154.51 156.867 155.67 156.252 156.93 155.983C157.4 155.876 157.881 155.824 158.363 155.827C159.273 155.827 160.175 156.005 161.016 156.354C161.858 156.702 162.622 157.213 163.267 157.857C163.911 158.501 164.422 159.266 164.771 160.108C165.121 160.95 165.301 161.853 165.301 162.765H165.289Z" stroke="#EDEDED" stroke-width="0.6" stroke-linecap="round" stroke-linejoin="round"/>
<path d="M165.266 163.255C165.183 164.406 164.814 165.518 164.194 166.491C163.574 167.464 162.722 168.266 161.714 168.826C160.706 169.386 159.575 169.685 158.423 169.697C157.271 169.709 156.134 169.433 155.115 168.894C156.458 166.173 158.333 162.316 158.333 162.316L165.266 163.255Z" stroke="#EDEDED" stroke-width="0.6" stroke-linecap="round" stroke-linejoin="round"/>
<path d="M165.29 162.764C165.299 162.933 165.299 163.103 165.29 163.272L158.375 162.351L163.606 158.207C164.7 159.471 165.298 161.091 165.29 162.764V162.764Z" stroke="#EDEDED" stroke-width="0.6" stroke-linecap="round" stroke-linejoin="round"/>
<path d="M163.582 158.208L158.351 162.352C158.351 162.352 157.455 158.507 156.918 155.983C157.388 155.876 157.869 155.824 158.351 155.827C159.342 155.826 160.322 156.038 161.224 156.449C162.127 156.859 162.931 157.459 163.582 158.208V158.208Z" fill="#DDDDDD" stroke="#DDDDDD" stroke-width="0.6" stroke-linecap="round" stroke-linejoin="round"/>
<path d="M173.165 160.217C174.473 159.757 173.267 159.087 174.133 158.716C175.399 158.178 175.811 150.343 170.186 151.952C165.922 153.148 169.027 160.115 171.117 159.476C171.685 159.302 171.667 160.749 173.165 160.217Z" fill="#F9F9F9" stroke="#DDDDDD" stroke-width="0.6" stroke-linecap="round" stroke-linejoin="round"/>
<path d="M171.631 154.476C171.076 155.474 171.517 156.174 172.425 156.509C173.948 157.077 171.685 158.865 171.189 157.884C170.646 156.808 173.619 157.526 172.98 159.942" stroke="#DDDDDD" stroke-width="0.6" stroke-linecap="round" stroke-linejoin="round"/>
<path d="M172.497 161.82C172.879 162.735 173.351 162.896 174.073 162.687C174.796 162.478 174.825 161.975 174.634 161.246L172.497 161.82Z" fill="#F9F9F9" stroke="#EDEDED" stroke-width="0.6" stroke-linecap="round" stroke-linejoin="round"/>
<path d="M171.882 161.24C172.228 160.642 174.27 160.277 174.557 160.343C174.843 160.408 175.1 161.24 174.724 161.455C173.935 161.807 173.094 162.028 172.234 162.107C172.148 162.081 172.068 162.037 172.002 161.977C171.935 161.916 171.883 161.842 171.849 161.758C171.815 161.675 171.8 161.585 171.806 161.495C171.812 161.405 171.838 161.318 171.882 161.24Z" fill="#F9F9F9" stroke="#EDEDED" stroke-width="0.6" stroke-linecap="round" stroke-linejoin="round"/>
<path d="M171.488 160.127C171.858 159.529 174.055 159.158 174.336 159.23C174.706 159.32 174.933 160.127 174.521 160.336C173.674 160.691 172.778 160.911 171.864 160.988C171.776 160.966 171.695 160.923 171.626 160.864C171.558 160.806 171.503 160.732 171.467 160.649C171.431 160.566 171.414 160.476 171.417 160.386C171.421 160.295 171.445 160.207 171.488 160.127Z" fill="#F9F9F9" stroke="#EDEDED" stroke-width="0.6" stroke-linecap="round" stroke-linejoin="round"/>
<path d="M164.483 153.95L166.299 154.07" stroke="#EDEDED" stroke-width="0.6" stroke-linecap="round" stroke-linejoin="round"/>
<path d="M168.054 148.412L168.848 150.164" stroke="#EDEDED" stroke-width="0.6" stroke-linecap="round" stroke-linejoin="round"/>
<path d="M174.258 148.872L173.619 150.164" stroke="#EDEDED" stroke-width="0.6" stroke-linecap="round" stroke-linejoin="round"/>
<path d="M143.71 175.282C141.184 179.809 143.184 185.233 146.236 186.71C149.287 188.188 150.547 178.81 150.911 176.442C151.275 174.074 151.281 170.491 151.544 168.697C151.807 166.903 150.123 165.486 149.018 168.225C147.914 170.964 147.388 172.638 147.388 172.638L143.71 175.282Z" fill="#FEBD9D"/>
<path d="M225.263 157.669L223.233 183.385L200.997 185.485C202.902 179.426 204.435 173.257 205.589 167.011C206.09 164.314 206.544 161.449 206.89 158.525L215.083 158.148L225.263 157.669Z" fill="#FEBD9D"/>
<path d="M216.904 160.57C215.996 164.098 211.022 166.598 205.624 166.999C206.126 164.302 206.58 161.437 206.926 158.513L215.119 158.136C216.402 158.704 217.155 159.493 216.904 160.57Z" fill="#F4A789"/>
<path d="M259.8 185.473V245.307H255.167C255.167 245.307 252.432 234.453 240.657 211.703C240.657 211.703 240.43 212.714 239.97 214.466C239.337 216.894 238.257 220.733 236.722 225.297C234.135 233.144 230.803 240.726 226.774 247.939C218.278 251.584 209.317 254.027 200.149 255.199C199.898 255.199 199.641 255.265 199.385 255.289C190.249 256.419 179.644 256.425 168.884 253.65C162.202 251.955 155.826 249.225 149.986 245.558C150.308 245.032 164.836 216.547 169.362 207.385C169.714 206.673 170.066 205.98 170.425 205.292C174.676 197.152 179.775 190.825 193.545 185.473C196.739 184.241 199.546 183.146 202.006 182.189C211.076 178.667 215.596 176.926 218.367 176.101C220.325 175.519 222.186 174.975 223.95 174.468C240.92 169.588 249.339 168.446 256.475 179.349C257.728 181.308 258.839 183.354 259.8 185.473V185.473Z" fill="#FFBE3C"/>
<path d="M256.475 179.349C250.599 178.99 243.207 180.61 239.027 189.826C231.306 206.835 216.068 213.958 204.896 203.055C196.118 194.497 181.161 195.609 170.425 205.292C174.676 197.152 179.775 190.825 193.545 185.473C196.739 184.241 199.546 183.146 202.006 182.189C211.076 178.667 215.596 176.926 218.367 176.101C220.325 175.519 222.186 174.975 223.95 174.468C240.92 169.588 249.339 168.446 256.475 179.349Z" fill="#FFCF70"/>
<path d="M259.8 229.136V245.283H255.167C255.167 245.283 252.432 234.429 240.657 211.679C241.332 209.054 241.851 206.524 242.269 204.281C249.876 207.618 250.527 214.681 249.697 218.67C248.927 222.384 252.838 231.486 259.8 229.136Z" fill="#F2B439"/>
<path d="M196.453 215.787C195.259 222.043 190.058 233.011 180.773 248.68C179.346 250.952 177.726 253.097 175.93 255.091C173.558 254.733 171.207 254.254 168.884 253.655L171.822 245.313C173.488 238.86 176.599 235.983 183.298 234.691C189.246 233.537 184.266 215.321 196.453 215.787Z" fill="#F2B439"/>
<path d="M171.816 231.881C172.037 246.264 155.646 260.766 146.66 242.969C142.904 235.535 133.523 200.842 134.18 196.094C134.777 191.865 147.125 182.452 152.195 184.294C152.195 184.294 154.315 189.88 157.228 197.009C160.937 206.081 165.928 217.671 169.439 223.424C170.973 225.979 171.794 228.9 171.816 231.881V231.881Z" fill="#FFBE3C"/>
<path d="M165.289 215.519C163.343 219.376 161.11 223.82 158.924 228.078C157.437 225.356 157.169 221.35 160.333 217.612C164.358 212.869 151.759 204.592 157.228 196.997C159.629 202.882 162.567 209.801 165.289 215.519Z" fill="#F2B439"/>
<path d="M201.272 145.361C198.286 156.156 195.629 162.065 214.014 163.273C214.014 163.273 225.681 150.116 224.093 131.014C224.093 131.014 213.697 122.641 204.693 138.95C204.693 138.95 201.391 140.218 201.015 140.667C200.639 141.115 200.889 143.902 201.272 145.361Z" fill="#FEBD9D"/>
<path d="M240.657 186.908C239.749 195.783 235.414 199.317 236.256 202.313C237.098 205.31 239.17 204.658 239.17 204.658C239.17 204.658 237.522 209.442 231.199 207.534C231.199 207.534 225.67 215.991 220.451 209.926C215.734 216.379 205.792 217.701 205.487 208.85C205.487 208.85 209.327 209.813 211.285 207.319C213.244 204.825 213.674 200.669 211.548 198.48C209.422 196.291 206.335 194.102 206.138 190.448C205.941 186.794 208.634 180.383 212.545 175.616C212.545 175.616 196.936 171.209 195.784 184.587L192.667 185.783C192.667 185.783 189.341 184.175 189.419 178.798C189.496 173.422 194.399 169.474 199.737 169.57C205.075 169.666 217.955 167.345 211.679 151.061C211.679 151.061 216.802 152.938 218.14 148.83C219.477 144.721 214.838 142.532 212.169 144.829C212.169 144.829 209.983 141.45 216.462 134.01C215.74 131.654 213.238 131.02 214.312 128.628C215.184 126.702 220.654 126.702 224.762 127.533C225.644 127.709 226.512 127.949 227.359 128.251C229.713 129.089 231.763 130.611 233.247 132.623C234.137 133.813 234.723 135.203 234.955 136.672C235.545 136.429 236.18 136.314 236.818 136.337C238.107 136.385 239.684 137.108 240.245 140.128C241.063 144.5 238.072 146.707 236.065 147.718C235.507 147.995 234.923 148.218 234.322 148.381C234.761 149.75 234.963 151.184 234.919 152.622V152.622C234.893 153.559 234.767 154.492 234.543 155.402C233.689 158.817 231.838 164.762 232.656 168.894C232.746 169.395 232.89 169.884 233.086 170.354C234.764 174.456 241.565 178.033 240.657 186.908Z" fill="#91650F"/>
<path d="M236.041 147.747C235.483 148.025 234.899 148.247 234.298 148.411C234.298 148.411 231.497 149.093 230.387 144.189C229.497 140.26 231.7 137.61 234.955 136.701C235.545 136.458 236.18 136.344 236.818 136.366C230.93 141.504 233.79 145.678 236.041 147.747Z" fill="#774F00"/>
<path d="M240.657 186.908C239.749 195.783 235.414 199.317 236.256 202.313C237.098 205.31 239.17 204.658 239.17 204.658C239.17 204.658 237.522 209.442 231.199 207.534C231.199 207.534 225.67 215.991 220.451 209.926C215.734 216.379 205.792 217.701 205.487 208.85C205.487 208.85 209.327 209.813 211.285 207.319C213.244 204.825 213.674 200.669 211.548 198.48C209.422 196.291 206.335 194.102 206.138 190.448C205.941 186.794 208.634 180.383 212.545 175.616C212.545 175.616 196.936 171.209 195.784 184.587L192.667 185.783C192.667 185.783 189.341 184.175 189.419 178.798C189.496 173.422 194.399 169.474 199.737 169.57C205.075 169.666 217.955 167.345 211.679 151.061C211.679 151.061 216.802 152.938 218.14 148.83C219.477 144.721 214.838 142.532 212.169 144.829C212.169 144.829 209.983 141.45 216.462 134.01C215.74 131.654 213.238 131.02 214.312 128.628C215.184 126.702 220.654 126.702 224.762 127.533C222.015 129.22 220.176 131.869 221.705 136.014C225.461 146.181 224.404 151.073 221.149 155.414C217.895 159.756 214.217 168.571 217.346 175.616C220.475 182.661 215.877 179.42 217.256 193.361C218.636 207.301 236.244 198.809 235.695 187.452C235.199 177.189 228.983 173.739 232.608 168.912C232.698 169.413 232.842 169.902 233.038 170.372C234.764 174.456 241.565 178.033 240.657 186.908Z" fill="#91650F"/>
<path d="M257.866 167.321V241.599H130.764" stroke="#EDEDED" stroke-width="1.2" stroke-linecap="round" stroke-linejoin="round"/>
</svg>
