<svg width="24" height="24" viewBox="0 0 24 24" fill="none" xmlns="http://www.w3.org/2000/svg">
<path fill-rule="evenodd" clip-rule="evenodd" d="M12.0051 22C13.3707 22 14.6574 21.7375 15.8652 21.2126C17.0729 20.6876 18.1366 19.9653 19.0561 19.0458C19.9756 18.1263 20.6962 17.0643 21.2177 15.86C21.7392 14.6557 22 13.3673 22 11.9949C22 10.6293 21.7375 9.3426 21.2126 8.13484C20.6876 6.92709 19.9653 5.86173 19.0458 4.93875C18.1263 4.01578 17.0626 3.29525 15.8549 2.77715C14.6471 2.25905 13.3604 2 11.9949 2C10.6293 2 9.34431 2.25905 8.13999 2.77715C6.93567 3.29525 5.87202 4.01578 4.94905 4.93875C4.02608 5.86173 3.30383 6.92709 2.7823 8.13484C2.26077 9.3426 2 10.6293 2 11.9949C2 13.3673 2.26248 14.6557 2.78744 15.86C3.3124 17.0643 4.03465 18.1263 4.95419 19.0458C5.87373 19.9653 6.93567 20.6876 8.13999 21.2126C9.34431 21.7375 10.6327 22 12.0051 22ZM12.0051 20.1678C10.8729 20.1678 9.81266 19.9568 8.8245 19.5347C7.83634 19.1127 6.96826 18.5277 6.22028 17.7797C5.47229 17.0317 4.889 16.1637 4.47041 15.1755C4.05181 14.1873 3.84251 13.1271 3.84251 11.9949C3.84251 10.8626 4.05181 9.80237 4.47041 8.8142C4.889 7.82604 5.47229 6.95797 6.22028 6.20998C6.96826 5.462 7.83462 4.87871 8.81935 4.46011C9.80408 4.04152 10.8626 3.83222 11.9949 3.83222C13.1271 3.83222 14.1873 4.04152 15.1755 4.46011C16.1637 4.87871 17.0317 5.462 17.7797 6.20998C18.5277 6.95797 19.1127 7.82604 19.5347 8.8142C19.9568 9.80237 20.1678 10.8626 20.1678 11.9949C20.1746 13.1271 19.9671 14.1873 19.545 15.1755C19.123 16.1637 18.5397 17.0317 17.7952 17.7797C17.0506 18.5277 16.1825 19.1127 15.1909 19.5347C14.1993 19.9568 13.1374 20.1678 12.0051 20.1678ZM7.7334 12.6073C7.56871 12.446 7.48636 12.2419 7.48636 11.9949C7.48636 11.7341 7.56871 11.5214 7.7334 11.3567C7.8981 11.192 8.10739 11.1096 8.3613 11.1096H11.1199V8.351C11.1199 8.09024 11.2005 7.87922 11.3618 7.71796C11.5231 7.5567 11.7272 7.47607 11.9743 7.47607C12.235 7.47607 12.4478 7.5567 12.6125 7.71796C12.7771 7.87922 12.8595 8.09024 12.8595 8.351V11.1096H15.6284C15.8823 11.1096 16.0916 11.192 16.2563 11.3567C16.421 11.5214 16.5033 11.7341 16.5033 11.9949C16.5033 12.2419 16.421 12.446 16.2563 12.6073C16.0916 12.7686 15.8823 12.8492 15.6284 12.8492H12.8595V15.6181C12.8595 15.8789 12.7771 16.0882 12.6125 16.246C12.4478 16.4038 12.235 16.4828 11.9743 16.4828C11.7272 16.4828 11.5231 16.4021 11.3618 16.2409C11.2005 16.0796 11.1199 15.872 11.1199 15.6181V12.8492H8.3613C8.10739 12.8492 7.8981 12.7686 7.7334 12.6073Z" fill="#5B13F4"/>
</svg>
