<svg width="14" height="9" viewBox="0 0 14 9" fill="none" xmlns="http://www.w3.org/2000/svg">
<path d="M12.2929 8.70711C12.6834 9.09763 13.3166 9.09763 13.7071 8.70711C14.0976 8.31658 14.0976 7.68342 13.7071 7.29289L12.2929 8.70711ZM7 2L7.70711 1.29289L7 0.585786L6.29289 1.29289L7 2ZM0.292893 7.29289C-0.0976317 7.68342 -0.0976317 8.31658 0.292893 8.70711C0.683417 9.09763 1.31658 9.09763 1.70711 8.70711L0.292893 7.29289ZM13.7071 7.29289L7.70711 1.29289L6.29289 2.70711L12.2929 8.70711L13.7071 7.29289ZM6.29289 1.29289L0.292893 7.29289L1.70711 8.70711L7.70711 2.70711L6.29289 1.29289Z" fill="#5B13F4"/>
</svg>
