<svg width="80" height="80" viewBox="0 0 80 80" fill="none" xmlns="http://www.w3.org/2000/svg">
<path d="M10 24.6667C10 20.8955 10 19.0099 11.1716 17.8383C12.3431 16.6667 14.2288 16.6667 18 16.6667H31.6765C32.494 16.6667 32.9027 16.6667 33.2703 16.819C33.6378 16.9712 33.9268 17.2603 34.5049 17.8383L43.3333 26.6667V36.6667H10V26.6667V24.6667Z" fill="#D1BCFF"/>
<path d="M10 33.0666C10 30.8264 10 29.7063 10.436 28.8507C10.8195 28.098 11.4314 27.4861 12.184 27.1026C13.0397 26.6666 14.1598 26.6666 16.4 26.6666H63.6C65.8402 26.6666 66.9603 26.6666 67.816 27.1026C68.5686 27.4861 69.1805 28.098 69.564 28.8507C70 29.7063 70 30.8264 70 33.0666V56.9333C70 59.1735 70 60.2936 69.564 61.1493C69.1805 61.9019 68.5686 62.5138 67.816 62.8973C66.9603 63.3333 65.8402 63.3333 63.6 63.3333H16.4C14.1598 63.3333 13.0397 63.3333 12.184 62.8973C11.4314 62.5138 10.8195 61.9019 10.436 61.1493C10 60.2936 10 59.1735 10 56.9333V33.0666Z" fill="#5B13F4"/>
<path d="M43.1109 41.9474V41.1111C43.1109 39.3929 41.718 38 39.9998 38V38C38.2816 38 36.8887 39.3929 36.8887 41.1111V41.9474" stroke="white" stroke-width="2" stroke-linecap="round"/>
<path fill-rule="evenodd" clip-rule="evenodd" d="M33.432 42.6068C33 43.3221 33 44.2924 33 46.2329C33 48.8203 33 50.114 33.576 51.0678C33.9114 51.6231 34.3768 52.0886 34.9322 52.424C35.8859 52.9999 37.1796 52.9999 39.767 52.9999H40.233C42.8204 52.9999 44.1141 52.9999 45.0678 52.424C45.6232 52.0886 46.0886 51.6231 46.424 51.0678C47 50.114 47 48.8203 47 46.2329C47 44.2924 47 43.3221 46.568 42.6068C46.3165 42.1903 45.9674 41.8412 45.5509 41.5897C44.8356 41.1577 43.8653 41.1577 41.9248 41.1577H38.0752C36.1347 41.1577 35.1644 41.1577 34.4491 41.5897C34.0326 41.8412 33.6835 42.1903 33.432 42.6068ZM40.0003 47.0529C40.1564 47.0529 40.3337 46.9162 40.3337 46.6844C40.3337 46.4527 40.1564 46.316 40.0003 46.316C39.8443 46.316 39.667 46.4527 39.667 46.6844C39.667 46.9162 39.8443 47.0529 40.0003 47.0529ZM42.3337 46.6844C42.3337 47.6294 41.7885 48.4451 41 48.8251V50.6317H39V48.8248C38.2119 48.4446 37.667 47.6291 37.667 46.6844C37.667 45.3764 38.7117 44.316 40.0003 44.316C41.289 44.316 42.3337 45.3764 42.3337 46.6844Z" fill="white"/>
</svg>
