<svg width="80" height="80" viewBox="0 0 80 80" fill="none" xmlns="http://www.w3.org/2000/svg">
<path d="M10 24.6667C10 20.8955 10 19.0098 11.1716 17.8383C12.3431 16.6667 14.2288 16.6667 18 16.6667H31.6765C32.494 16.6667 32.9027 16.6667 33.2703 16.8189C33.6378 16.9712 33.9268 17.2602 34.5049 17.8383L43.3333 26.6667V36.6667H10V26.6667V24.6667Z" fill="#D1BCFF"/>
<path d="M10 33.0667C10 30.8265 10 29.7064 10.436 28.8507C10.8195 28.0981 11.4314 27.4861 12.184 27.1026C13.0397 26.6667 14.1598 26.6667 16.4 26.6667H63.6C65.8402 26.6667 66.9603 26.6667 67.816 27.1026C68.5686 27.4861 69.1805 28.0981 69.564 28.8507C70 29.7064 70 30.8265 70 33.0667V56.9333C70 59.1735 70 60.2937 69.564 61.1493C69.1805 61.9019 68.5686 62.5139 67.816 62.8974C66.9603 63.3333 65.8402 63.3333 63.6 63.3333H16.4C14.1598 63.3333 13.0397 63.3333 12.184 62.8974C11.4314 62.5139 10.8195 61.9019 10.436 61.1493C10 60.2937 10 59.1735 10 56.9333V33.0667Z" fill="#5B13F4"/>
</svg>
