<svg width="24" height="24" viewBox="0 0 24 24" fill="none" xmlns="http://www.w3.org/2000/svg">
<path d="M12 14.5715L11.2929 15.2786L12 15.9857L12.7071 15.2786L12 14.5715ZM13 3.0001C13 2.44782 12.5523 2.0001 12 2.0001C11.4477 2.0001 11 2.44782 11 3.0001L13 3.0001ZM4.8643 8.85007L11.2929 15.2786L12.7071 13.8644L6.27852 7.43585L4.8643 8.85007ZM12.7071 15.2786L19.1357 8.85007L17.7214 7.43586L11.2929 13.8644L12.7071 15.2786ZM13 14.5715L13 3.0001L11 3.0001L11 14.5715L13 14.5715Z" fill="#5B13F4"/>
<path d="M3 17.1428L3 18.4285C3 19.8487 4.15127 21 5.57143 21L18.4286 21C19.8487 21 21 19.8487 21 18.4285V17.1428" stroke="#5B13F4" stroke-width="2"/>
</svg>
