<svg width="24" height="24" viewBox="0 0 24 24" fill="none" xmlns="http://www.w3.org/2000/svg">
<path d="M19 5V4.25H19.75V5H19ZM11.2952 13.7655C11.0023 14.0584 10.5274 14.0584 10.2345 13.7655C9.94161 13.4726 9.94161 12.9977 10.2345 12.7048L11.2952 13.7655ZM18.25 11.5881V5H19.75V11.5881H18.25ZM19 5.75H12.4119V4.25H19V5.75ZM19.5303 5.53033L11.2952 13.7655L10.2345 12.7048L18.4697 4.46967L19.5303 5.53033Z" fill="#6F6F6F"/>
<path d="M18.1765 14.8829V14.8829C18.1765 15.9226 18.1765 16.4425 18.049 16.8658C17.7588 17.8291 17.0051 18.5828 16.0418 18.873C15.6185 19.0005 15.0986 19.0005 14.0589 19.0005H11.0002C8.17179 19.0005 6.75757 19.0005 5.87889 18.1218C5.00021 17.2431 5.00021 15.8289 5.00021 13.0005V9.9418C5.00021 8.90206 5.00021 8.38219 5.12771 7.95894C5.41789 6.99562 6.17162 6.24189 7.13493 5.95171C7.55818 5.82422 8.07805 5.82422 9.1178 5.82422V5.82422" stroke="#6F6F6F" stroke-width="1.5" stroke-linecap="round"/>
</svg>
