<svg width="24" height="24" viewBox="0 0 24 24" fill="none" xmlns="http://www.w3.org/2000/svg">
<path d="M12.0001 6C13.1046 6 14.0001 5.10457 14.0001 4C14.0001 2.89543 13.1046 2 12.0001 2C10.8955 2 10.0001 2.89543 10.0001 4C10.0001 5.10457 10.8955 6 12.0001 6Z" fill="#888888"/>
<path d="M12.0001 14.0002C13.1046 14.0002 14.0001 13.1048 14.0001 12.0002C14.0001 10.8957 13.1046 10.0002 12.0001 10.0002C10.8955 10.0002 10.0001 10.8957 10.0001 12.0002C10.0001 13.1048 10.8955 14.0002 12.0001 14.0002Z" fill="#888888"/>
<path d="M12.0001 21.9998C13.1046 21.9998 14.0001 21.1043 14.0001 19.9998C14.0001 18.8952 13.1046 17.9998 12.0001 17.9998C10.8955 17.9998 10.0001 18.8952 10.0001 19.9998C10.0001 21.1043 10.8955 21.9998 12.0001 21.9998Z" fill="#888888"/>
</svg>
