<svg width="40" height="40" viewBox="0 0 40 40" fill="none" xmlns="http://www.w3.org/2000/svg">
<path d="M31.3689 10.4514L20.7878 5.91667C20.2847 5.70106 19.7153 5.70106 19.2122 5.91667L8.63111 10.4514C7.81187 10.8025 7.32384 11.6533 7.43439 12.5378L8.71405 22.775C8.9342 24.5362 9.81517 26.148 11.1787 27.2843L18.7196 33.5684C19.4613 34.1865 20.5387 34.1865 21.2804 33.5684L28.8213 27.2843C30.1848 26.148 31.0658 24.5362 31.2859 22.775L32.5656 12.5378C32.6762 11.6533 32.1881 10.8025 31.3689 10.4514Z" fill="#E2D4FF" stroke="#5B13F4" stroke-width="2" stroke-linecap="round"/>
<path d="M15 20L19.5687 24.5687C19.7919 24.7918 20.1633 24.7551 20.3383 24.4925L26.6667 15" stroke="#5B13F4" stroke-width="2" stroke-linecap="round"/>
</svg>
