<svg width="24" height="24" viewBox="0 0 24 24" fill="none" xmlns="http://www.w3.org/2000/svg">
<path fill-rule="evenodd" clip-rule="evenodd" d="M12 21C16.9706 21 21 16.9706 21 12C21 7.02944 16.9706 3 12 3C7.02944 3 3 7.02944 3 12C3 16.9706 7.02944 21 12 21ZM9.73666 7.86847L16.2111 11.1057C16.9482 11.4742 16.9482 12.526 16.2111 12.8946L9.73666 16.1318C8.93878 16.5308 8 15.9506 8 15.0585V8.94178C8 8.04972 8.93878 7.46953 9.73666 7.86847Z" fill="#E2D5FF"/>
<path d="M9.73666 16.1317L10.005 16.6683L9.73666 16.1317ZM10.005 7.33167L16.4795 10.5689L15.9428 11.6422L9.46833 8.40498L10.005 7.33167ZM16.4795 13.4311L10.005 16.6683L9.46833 15.595L15.9428 12.3578L16.4795 13.4311ZM8.6 8.94164V15.0584H7.4V8.94164H8.6ZM10.005 16.6683C8.80817 17.2667 7.4 16.3964 7.4 15.0584H8.6C8.6 15.5044 9.06939 15.7945 9.46833 15.595L10.005 16.6683ZM16.4795 10.5689C17.6587 11.1586 17.6588 12.8414 16.4795 13.4311L15.9428 12.3578C16.2376 12.2104 16.2376 11.7896 15.9428 11.6422L16.4795 10.5689ZM9.46833 8.40498C9.06939 8.20551 8.6 8.49561 8.6 8.94164H7.4C7.4 7.60355 8.80816 6.73326 10.005 7.33167L9.46833 8.40498Z" fill="#5B13F4"/>
<circle cx="12" cy="12" r="9" stroke="#5B13F4" stroke-width="1.2"/>
</svg>
