<?xml version="1.0" encoding="utf-8"?>
<!-- Generator: Adobe Illustrator 16.0.0, SVG Export Plug-In . SVG Version: 6.00 Build 0)  -->
<!DOCTYPE svg PUBLIC "-//W3C//DTD SVG 1.1//EN" "http://www.w3.org/Graphics/SVG/1.1/DTD/svg11.dtd">
<svg version="1.1" id="Layer_1" xmlns="http://www.w3.org/2000/svg" xmlns:xlink="http://www.w3.org/1999/xlink" x="0px" y="0px"
	  viewBox="0 0 400 400" enable-background="new 0 0 400 400" xml:space="preserve">
<polygon fill="#FFFFFF" points="189.937,248.311 113.314,159.139 137.168,138.64 190.723,200.967 349.348,28.299 372.507,49.578 "/>
<path fill="#FFFFFF" d="M198.355,372.849c-94.477,0-171.338-76.861-171.338-171.338c0-94.471,76.861-171.329,171.338-171.329v30.224
	c-77.811,0-141.114,63.301-141.114,141.105c0,77.804,63.304,141.114,141.114,141.114c77.805,0,141.108-63.311,141.108-141.114
	c0-17.407-3.127-34.383-9.288-50.459l28.221-10.818c7.494,19.544,11.291,40.16,11.291,61.277
	C369.688,295.987,292.826,372.849,198.355,372.849z"/>
</svg>
