<?xml version="1.0" encoding="utf-8"?>
<!-- Generator: Adobe Illustrator 16.0.0, SVG Export Plug-In . SVG Version: 6.00 Build 0)  -->
<!DOCTYPE svg PUBLIC "-//W3C//DTD SVG 1.1//EN" "http://www.w3.org/Graphics/SVG/1.1/DTD/svg11.dtd">
<svg version="1.1" id="Layer_1" xmlns="http://www.w3.org/2000/svg" xmlns:xlink="http://www.w3.org/1999/xlink" x="0px" y="0px"
	  viewBox="0 0 85.04 113.39" enable-background="new 0 0 85.04 113.39" xml:space="preserve">
<path fill="#FFFFFF" d="M16.637,47.782h-4.761V28.598c0-4.474,1.1-8.928,3.183-12.88l4.212,2.219
	c-1.747,3.318-2.634,6.905-2.634,10.661V47.782z"/>
<path fill="#FFFFFF" d="M67.483,47.879h-4.762V28.595c0-12.704-10.335-23.041-23.042-23.041c-8.566,0-16.387,4.744-20.409,12.379
	l-4.212-2.219C19.907,6.51,29.341,0.794,39.68,0.794c15.331,0,27.803,12.472,27.803,27.801V47.879z"/>
<path fill="#FFFFFF" d="M39.649,112.84c-21.432,0-38.867-17.438-38.867-38.869c0-21.429,17.435-38.864,38.867-38.864
	c9.261,0,18.233,3.311,25.261,9.325l-3.098,3.619c-6.166-5.277-14.037-8.183-22.164-8.183c-18.806,0-34.104,15.3-34.104,34.104
	c0,18.807,15.298,34.106,34.104,34.106c18.805,0,34.105-15.3,34.105-34.106c0-2.166-0.205-4.33-0.605-6.441l4.678-0.892
	c0.458,2.402,0.689,4.871,0.689,7.333C78.516,95.402,61.078,112.84,39.649,112.84z"/>
<polygon fill="#FFFFFF" points="37.507,87.562 20.633,67.928 24.244,64.825 37.992,80.823 80.732,43.558 83.862,47.148 "/>
</svg>
