<?xml version="1.0" encoding="utf-8"?>
<!-- Generator: Adobe Illustrator 16.0.0, SVG Export Plug-In . SVG Version: 6.00 Build 0)  -->
<!DOCTYPE svg PUBLIC "-//W3C//DTD SVG 1.1//EN" "http://www.w3.org/Graphics/SVG/1.1/DTD/svg11.dtd">
<svg version="1.1" id="Layer_1" xmlns="http://www.w3.org/2000/svg" xmlns:xlink="http://www.w3.org/1999/xlink" x="0px" y="0px"
	 width="134px" height="25px" viewBox="0 0 134 25" enable-background="new 0 0 134 25" xml:space="preserve">
<title>4C4E213C-CE92-457A-B38D-4360DD070923</title>
<desc>Created with sketchtool.</desc>
<g id="Datafund">
	<g id="datafund" transform="translate(-50.000000, -50.000000)">
		<g id="hero">
			<g id="logotype" transform="translate(50.000000, 50.000000)">
				<path id="Fill-1" fill="#FFFFFF" d="M42.337,17.784h-4.006V7.764h4.65c0.695,0,1.423,0.023,2.042,0.187
					c1.997,0.529,3.25,2.32,3.271,4.671c0,0.931-0.205,2.673-1.581,3.895C45.39,17.686,43.826,17.784,42.337,17.784 M47.604,7.125
					c-1.685-1.092-3.247-1.092-4.624-1.092h-6.722v13.521h5.417c2.015,0,4.522,0,6.428-1.608c1.429-1.195,2.282-3.156,2.282-5.247
					C50.385,10.281,49.397,8.302,47.604,7.125"/>
				<path id="Fill-3" fill="#FFFFFF" d="M57.948,15.183h3.302c0,0.011-0.001,0.023-0.001,0.035
					c-0.014,0.306-0.037,0.815-0.324,1.359c-0.869,1.602-3.019,1.774-3.903,1.774c-1.787,0-2.587-0.871-2.587-1.736
					C54.433,15.183,56.14,15.183,57.948,15.183 M64.041,18.2c-0.771,0-0.959-0.263-0.959-1.339v-3.689c0-0.695,0-1.352-0.47-1.979
					c-0.368-0.495-0.971-0.841-1.805-1.032c-1.112-0.279-2.496-0.287-2.649-0.287c-3.232,0-4.181,0.788-4.647,1.474
					c-0.229,0.344-0.404,0.838-0.428,0.934c0,0-0.013,0.054-0.025,0.099c-0.01,0.04-0.029,0.135-0.032,0.177h2.005
					c0.007-0.019,0.015-0.037,0.023-0.056c0.395-0.959,1.958-1.161,3.199-1.161c2.985,0,2.985,1.046,2.985,2.152v0.146h-2.55
					c-2.142,0-3.616,0.03-4.535,0.442c-0.393,0.166-1.677,0.842-1.677,2.553c0,0.765,0.319,3.26,4.414,3.26
					c2.567,0,3.91-0.961,4.396-1.656c0.088,0.611,0.352,1.41,1.831,1.41c0.4,0,0.806-0.033,1.198-0.064
					c0.132-0.01,0.265-0.021,0.397-0.03l0.075-0.006v-1.415l-0.09,0.012C64.689,18.145,64.205,18.2,64.041,18.2"/>
				<path id="Fill-5" fill="#FFFFFF" d="M68.972,6.96h-1.94v3.198h-1.609v1.597h1.57v5.164c0,1.183,0.084,1.687,0.556,2.158
					c0.559,0.54,1.406,0.608,2.08,0.608c0.53,0,1.104-0.041,1.809-0.133l0.07-0.008v-1.751l-0.09,0.009
					c-0.039,0.005-0.099,0.014-0.174,0.025c-0.258,0.04-0.689,0.107-1.123,0.107c-1.039,0-1.206-0.363-1.206-1.527v-4.653h2.63
					v-1.597h-2.573V6.96z"/>
				<path id="Fill-7" fill="#FFFFFF" d="M90.72,5.919c-1.896,0-2.571,0.969-2.802,1.781c-0.141,0.498-0.155,1.133-0.155,1.384v1.073
					h-1.514v1.598h1.495v7.798h1.939v-7.78h2.536v-1.616h-2.536V8.895c0-1.103,0.726-1.244,1.357-1.244
					c0.447,0,0.963,0.123,1.092,0.166l0.104,0.035l0.021-1.788l-0.069-0.011C91.447,5.935,91.045,5.919,90.72,5.919"/>
				<path id="Fill-9" fill="#FFFFFF" d="M103.246,15.121c0,0.537,0,0.963-0.272,1.435c-0.347,0.583-1.476,1.569-3.507,1.569
					c-0.57,0-2.473-0.104-3.047-1.445c-0.176-0.428-0.24-0.912-0.24-1.786v-4.735h-1.941v4.925c0,0.843,0,1.798,0.388,2.589
					c1.005,2.098,4.067,2.203,4.671,2.203c0.557,0,1.979-0.077,3.146-0.787c0.392-0.241,0.667-0.461,0.842-0.61v1.076h1.921v-9.396
					h-1.959V15.121z"/>
				<path id="Fill-11" fill="#FFFFFF" d="M114.598,9.893c-1.03,0-1.957,0.168-2.756,0.499c-0.649,0.266-0.992,0.543-1.289,0.792
					v-1.025h-1.959v9.396h1.959v-4.472c0-0.545,0.018-1.077,0.223-1.598c0.684-1.713,2.677-1.898,3.501-1.898
					c2.214,0,2.909,1.064,3.105,1.522c0.158,0.353,0.239,0.679,0.239,1.481v4.964h1.939v-5.077c0-0.768,0-1.492-0.31-2.228
					C118.613,10.796,116.83,9.893,114.598,9.893"/>
				<path id="Fill-13" fill="#FFFFFF" d="M131.075,12.513c0.919,0.825,0.919,1.859,0.919,2.249c0,3-2.748,3.325-3.931,3.325
					c-2.284,0-3.761-1.239-3.761-3.155c0-1.029,0.365-1.895,1.057-2.504c0.666-0.587,1.582-0.897,2.647-0.897
					C129.638,11.53,130.576,12.065,131.075,12.513z M131.9,6.033v5.122c-1.446-1.062-3.122-1.224-4.007-1.224
					c-2.238,0-3.614,0.993-4.104,1.421c-1.324,1.177-1.521,2.653-1.521,3.428c0,2.293,1.487,3.54,1.944,3.868
					c0.662,0.49,1.83,1.076,3.623,1.076c1.679,0,3.045-0.438,4.064-1.303v1.132h1.959V6.033H131.9z"/>
				<polygon id="Fill-15" fill="#FFFFFF" points="10.998,20.326 13.016,20.326 13.016,4.722 10.998,4.722 				"/>
				<path id="Fill-17" fill="#FFFFFF" d="M11.137,0H7.872H0v25h7.427h3.71c7.991,0,13.832-4.579,13.832-12.477
					C24.969,4.346,19.128,0,11.137,0 M11.137,2.018c7.398,0,11.814,3.927,11.814,10.505c0,6.452-4.527,10.459-11.814,10.459h-3.71
					h-5.41V2.018h5.854H11.137"/>
				<path id="Fill-18" fill="#FFFFFF" d="M12.007,6.749c-3.364,0-6.09,2.531-6.09,5.652s2.727,5.653,6.09,5.653
					c3.363,0,6.09-2.531,6.09-5.653S15.37,6.749,12.007,6.749 M12.007,8.766c2.245,0,4.072,1.631,4.072,3.635
					c0,2.003-1.827,3.635-4.072,3.635c-2.246,0-4.073-1.632-4.073-3.635C7.934,10.397,9.761,8.766,12.007,8.766"/>
				<path id="Fill-19" fill="#FFFFFF" d="M78.713,15.183h3.303c-0.002,0.011-0.002,0.023-0.002,0.035
					c-0.014,0.306-0.037,0.815-0.324,1.359c-0.869,1.602-3.02,1.774-3.903,1.774c-1.788,0-2.587-0.871-2.587-1.736
					C75.199,15.183,76.906,15.183,78.713,15.183 M84.807,18.2c-0.771,0-0.961-0.263-0.961-1.339v-3.689c0-0.695,0-1.352-0.47-1.979
					c-0.368-0.495-0.971-0.841-1.806-1.032c-1.111-0.279-2.495-0.287-2.648-0.287c-3.232,0-4.182,0.788-4.647,1.474
					c-0.229,0.344-0.403,0.838-0.427,0.934c0,0-0.014,0.054-0.025,0.099c-0.011,0.04-0.03,0.135-0.033,0.177h2.005
					c0.008-0.019,0.015-0.037,0.022-0.056c0.396-0.959,1.959-1.161,3.199-1.161c2.985,0,2.985,1.046,2.985,2.152v0.146h-2.55
					c-2.143,0-3.616,0.03-4.535,0.442c-0.394,0.166-1.677,0.842-1.677,2.553c0,0.765,0.318,3.26,4.414,3.26
					c2.567,0,3.909-0.961,4.396-1.656c0.088,0.611,0.352,1.41,1.83,1.41c0.4,0,0.807-0.033,1.199-0.064
					c0.131-0.01,0.264-0.021,0.396-0.03l0.075-0.006v-1.415l-0.091,0.012C85.455,18.145,84.971,18.2,84.807,18.2"/>
			</g>
		</g>
	</g>
</g>
</svg>
