<?xml version="1.0" encoding="utf-8"?>
<!-- Generator: Adobe Illustrator 16.0.0, SVG Export Plug-In . SVG Version: 6.00 Build 0)  -->
<!DOCTYPE svg PUBLIC "-//W3C//DTD SVG 1.1//EN" "http://www.w3.org/Graphics/SVG/1.1/DTD/svg11.dtd">
<svg version="1.1" id="Layer_1" xmlns="http://www.w3.org/2000/svg" xmlns:xlink="http://www.w3.org/1999/xlink" x="0px" y="0px"
	 width="150px" height="50px" viewBox="0 0 150 50" enable-background="new 0 0 150 50" xml:space="preserve">
<g>
	<path fill="#FFFFFF" d="M15.117,24.889c0,1.955,1.429,3.636,3.461,4.158v-8.314C16.546,21.253,15.117,22.935,15.117,24.889"/>
	<path fill="#FFFFFF" d="M21.177,20.733v8.312c2.033-0.52,3.461-2.201,3.461-4.155C24.638,22.936,23.21,21.253,21.177,20.733"/>
	<path fill="#FFFFFF" d="M18.673,12.387H7.796v25.226h10.877c8.659,0,14.254-4.941,14.254-12.589
		C32.927,17.23,27.466,12.387,18.673,12.387 M21.177,31.699v2.217h-2.599v-2.217c-3.48-0.586-6.061-3.453-6.061-6.809
		c0-3.357,2.58-6.226,6.061-6.811v-2.063h2.599v2.063c3.48,0.585,6.061,3.453,6.061,6.811
		C27.237,28.246,24.657,31.113,21.177,31.699"/>
	<path fill="#FFFFFF" d="M55.596,19.442c-1.693-1.097-3.261-1.097-4.644-1.097h-6.75v13.577h5.439c2.022,0,4.541,0,6.456-1.615
		c1.434-1.201,2.29-3.17,2.29-5.267C58.388,22.612,57.396,20.625,55.596,19.442 M50.307,30.145h-4.023v-10.06h4.669
		c0.698,0,1.43,0.022,2.05,0.188c2.007,0.531,3.265,2.329,3.284,4.691c0,0.933-0.206,2.683-1.587,3.91
		C53.371,30.047,51.802,30.145,50.307,30.145"/>
	<path fill="#FFFFFF" d="M72.1,30.562c-0.775,0-0.965-0.264-0.965-1.344v-3.705c0-0.698,0-1.356-0.472-1.987
		c-0.37-0.496-0.974-0.845-1.812-1.036c-1.118-0.28-2.508-0.288-2.661-0.288c-3.245,0-4.198,0.791-4.666,1.48
		c-0.23,0.346-0.405,0.841-0.43,0.938c0,0-0.014,0.055-0.025,0.1c-0.01,0.039-0.029,0.136-0.033,0.177h2.014
		c0.008-0.019,0.016-0.037,0.023-0.055c0.396-0.964,1.966-1.166,3.212-1.166c2.997,0,2.997,1.049,2.997,2.162v0.146h-2.56
		c-2.152,0-3.632,0.029-4.555,0.443c-0.395,0.166-1.684,0.846-1.684,2.564c0,0.768,0.32,3.271,4.433,3.271
		c2.578,0,3.925-0.965,4.413-1.662c0.089,0.613,0.354,1.416,1.838,1.416c0.402,0,0.81-0.033,1.203-0.064
		c0.133-0.012,0.266-0.021,0.399-0.031l0.074-0.004v-1.422l-0.09,0.01C72.75,30.508,72.265,30.562,72.1,30.562 M65.981,27.533h3.314
		c0,0.012-0.001,0.023-0.002,0.035c-0.013,0.307-0.037,0.818-0.325,1.365c-0.871,1.607-3.03,1.781-3.919,1.781
		c-1.795,0-2.598-0.875-2.598-1.742C62.452,27.533,64.166,27.533,65.981,27.533"/>
	<path fill="#FFFFFF" d="M77.05,19.277h-1.948v3.211h-1.614v1.604h1.577v5.186c0,1.188,0.084,1.693,0.557,2.166
		c0.562,0.543,1.412,0.613,2.089,0.613c0.532,0,1.109-0.043,1.816-0.135l0.069-0.01v-1.758l-0.09,0.01
		c-0.039,0.004-0.099,0.014-0.175,0.025c-0.258,0.041-0.691,0.107-1.127,0.107c-1.044,0-1.211-0.363-1.211-1.533v-4.672h2.641
		v-1.604H77.05V19.277z"/>
	<path fill="#FFFFFF" d="M98.888,18.232c-1.904,0-2.581,0.972-2.814,1.788c-0.14,0.5-0.154,1.139-0.154,1.39v1.078h-1.521v1.604
		h1.501v7.831h1.948v-7.811h2.546v-1.623h-2.546v-1.269c0-1.106,0.728-1.249,1.362-1.249c0.449,0,0.969,0.124,1.096,0.167
		l0.105,0.035l0.021-1.796l-0.068-0.011C99.618,18.248,99.214,18.232,98.888,18.232"/>
	<path fill="#FFFFFF" d="M111.466,27.471c0,0.541,0,0.967-0.273,1.441c-0.349,0.586-1.48,1.574-3.521,1.574
		c-0.572,0-2.482-0.104-3.061-1.449c-0.176-0.43-0.24-0.916-0.24-1.795v-4.754h-1.948v4.946c0,0.846,0,1.805,0.388,2.6
		c1.01,2.105,4.084,2.213,4.69,2.213c0.559,0,1.987-0.078,3.159-0.791c0.393-0.242,0.669-0.463,0.845-0.613v1.08h1.929v-9.434
		h-1.967V27.471z"/>
	<path fill="#FFFFFF" d="M122.864,22.222c-1.035,0-1.965,0.168-2.768,0.5c-0.652,0.268-0.997,0.546-1.294,0.795v-1.029h-1.967v9.434
		h1.967v-4.488c0-0.547,0.017-1.082,0.222-1.605c0.689-1.719,2.688-1.906,3.516-1.906c2.224,0,2.922,1.069,3.119,1.529
		c0.16,0.355,0.24,0.681,0.24,1.488v4.982h1.947v-5.096c0-0.771,0-1.5-0.311-2.238C126.896,23.128,125.105,22.222,122.864,22.222"/>
	<path fill="#FFFFFF" d="M140.237,18.345v5.144c-1.452-1.066-3.135-1.229-4.023-1.229c-2.246,0-3.63,0.998-4.119,1.427
		c-1.33,1.183-1.528,2.664-1.528,3.443c0,2.303,1.493,3.555,1.95,3.885c0.666,0.492,1.84,1.08,3.641,1.08
		c1.686,0,3.056-0.439,4.08-1.309v1.137h1.967V18.345H140.237z M139.409,24.852c0.923,0.83,0.923,1.867,0.923,2.259
		c0,3.012-2.76,3.338-3.946,3.338c-2.295,0-3.776-1.244-3.776-3.168c0-1.033,0.366-1.903,1.06-2.514c0.669-0.59,1.59-0.9,2.659-0.9
		C137.966,23.867,138.907,24.403,139.409,24.852"/>
	<path fill="#FFFFFF" d="M92.95,30.562c-0.775,0-0.964-0.264-0.964-1.344v-3.705c0-0.698,0-1.356-0.472-1.987
		c-0.371-0.496-0.975-0.845-1.812-1.036c-1.118-0.28-2.507-0.288-2.661-0.288c-3.245,0-4.198,0.791-4.666,1.48
		c-0.23,0.346-0.405,0.841-0.429,0.938c0,0-0.015,0.055-0.026,0.1c-0.01,0.039-0.029,0.136-0.033,0.177H83.9
		c0.008-0.019,0.016-0.037,0.023-0.055c0.396-0.964,1.966-1.166,3.212-1.166c2.997,0,2.997,1.049,2.997,2.162v0.146h-2.56
		c-2.152,0-3.632,0.029-4.555,0.443c-0.395,0.166-1.684,0.846-1.684,2.564c0,0.768,0.32,3.271,4.433,3.271
		c2.579,0,3.925-0.965,4.413-1.662c0.09,0.613,0.354,1.416,1.838,1.416c0.402,0,0.81-0.033,1.203-0.064
		c0.133-0.012,0.267-0.021,0.399-0.031l0.075-0.004v-1.422l-0.09,0.01C93.601,30.508,93.115,30.562,92.95,30.562 M86.832,27.533
		h3.315c0,0.012-0.002,0.023-0.002,0.035c-0.014,0.307-0.037,0.818-0.325,1.365c-0.872,1.607-3.031,1.781-3.92,1.781
		c-1.795,0-2.598-0.875-2.598-1.742C83.303,27.533,85.017,27.533,86.832,27.533"/>
</g>
</svg>
