<?xml version="1.0" encoding="utf-8"?>
<!-- Generator: Adobe Illustrator 16.0.0, SVG Export Plug-In . SVG Version: 6.00 Build 0)  -->
<!DOCTYPE svg PUBLIC "-//W3C//DTD SVG 1.1//EN" "http://www.w3.org/Graphics/SVG/1.1/DTD/svg11.dtd">
<svg version="1.1" id="Layer_1" xmlns="http://www.w3.org/2000/svg" xmlns:xlink="http://www.w3.org/1999/xlink" x="0px" y="0px"
	 width="220px" height="220px" viewBox="0 0 220 220" enable-background="new 0 0 220 220" xml:space="preserve">
<g>
	<g>
		<g>
			<g>
				<g>
					<g>
						<path fill="#FFFFFF" d="M195.448,85.307l4.506,1.454l-2.799,3.834c-0.072,0.122-0.108,0.207-0.108,0.255
							c0,0.109,0.049,0.199,0.146,0.272l1.526,1.109c0.132,0.073,0.236,0.109,0.308,0.109c0.098,0,0.183-0.061,0.256-0.181
							l2.78-3.835l2.798,3.835c0.074,0.12,0.157,0.181,0.254,0.181c0.085,0,0.189-0.037,0.31-0.109l1.527-1.109
							c0.098-0.085,0.146-0.175,0.146-0.272c0-0.048-0.037-0.133-0.109-0.255l-2.799-3.834l4.507-1.454
							c0.17-0.077,0.254-0.192,0.254-0.347c0-0.025-0.012-0.077-0.035-0.154l-0.547-1.903c-0.059-0.178-0.163-0.267-0.308-0.267
							l-0.182,0.036l-4.508,1.541v-4.671c0-0.251-0.121-0.376-0.362-0.376h-1.872c-0.243,0.011-0.364,0.137-0.364,0.376v4.671
							l-4.506-1.538c-0.098-0.027-0.159-0.039-0.182-0.039c-0.157,0-0.261,0.089-0.311,0.269l-0.545,1.903l-0.036,0.152
							C195.192,85.114,195.277,85.229,195.448,85.307z"/>
					</g>
				</g>
				<g>
					<g>
						<path fill="#FFFFFF" d="M186.107,63.16l4.507,1.455l-2.798,3.834c-0.072,0.121-0.11,0.206-0.11,0.255
							c0,0.108,0.049,0.199,0.146,0.272l1.527,1.109c0.133,0.072,0.236,0.108,0.31,0.108c0.097,0,0.182-0.06,0.254-0.182l2.78-3.834
							l2.8,3.834c0.071,0.122,0.156,0.182,0.254,0.182c0.084,0,0.186-0.037,0.31-0.108l1.524-1.109
							c0.098-0.085,0.146-0.175,0.146-0.272c0-0.049-0.036-0.134-0.108-0.255l-2.799-3.834l4.507-1.455
							c0.17-0.077,0.255-0.191,0.255-0.346c0-0.025-0.012-0.076-0.037-0.154l-0.544-1.903c-0.062-0.179-0.164-0.268-0.31-0.268
							l-0.183,0.037l-4.506,1.539v-4.67c0-0.25-0.121-0.376-0.364-0.376h-1.871c-0.242,0.012-0.364,0.137-0.364,0.376v4.67
							l-4.506-1.538c-0.097-0.025-0.158-0.038-0.181-0.038c-0.159,0-0.262,0.089-0.31,0.269l-0.547,1.902l-0.035,0.154
							C185.854,62.969,185.938,63.083,186.107,63.16z"/>
					</g>
				</g>
				<g>
					<g>
						<path fill="#FFFFFF" d="M171.862,43.877l4.506,1.454l-2.798,3.834c-0.073,0.121-0.109,0.206-0.109,0.255
							c0,0.108,0.048,0.2,0.146,0.272l1.526,1.108c0.133,0.073,0.235,0.108,0.308,0.108c0.097,0,0.182-0.06,0.256-0.182l2.78-3.833
							l2.797,3.833c0.073,0.122,0.159,0.182,0.256,0.182c0.084,0,0.187-0.035,0.308-0.108l1.527-1.108
							c0.097-0.085,0.146-0.176,0.146-0.272c0-0.049-0.037-0.134-0.111-0.255l-2.797-3.834l4.507-1.454
							c0.169-0.078,0.254-0.192,0.254-0.347c0-0.025-0.014-0.077-0.036-0.154l-0.546-1.904c-0.06-0.179-0.164-0.268-0.309-0.268
							l-0.182,0.037l-4.507,1.538v-4.67c0-0.25-0.122-0.376-0.363-0.376h-1.872c-0.242,0.012-0.363,0.138-0.363,0.376v4.67
							l-4.507-1.537c-0.098-0.025-0.157-0.038-0.183-0.038c-0.156,0-0.261,0.09-0.309,0.269l-0.545,1.903l-0.035,0.153
							C171.608,43.685,171.692,43.799,171.862,43.877z"/>
					</g>
				</g>
				<g>
					<g>
						<path fill="#FFFFFF" d="M153.426,28.473l4.507,1.454l-2.8,3.834c-0.071,0.123-0.108,0.207-0.108,0.255
							c0,0.109,0.049,0.2,0.146,0.272l1.526,1.108c0.133,0.073,0.235,0.11,0.309,0.11c0.096,0,0.181-0.062,0.254-0.182l2.78-3.834
							l2.799,3.834c0.072,0.12,0.157,0.182,0.254,0.182c0.085,0,0.188-0.037,0.31-0.11l1.526-1.108
							c0.098-0.084,0.146-0.175,0.146-0.272c0-0.049-0.037-0.133-0.11-0.255l-2.797-3.834l4.506-1.454
							c0.169-0.077,0.254-0.193,0.254-0.347c0-0.024-0.013-0.077-0.035-0.154l-0.546-1.903c-0.061-0.179-0.164-0.268-0.31-0.268
							l-0.181,0.036l-4.507,1.541v-4.67c0-0.251-0.122-0.377-0.363-0.377h-1.873c-0.242,0.012-0.363,0.138-0.363,0.377v4.67
							l-4.507-1.538c-0.098-0.026-0.157-0.038-0.182-0.038c-0.157,0-0.261,0.089-0.31,0.27l-0.544,1.902l-0.036,0.153
							C153.172,28.28,153.256,28.396,153.426,28.473z"/>
					</g>
				</g>
				<g>
					<g>
						<path fill="#FFFFFF" d="M131.741,17.729l4.509,1.455l-2.8,3.833c-0.071,0.122-0.108,0.206-0.108,0.255
							c0,0.108,0.048,0.198,0.145,0.272l1.527,1.108c0.133,0.072,0.236,0.108,0.309,0.108c0.098,0,0.182-0.06,0.254-0.182
							l2.781-3.834l2.799,3.834c0.072,0.122,0.157,0.182,0.255,0.182c0.084,0,0.187-0.036,0.309-0.108l1.526-1.108
							c0.096-0.085,0.145-0.175,0.145-0.272c0-0.049-0.036-0.133-0.107-0.255l-2.801-3.833l4.508-1.455
							c0.169-0.076,0.254-0.191,0.254-0.346c0-0.025-0.011-0.077-0.035-0.154l-0.546-1.903c-0.062-0.179-0.163-0.267-0.309-0.267
							l-0.183,0.036l-4.506,1.54v-4.67c0-0.251-0.121-0.376-0.364-0.376h-1.871c-0.243,0.011-0.363,0.137-0.363,0.376v4.67
							l-4.507-1.537c-0.097-0.026-0.158-0.038-0.182-0.038c-0.159,0-0.26,0.089-0.309,0.269l-0.546,1.902l-0.037,0.154
							C131.487,17.538,131.572,17.653,131.741,17.729z"/>
					</g>
				</g>
				<g>
					<g>
						<path fill="#FFFFFF" d="M107.791,13.866l4.507,1.455l-2.8,3.834c-0.072,0.121-0.109,0.207-0.109,0.254
							c0,0.109,0.049,0.2,0.146,0.273l1.527,1.108c0.133,0.072,0.236,0.108,0.309,0.108c0.098,0,0.183-0.06,0.255-0.182l2.779-3.835
							l2.8,3.835c0.072,0.122,0.156,0.182,0.254,0.182c0.085,0,0.188-0.037,0.31-0.108l1.525-1.108
							c0.097-0.085,0.146-0.175,0.146-0.273c0-0.047-0.036-0.133-0.108-0.254l-2.799-3.834l4.507-1.455
							c0.168-0.076,0.254-0.191,0.254-0.346c0-0.026-0.012-0.078-0.035-0.154l-0.546-1.904c-0.062-0.179-0.163-0.268-0.31-0.268
							l-0.182,0.036l-4.506,1.54v-4.67c0-0.25-0.121-0.376-0.363-0.376h-1.872c-0.242,0.012-0.363,0.137-0.363,0.376v4.67
							l-4.507-1.537c-0.097-0.025-0.157-0.038-0.182-0.038c-0.158,0-0.261,0.09-0.309,0.269l-0.545,1.902l-0.037,0.154
							C107.536,13.675,107.621,13.79,107.791,13.866z"/>
					</g>
				</g>
				<g>
					<g>
						<path fill="#FFFFFF" d="M83.837,15.988l4.507,1.454l-2.799,3.834c-0.073,0.122-0.109,0.207-0.109,0.255
							c0,0.109,0.049,0.199,0.146,0.272l1.526,1.108c0.134,0.073,0.237,0.109,0.309,0.109c0.097,0,0.182-0.061,0.255-0.181
							l2.78-3.834l2.799,3.834c0.072,0.121,0.157,0.181,0.254,0.181c0.085,0,0.188-0.037,0.309-0.109l1.527-1.108
							c0.097-0.084,0.146-0.175,0.146-0.272c0-0.049-0.037-0.133-0.109-0.255l-2.798-3.834l4.507-1.454
							c0.169-0.078,0.254-0.192,0.254-0.346c0-0.025-0.012-0.077-0.036-0.155l-0.545-1.903c-0.061-0.179-0.164-0.268-0.309-0.268
							l-0.183,0.037l-4.506,1.54v-4.67c0-0.251-0.122-0.376-0.363-0.376h-1.872c-0.242,0.011-0.363,0.137-0.363,0.376v4.67
							l-4.507-1.538c-0.097-0.026-0.157-0.038-0.182-0.038c-0.157,0-0.26,0.089-0.309,0.27l-0.544,1.902l-0.037,0.154
							C83.583,15.795,83.668,15.91,83.837,15.988z"/>
					</g>
				</g>
				<g>
					<g>
						<path fill="#FFFFFF" d="M61.072,23.448l4.507,1.453l-2.799,3.835c-0.072,0.121-0.109,0.206-0.109,0.255
							c0,0.107,0.048,0.199,0.146,0.272l1.526,1.109c0.133,0.072,0.236,0.108,0.309,0.108c0.097,0,0.182-0.06,0.254-0.182
							l2.78-3.834l2.799,3.834c0.073,0.122,0.157,0.182,0.254,0.182c0.084,0,0.188-0.036,0.309-0.108l1.526-1.109
							c0.097-0.085,0.146-0.175,0.146-0.272c0-0.049-0.037-0.134-0.109-0.255l-2.799-3.835l4.507-1.453
							c0.169-0.078,0.254-0.192,0.254-0.346c0-0.025-0.013-0.078-0.037-0.155l-0.545-1.903c-0.061-0.179-0.164-0.268-0.309-0.268
							l-0.182,0.036l-4.507,1.54v-4.67c0-0.25-0.121-0.376-0.364-0.376H66.76c-0.243,0.011-0.364,0.138-0.364,0.376v4.67
							l-4.507-1.537c-0.098-0.027-0.158-0.039-0.182-0.039c-0.158,0-0.261,0.089-0.309,0.269l-0.545,1.902l-0.036,0.154
							C60.817,23.255,60.902,23.37,61.072,23.448z"/>
					</g>
				</g>
				<g>
					<g>
						<path fill="#FFFFFF" d="M40.654,36.141l4.506,1.455l-2.798,3.834c-0.073,0.121-0.109,0.207-0.109,0.255
							c0,0.107,0.048,0.198,0.146,0.271l1.526,1.109c0.133,0.072,0.236,0.108,0.309,0.108c0.097,0,0.182-0.06,0.254-0.182
							l2.781-3.834l2.799,3.834c0.072,0.122,0.157,0.182,0.254,0.182c0.085,0,0.188-0.037,0.31-0.108l1.526-1.109
							c0.097-0.084,0.146-0.175,0.146-0.271c0-0.049-0.036-0.134-0.108-0.255l-2.799-3.834l4.507-1.455
							c0.169-0.077,0.254-0.192,0.254-0.346c0-0.025-0.012-0.078-0.036-0.154l-0.545-1.903c-0.061-0.179-0.164-0.267-0.309-0.267
							l-0.182,0.035l-4.506,1.54v-4.67c0-0.25-0.121-0.376-0.364-0.376h-1.872c-0.242,0.011-0.363,0.137-0.363,0.376v4.67
							l-4.507-1.537c-0.098-0.027-0.158-0.038-0.183-0.038c-0.157,0-0.26,0.089-0.309,0.269l-0.545,1.902l-0.036,0.153
							C40.399,35.949,40.484,36.064,40.654,36.141z"/>
					</g>
				</g>
				<g>
					<g>
						<path fill="#FFFFFF" d="M23.697,53.442l4.507,1.455l-2.798,3.834c-0.073,0.122-0.109,0.207-0.109,0.255
							c0,0.108,0.048,0.199,0.146,0.272l1.526,1.108c0.132,0.072,0.236,0.109,0.309,0.109c0.097,0,0.182-0.06,0.254-0.182
							l2.781-3.834l2.798,3.834c0.072,0.122,0.157,0.182,0.254,0.182c0.085,0,0.188-0.037,0.309-0.109l1.527-1.108
							c0.097-0.084,0.146-0.175,0.146-0.272c0-0.049-0.036-0.134-0.109-0.255l-2.798-3.834l4.507-1.455
							c0.169-0.077,0.254-0.191,0.254-0.346c0-0.025-0.012-0.077-0.036-0.153l-0.545-1.904c-0.061-0.18-0.164-0.267-0.31-0.267
							l-0.181,0.035l-4.508,1.54v-4.67c0-0.25-0.12-0.376-0.363-0.376h-1.872c-0.243,0.011-0.364,0.137-0.364,0.376v4.67
							l-4.507-1.537c-0.097-0.026-0.158-0.038-0.181-0.038c-0.158,0-0.261,0.089-0.31,0.269l-0.545,1.902l-0.036,0.153
							C23.443,53.251,23.528,53.366,23.697,53.442z"/>
					</g>
				</g>
				<g>
					<g>
						<path fill="#FFFFFF" d="M12.552,74.994l4.507,1.454l-2.799,3.835c-0.073,0.121-0.109,0.206-0.109,0.254
							c0,0.108,0.049,0.199,0.146,0.273l1.526,1.107c0.133,0.073,0.236,0.109,0.31,0.109c0.097,0,0.181-0.06,0.254-0.181l2.78-3.835
							l2.799,3.835c0.072,0.121,0.157,0.181,0.254,0.181c0.085,0,0.188-0.036,0.309-0.109l1.527-1.107
							c0.097-0.085,0.145-0.176,0.145-0.273c0-0.049-0.036-0.133-0.109-0.254l-2.798-3.835l4.507-1.454
							c0.169-0.077,0.255-0.192,0.255-0.346c0-0.025-0.013-0.077-0.037-0.154l-0.545-1.903c-0.061-0.178-0.163-0.268-0.308-0.268
							l-0.183,0.036l-4.506,1.54v-4.67c0-0.251-0.122-0.376-0.363-0.376h-1.872c-0.242,0.011-0.363,0.137-0.363,0.376v4.67
							L13.37,72.36c-0.097-0.025-0.157-0.038-0.182-0.038c-0.158,0-0.26,0.089-0.309,0.27l-0.545,1.902l-0.036,0.153
							C12.298,74.801,12.383,74.917,12.552,74.994z"/>
					</g>
				</g>
				<g>
					<g>
						<path fill="#FFFFFF" d="M7.211,98.459l4.507,1.453l-2.799,3.834c-0.072,0.123-0.109,0.207-0.109,0.255
							c0,0.109,0.048,0.199,0.146,0.273l1.526,1.108c0.133,0.072,0.236,0.108,0.309,0.108c0.097,0,0.182-0.06,0.254-0.18
							l2.781-3.835l2.799,3.835c0.073,0.12,0.157,0.18,0.254,0.18c0.085,0,0.188-0.036,0.31-0.108l1.526-1.108
							c0.096-0.084,0.146-0.176,0.146-0.273c0-0.048-0.037-0.132-0.109-0.255l-2.798-3.834l4.507-1.453
							c0.169-0.078,0.254-0.193,0.254-0.347c0-0.026-0.012-0.077-0.036-0.154l-0.545-1.904c-0.061-0.178-0.164-0.267-0.309-0.267
							l-0.182,0.037l-4.507,1.54v-4.67c0-0.251-0.122-0.377-0.364-0.377H12.9c-0.243,0.012-0.364,0.138-0.364,0.377v4.67
							l-4.506-1.538c-0.097-0.026-0.158-0.039-0.182-0.039c-0.158,0-0.261,0.089-0.309,0.269l-0.545,1.902l-0.036,0.154
							C6.957,98.266,7.041,98.381,7.211,98.459z"/>
					</g>
				</g>
				<g>
					<g>
						<path fill="#FFFFFF" d="M7.337,122.41l4.507,1.454l-2.799,3.835c-0.072,0.121-0.109,0.206-0.109,0.254
							c0,0.109,0.048,0.201,0.146,0.273l1.526,1.107c0.133,0.074,0.236,0.109,0.309,0.109c0.097,0,0.182-0.061,0.254-0.181
							l2.78-3.835l2.799,3.835c0.073,0.12,0.157,0.181,0.254,0.181c0.084,0,0.188-0.035,0.309-0.109l1.526-1.107
							c0.098-0.086,0.146-0.176,0.146-0.273c0-0.048-0.037-0.133-0.109-0.254l-2.799-3.835l4.507-1.454
							c0.169-0.076,0.254-0.191,0.254-0.346c0-0.025-0.012-0.076-0.036-0.154l-0.545-1.903c-0.061-0.179-0.164-0.268-0.309-0.268
							l-0.182,0.037l-4.507,1.538v-4.669c0-0.251-0.121-0.377-0.363-0.377h-1.871c-0.243,0.013-0.364,0.138-0.364,0.377v4.669
							l-4.507-1.537c-0.097-0.025-0.157-0.038-0.181-0.038c-0.158,0-0.261,0.09-0.31,0.269l-0.545,1.904l-0.036,0.152
							C7.083,122.219,7.168,122.334,7.337,122.41z"/>
					</g>
				</g>
				<g>
					<g>
						<path fill="#FFFFFF" d="M12.917,145.797l4.507,1.454l-2.798,3.834c-0.073,0.122-0.109,0.207-0.109,0.255
							c0,0.108,0.048,0.199,0.146,0.272l1.526,1.109c0.133,0.071,0.236,0.107,0.309,0.107c0.097,0,0.182-0.06,0.254-0.182
							l2.781-3.833l2.798,3.833c0.072,0.122,0.157,0.182,0.254,0.182c0.085,0,0.188-0.036,0.309-0.107l1.527-1.109
							c0.097-0.086,0.145-0.177,0.145-0.272c0-0.048-0.036-0.133-0.109-0.255l-2.798-3.834l4.507-1.454
							c0.169-0.076,0.254-0.192,0.254-0.346c0-0.025-0.012-0.077-0.036-0.154l-0.545-1.904c-0.061-0.178-0.164-0.267-0.309-0.267
							l-0.182,0.036l-4.507,1.539v-4.67c0-0.251-0.121-0.376-0.363-0.376h-1.872c-0.243,0.012-0.363,0.137-0.363,0.376v4.67
							l-4.507-1.537c-0.097-0.025-0.158-0.038-0.182-0.038c-0.157,0-0.26,0.089-0.309,0.269l-0.545,1.903l-0.037,0.153
							C12.663,145.604,12.748,145.721,12.917,145.797z"/>
					</g>
				</g>
				<g>
					<g>
						<path fill="#FFFFFF" d="M24.062,167.348l4.507,1.455l-2.799,3.833c-0.072,0.122-0.109,0.206-0.109,0.256
							c0,0.107,0.048,0.197,0.146,0.271l1.527,1.109c0.133,0.072,0.236,0.108,0.309,0.108c0.097,0,0.182-0.06,0.254-0.183
							l2.78-3.833l2.799,3.833c0.073,0.123,0.157,0.183,0.254,0.183c0.084,0,0.188-0.036,0.31-0.108l1.526-1.109
							c0.097-0.084,0.146-0.175,0.146-0.271c0-0.05-0.037-0.134-0.109-0.256l-2.799-3.833l4.507-1.455
							c0.169-0.077,0.254-0.191,0.254-0.347c0-0.024-0.012-0.077-0.036-0.153l-0.545-1.903c-0.061-0.18-0.163-0.268-0.309-0.268
							l-0.182,0.036l-4.507,1.539v-4.67c0-0.251-0.121-0.377-0.363-0.377H29.75c-0.242,0.012-0.364,0.137-0.364,0.377v4.67
							l-4.507-1.537c-0.097-0.026-0.158-0.038-0.182-0.038c-0.158,0-0.261,0.09-0.309,0.27l-0.545,1.901l-0.037,0.153
							C23.807,167.156,23.892,167.271,24.062,167.348z"/>
					</g>
				</g>
				<g>
					<g>
						<path fill="#FFFFFF" d="M41.215,184.504l4.507,1.455l-2.799,3.833c-0.073,0.123-0.108,0.207-0.108,0.257
							c0,0.107,0.048,0.198,0.145,0.272l1.527,1.107c0.134,0.072,0.236,0.108,0.309,0.108c0.097,0,0.182-0.06,0.255-0.181
							l2.78-3.835l2.798,3.835c0.073,0.121,0.158,0.181,0.255,0.181c0.085,0,0.188-0.036,0.309-0.108l1.526-1.107
							c0.097-0.086,0.146-0.176,0.146-0.272c0-0.05-0.037-0.134-0.109-0.257l-2.799-3.833l4.507-1.455
							c0.169-0.076,0.254-0.19,0.254-0.345c0-0.025-0.012-0.076-0.037-0.155l-0.545-1.903c-0.06-0.178-0.164-0.267-0.309-0.267
							l-0.182,0.036l-4.507,1.54v-4.67c0-0.252-0.122-0.377-0.363-0.377h-1.873c-0.242,0.013-0.363,0.138-0.363,0.377v4.67
							l-4.507-1.538c-0.097-0.025-0.158-0.038-0.182-0.038c-0.158,0-0.261,0.089-0.309,0.27l-0.545,1.902l-0.036,0.153
							C40.961,184.313,41.045,184.428,41.215,184.504z"/>
					</g>
				</g>
				<g>
					<g>
						<path fill="#FFFFFF" d="M61.777,197.002l4.507,1.455l-2.799,3.833c-0.072,0.122-0.108,0.206-0.108,0.255
							c0,0.109,0.048,0.2,0.146,0.272l1.526,1.109c0.134,0.072,0.237,0.108,0.31,0.108c0.097,0,0.181-0.061,0.254-0.181l2.781-3.835
							l2.799,3.835c0.072,0.12,0.157,0.181,0.254,0.181c0.084,0,0.188-0.036,0.309-0.108l1.527-1.109
							c0.096-0.083,0.145-0.175,0.145-0.272c0-0.049-0.037-0.133-0.109-0.255l-2.798-3.833l4.506-1.455
							c0.169-0.076,0.254-0.192,0.254-0.347c0-0.024-0.012-0.076-0.036-0.152l-0.546-1.904c-0.06-0.179-0.163-0.267-0.309-0.267
							l-0.182,0.035l-4.506,1.54v-4.67c0-0.252-0.122-0.377-0.364-0.377h-1.872c-0.243,0.012-0.364,0.138-0.364,0.377v4.67
							l-4.507-1.537c-0.097-0.027-0.157-0.038-0.182-0.038c-0.158,0-0.261,0.088-0.309,0.27l-0.545,1.901l-0.037,0.152
							C61.522,196.81,61.607,196.926,61.777,197.002z"/>
					</g>
				</g>
				<g>
					<g>
						<path fill="#FFFFFF" d="M84.622,204.224l4.507,1.454l-2.798,3.835c-0.072,0.121-0.109,0.206-0.109,0.255
							c0,0.108,0.048,0.198,0.146,0.272l1.526,1.108c0.133,0.072,0.236,0.107,0.309,0.107c0.097,0,0.182-0.06,0.254-0.182
							l2.78-3.833l2.799,3.833c0.073,0.122,0.158,0.182,0.254,0.182c0.084,0,0.188-0.035,0.31-0.107l1.526-1.108
							c0.097-0.086,0.145-0.178,0.145-0.272c0-0.049-0.036-0.134-0.108-0.255l-2.799-3.835l4.507-1.454
							c0.169-0.076,0.254-0.192,0.254-0.346c0-0.025-0.012-0.078-0.036-0.154l-0.545-1.903c-0.061-0.179-0.163-0.269-0.309-0.269
							l-0.182,0.037l-4.507,1.54v-4.671c0-0.251-0.121-0.376-0.364-0.376H90.31c-0.242,0.011-0.364,0.138-0.364,0.376v4.671
							l-4.507-1.539c-0.097-0.024-0.158-0.038-0.182-0.038c-0.158,0-0.261,0.09-0.309,0.271l-0.545,1.901l-0.036,0.154
							C84.368,204.031,84.452,204.147,84.622,204.224z"/>
					</g>
				</g>
				<g>
					<g>
						<path fill="#FFFFFF" d="M108.574,206.091l4.507,1.455l-2.799,3.835c-0.073,0.121-0.109,0.205-0.109,0.255
							c0,0.107,0.048,0.198,0.146,0.272l1.526,1.107c0.133,0.072,0.237,0.109,0.31,0.109c0.097,0,0.182-0.061,0.254-0.182
							l2.78-3.835l2.8,3.835c0.071,0.121,0.156,0.182,0.254,0.182c0.084,0,0.188-0.037,0.31-0.109l1.526-1.107
							c0.097-0.084,0.145-0.176,0.145-0.272c0-0.05-0.037-0.134-0.109-0.255l-2.799-3.835l4.509-1.455
							c0.169-0.076,0.254-0.19,0.254-0.345c0-0.025-0.014-0.077-0.037-0.153l-0.545-1.904c-0.062-0.179-0.164-0.268-0.31-0.268
							l-0.181,0.036l-4.508,1.539v-4.669c0-0.251-0.121-0.377-0.363-0.377h-1.871c-0.243,0.011-0.364,0.138-0.364,0.377v4.669
							l-4.507-1.537c-0.097-0.025-0.157-0.038-0.181-0.038c-0.158,0-0.261,0.09-0.31,0.27l-0.545,1.902l-0.036,0.153
							C108.32,205.9,108.404,206.015,108.574,206.091z"/>
					</g>
				</g>
				<g>
					<g>
						<path fill="#FFFFFF" d="M132.526,202.229l4.508,1.454l-2.801,3.833c-0.071,0.122-0.107,0.207-0.107,0.256
							c0,0.107,0.048,0.198,0.145,0.271l1.526,1.109c0.134,0.071,0.237,0.108,0.31,0.108c0.097,0,0.182-0.06,0.254-0.182l2.78-3.834
							l2.8,3.834c0.072,0.122,0.156,0.182,0.254,0.182c0.085,0,0.188-0.037,0.309-0.108l1.527-1.109
							c0.097-0.085,0.145-0.174,0.145-0.271c0-0.049-0.037-0.134-0.108-0.256l-2.8-3.833l4.509-1.454
							c0.169-0.077,0.254-0.192,0.254-0.346c0-0.025-0.013-0.078-0.037-0.155l-0.545-1.903c-0.061-0.178-0.163-0.267-0.31-0.267
							l-0.182,0.036l-4.507,1.539v-4.67c0-0.251-0.12-0.376-0.363-0.376h-1.871c-0.243,0.011-0.363,0.136-0.363,0.376v4.67
							l-4.507-1.537c-0.098-0.025-0.159-0.038-0.183-0.038c-0.157,0-0.26,0.089-0.309,0.269l-0.545,1.901l-0.037,0.155
							C132.271,202.037,132.355,202.152,132.526,202.229z"/>
					</g>
				</g>
				<g>
					<g>
						<path fill="#FFFFFF" d="M154.131,191.248l4.506,1.453l-2.798,3.835c-0.073,0.121-0.108,0.206-0.108,0.254
							c0,0.109,0.048,0.199,0.146,0.272l1.525,1.109c0.134,0.071,0.236,0.108,0.309,0.108c0.098,0,0.183-0.061,0.256-0.181
							l2.78-3.835l2.798,3.835c0.073,0.12,0.158,0.181,0.254,0.181c0.085,0,0.188-0.037,0.31-0.108l1.526-1.109
							c0.098-0.084,0.146-0.175,0.146-0.272c0-0.048-0.037-0.133-0.11-0.254l-2.798-3.835l4.507-1.453
							c0.17-0.077,0.254-0.193,0.254-0.347c0-0.025-0.013-0.076-0.036-0.154l-0.545-1.903c-0.061-0.179-0.164-0.267-0.308-0.267
							l-0.183,0.035l-4.508,1.54v-4.669c0-0.253-0.121-0.378-0.362-0.378h-1.872c-0.243,0.012-0.363,0.137-0.363,0.378v4.669
							l-4.508-1.538c-0.097-0.025-0.156-0.037-0.182-0.037c-0.157,0-0.261,0.088-0.309,0.268l-0.545,1.903l-0.036,0.153
							C153.877,191.055,153.962,191.171,154.131,191.248z"/>
					</g>
				</g>
				<g>
					<g>
						<path fill="#FFFFFF" d="M172.423,175.646l4.508,1.454l-2.799,3.835c-0.072,0.121-0.109,0.206-0.109,0.254
							c0,0.109,0.048,0.199,0.146,0.273l1.527,1.108c0.133,0.071,0.235,0.107,0.309,0.107c0.097,0,0.182-0.06,0.254-0.182
							l2.78-3.833l2.799,3.833c0.073,0.122,0.158,0.182,0.254,0.182c0.085,0,0.188-0.036,0.31-0.107l1.525-1.108
							c0.098-0.086,0.146-0.175,0.146-0.273c0-0.048-0.036-0.133-0.109-0.254l-2.799-3.835l4.507-1.454
							c0.17-0.076,0.254-0.192,0.254-0.347c0-0.024-0.012-0.077-0.036-0.153l-0.544-1.903c-0.062-0.179-0.164-0.268-0.309-0.268
							l-0.183,0.036l-4.506,1.54v-4.671c0-0.251-0.122-0.376-0.364-0.376h-1.872c-0.242,0.011-0.363,0.138-0.363,0.376v4.671
							l-4.508-1.538c-0.097-0.026-0.156-0.038-0.181-0.038c-0.158,0-0.261,0.089-0.31,0.269l-0.545,1.902l-0.036,0.153
							C172.169,175.454,172.254,175.57,172.423,175.646z"/>
					</g>
				</g>
				<g>
					<g>
						<path fill="#FFFFFF" d="M186.473,156.22l4.508,1.454l-2.8,3.833c-0.072,0.122-0.108,0.208-0.108,0.256
							c0,0.108,0.048,0.199,0.145,0.271l1.526,1.11c0.134,0.071,0.237,0.107,0.309,0.107c0.098,0,0.183-0.061,0.255-0.18l2.78-3.835
							l2.8,3.835c0.072,0.119,0.156,0.18,0.254,0.18c0.085,0,0.188-0.036,0.309-0.107l1.526-1.11
							c0.098-0.084,0.146-0.175,0.146-0.271c0-0.048-0.037-0.134-0.108-0.256l-2.8-3.833l4.507-1.454
							c0.171-0.076,0.256-0.192,0.256-0.346c0-0.025-0.013-0.078-0.037-0.154l-0.546-1.904c-0.06-0.179-0.162-0.267-0.309-0.267
							l-0.182,0.036l-4.507,1.54v-4.67c0-0.252-0.12-0.378-0.363-0.378h-1.871c-0.243,0.012-0.364,0.138-0.364,0.378v4.67
							l-4.506-1.538c-0.098-0.026-0.159-0.038-0.183-0.038c-0.157,0-0.26,0.089-0.309,0.269l-0.546,1.902l-0.035,0.154
							C186.219,156.027,186.302,156.144,186.473,156.22z"/>
					</g>
				</g>
				<g>
					<g>
						<path fill="#FFFFFF" d="M195.574,133.995l4.507,1.453l-2.799,3.835c-0.072,0.122-0.109,0.206-0.109,0.255
							c0,0.108,0.049,0.198,0.145,0.272l1.527,1.108c0.134,0.072,0.237,0.108,0.309,0.108c0.097,0,0.183-0.061,0.255-0.182
							l2.78-3.833l2.799,3.833c0.072,0.121,0.157,0.182,0.254,0.182c0.085,0,0.188-0.036,0.31-0.108l1.527-1.108
							c0.096-0.085,0.144-0.177,0.144-0.272c0-0.049-0.035-0.133-0.107-0.255l-2.8-3.835l4.508-1.453
							c0.169-0.077,0.254-0.193,0.254-0.346c0-0.024-0.012-0.078-0.036-0.154l-0.546-1.903c-0.061-0.18-0.163-0.269-0.309-0.269
							l-0.183,0.037l-4.506,1.539v-4.67c0-0.25-0.121-0.376-0.363-0.376h-1.872c-0.242,0.011-0.363,0.137-0.363,0.376v4.67
							l-4.506-1.538c-0.098-0.026-0.159-0.038-0.182-0.038c-0.159,0-0.263,0.091-0.311,0.271l-0.545,1.901l-0.037,0.154
							C195.318,133.802,195.403,133.918,195.574,133.995z"/>
					</g>
				</g>
				<g>
					<g>
						<path fill="#FFFFFF" d="M199.438,110.043l4.507,1.453l-2.799,3.834c-0.073,0.123-0.109,0.208-0.109,0.257
							c0,0.107,0.049,0.197,0.146,0.271l1.525,1.109c0.134,0.072,0.236,0.108,0.309,0.108c0.097,0,0.182-0.059,0.255-0.181
							l2.78-3.835l2.799,3.835c0.072,0.122,0.157,0.181,0.254,0.181c0.085,0,0.188-0.036,0.309-0.108l1.527-1.109
							c0.098-0.085,0.146-0.176,0.146-0.271c0-0.049-0.037-0.134-0.11-0.257l-2.797-3.834l4.506-1.453
							c0.169-0.078,0.254-0.192,0.254-0.347c0-0.025-0.013-0.077-0.036-0.154l-0.545-1.903c-0.061-0.179-0.164-0.268-0.31-0.268
							l-0.181,0.036l-4.508,1.54v-4.67c0-0.25-0.121-0.376-0.363-0.376h-1.872c-0.242,0.012-0.363,0.137-0.363,0.376v4.67
							l-4.507-1.538c-0.098-0.025-0.158-0.038-0.183-0.038c-0.156,0-0.26,0.09-0.309,0.27l-0.544,1.902l-0.036,0.154
							C199.184,109.851,199.268,109.965,199.438,110.043z"/>
					</g>
				</g>
			</g>
		</g>
		<g>
			<path fill="#FFFFFF" d="M82.067,78.831h6.208v1.726h-6.208v7.092H80.32V72.688h10.016v1.725h-8.269V78.831z"/>
			<path fill="#FFFFFF" d="M107.053,87.648H105.2l-1.599-4.502h-5.387l-1.599,4.502h-1.853l5.451-14.961h1.39L107.053,87.648z
				 M100.908,75.317l-2.105,6.125h4.21L100.908,75.317z"/>
			<path fill="#FFFFFF" d="M112.781,87.648v-1.725h3.451V74.413h-3.346v-1.725h8.438v1.725h-3.346v11.511h3.452v1.725H112.781z"/>
			<path fill="#FFFFFF" d="M136.819,73.191l1.56,1.559l0.609,2.125l-0.567,2.062l-1.032,1.515l-1.242,0.652l2.905,6.544h-1.938
				l-2.713-6.229h-4.021v6.229h-1.744V72.688h6.228L136.819,73.191z M134.948,79.694l1.262-0.61l0.609-0.905l0.358-1.24
				l-0.358-1.264l-0.904-0.904l-1.24-0.357h-4.295v5.281H134.948z"/>
			<path fill="#FFFFFF" d="M85.456,103.045l2.357,0.926l1.452,1.474l0.925,1.852l0.463,1.852v2.756l-0.463,1.852l-0.925,1.853
				l-1.452,1.474l-2.357,0.925h-5.493v-14.961H85.456z M86.844,115.565l0.969-0.989l0.693-1.368l0.4-1.514v-2.337l-0.378-1.515
				l-0.715-1.368l-0.99-1.009l-1.684-0.694h-3.43v11.511h3.41L86.844,115.565z"/>
			<path fill="#FFFFFF" d="M107.053,118.007H105.2l-1.599-4.502h-5.387l-1.599,4.502h-1.853l5.451-14.961h1.39L107.053,118.007z
				 M100.908,105.675l-2.105,6.125h4.21L100.908,105.675z"/>
			<path fill="#FFFFFF" d="M116.19,118.007v-13.236h-4.818v-1.725h11.47v1.725h-4.904v13.236H116.19z"/>
			<path fill="#FFFFFF" d="M139.471,118.007h-1.851l-1.599-4.502h-5.388l-1.601,4.502h-1.851l5.45-14.961h1.39L139.471,118.007z
				 M133.328,105.675l-2.105,6.125h4.208L133.328,105.675z"/>
			<path fill="#FFFFFF" d="M55.207,146.366l1.262-1.221l0.4,0.505l0.863,0.589l1.893,0.569h1.811l1.578-0.609l0.505-0.592
				l0.295-0.609v-1.263l-0.484-0.967l-0.989-0.568l-4.292-1.179l-1.579-1.116l-0.694-1.114l-0.294-1.726l0.569-1.789l1.346-1.411
				l1.936-0.631h2.209l2.442,0.631l1.366,0.844l-0.946,1.472l-1.199-0.714l-1.895-0.506h-1.663l-1.262,0.4l-0.779,0.778
				l-0.315,1.093l0.189,0.927l0.274,0.463l1.072,0.779l4.441,1.22l1.62,1.116l0.673,1.62v2.041l-0.527,1.138l-1.01,1.155
				l-2.293,0.841h-2.483l-2.294-0.692l-1.263-0.886L55.207,146.366z"/>
			<path fill="#FFFFFF" d="M73.499,147.713l-1.43-1.452l-0.968-1.915l-0.4-1.873v-3.303l0.42-1.896l0.969-1.872l1.494-1.41
				l2.104-0.758h1.811l2.104,0.758l1.494,1.41l0.968,1.872l0.421,1.896v3.303l-0.4,1.873l-0.967,1.915l-1.431,1.452l-2.147,0.819
				h-1.894L73.499,147.713z M78.718,146.239l0.948-0.926l0.736-1.451l0.336-1.579v-2.967l-0.315-1.41l-0.778-1.537l-0.989-0.902
				l-1.453-0.506h-1.22l-1.453,0.506l-0.989,0.902l-0.778,1.537l-0.315,1.41v2.967l0.336,1.579l0.736,1.451l0.948,0.926l1.515,0.569
				h1.22L78.718,146.239z"/>
			<path fill="#FFFFFF" d="M90.213,147.544l-1.409-1.432l-0.926-1.872l-0.399-1.81v-3.093l0.399-1.852l0.926-1.874l1.452-1.41
				l2.21-0.968h2.21l2.188,0.864l0.946,0.735l0.821,0.969l-1.241,1.178l-0.737-0.821l-0.652-0.525l-1.579-0.673H92.76l-1.494,0.673
				l-1.01,1.011l-0.716,1.408l-0.315,1.41v2.82l0.315,1.41l0.716,1.39l0.989,1.01l1.515,0.716h1.662l1.599-0.675l0.653-0.526
				l0.716-0.818l1.241,1.177l-0.821,0.968l-0.946,0.737l-2.188,0.861h-2.21L90.213,147.544z"/>
			<path fill="#FFFFFF" d="M104.678,148.365v-1.727h3.451v-11.51h-3.346v-1.725h8.438v1.725h-3.345v11.51h3.45v1.727H104.678z"/>
			<path fill="#FFFFFF" d="M122.593,139.548h5.492v1.726h-5.492v5.365h7.849v1.727h-9.595v-14.961h9.595v1.725h-7.849V139.548z"/>
			<path fill="#FFFFFF" d="M140.507,148.365v-13.236h-4.82v-1.725h11.469v1.725h-4.901v13.236H140.507z"/>
			<path fill="#FFFFFF" d="M163.809,133.404l-5.303,8.27v6.691h-1.726v-6.691l-5.303-8.27h2.082l4.082,6.544l4.084-6.544H163.809z"
				/>
		</g>
	</g>
</g>
</svg>
