<?xml version="1.0" encoding="utf-8"?>
<!-- Generator: Adobe Illustrator 16.0.0, SVG Export Plug-In . SVG Version: 6.00 Build 0)  -->
<!DOCTYPE svg PUBLIC "-//W3C//DTD SVG 1.1//EN" "http://www.w3.org/Graphics/SVG/1.1/DTD/svg11.dtd">
<svg version="1.1" id="Layer_1" xmlns="http://www.w3.org/2000/svg" xmlns:xlink="http://www.w3.org/1999/xlink" x="0px" y="0px"
	 width="400px" height="400px" viewBox="0 0 400 400" enable-background="new 0 0 400 400" xml:space="preserve">
<path fill="#FFFFFF" d="M193.571,208.877c0.782,0.497,1.6,0.915,2.47,1.227c3.234,1.119,8.611,0.933,11.49-1.014
	c1.058-0.72,1.964-1.76,2.87-2.666c2.257-2.239,4.515-4.487,6.78-6.731c7.57-7.526,15.142-15.053,22.713-22.575l27.404-27.236
	c7.695-7.642,15.373-15.289,23.068-22.931c3.234-3.212,6.46-6.424,9.694-9.637c2.142-2.146,3.323-5.012,3.323-8.069
	c0-3.048-1.182-5.927-3.332-8.082c-4.327-4.323-11.863-4.323-16.173,0l-72.314,72.959V32.773c0.213-6.06-4.39-11.001-10.255-11.21
	h-1.146c-2.826-0.102-5.545,0.92-7.633,2.857c-2.07,1.938-3.279,4.567-3.376,7.407v142.297l-72.333-72.977
	c-4.425-4.438-11.676-4.438-16.137,0.018c-4.46,4.447-4.46,11.711,0,16.159c3.582,3.568,7.18,7.126,10.761,10.69
	c8.389,8.326,16.777,16.661,25.183,24.987c9.641,9.584,19.283,19.159,28.933,28.738c7.357,7.295,14.715,14.595,22.064,21.904
	C189.43,205.429,191.323,207.464,193.571,208.877"/>
<path fill="#FFFFFF" d="M369.373,223.254h-86.648c-5.545-0.053-10.112,4.07-10.672,9.544l-7.518,47.611h-128.35l-7.456-47.327
	c-0.613-5.758-5.447-9.881-10.699-9.828H32.289c-3.021-0.106-5.74,0.907-7.819,2.844c-2.088,1.946-3.288,4.576-3.386,7.42
	l0.009,135.397c-0.213,6.069,4.39,11.01,10.264,11.214h337.074c3.039,0.098,5.75-0.915,7.838-2.853
	c2.07-1.938,3.279-4.576,3.368-7.42V234.46C379.85,228.399,375.246,223.459,369.373,223.254 M357.226,357.709H43.495V245.665h64.806
	l6.851,47.949c0.906,5.35,5.598,9.286,11.179,9.188h147.988c5.643,0.089,10.353-3.839,11.277-9.331l6.824-47.807h64.806V357.709z"/>
</svg>
