<?xml version="1.0" encoding="utf-8"?>
<!-- Generator: Adobe Illustrator 16.0.0, SVG Export Plug-In . SVG Version: 6.00 Build 0)  -->
<!DOCTYPE svg PUBLIC "-//W3C//DTD SVG 1.1//EN" "http://www.w3.org/Graphics/SVG/1.1/DTD/svg11.dtd">
<svg version="1.1" id="Layer_1" xmlns="http://www.w3.org/2000/svg" xmlns:xlink="http://www.w3.org/1999/xlink" x="0px" y="0px"
	 width="100px" height="68px" viewBox="0 0 100 68" enable-background="new 0 0 100 68" xml:space="preserve">
<path d="M57.818,37.086c1.383,4.604,5.516,7.698,10.283,7.698l0,0c5.943-0.009,10.775-4.851,10.77-10.791
	c-0.004-5.942-4.844-10.777-10.785-10.777c-4.773,0.005-8.897,3.104-10.272,7.714l-0.426,1.426l-34.609,0.041
	c-0.438,0-0.852,0.173-1.166,0.487c-0.312,0.314-0.485,0.728-0.484,1.165c0.001,0.911,0.741,1.652,1.651,1.652l2.002-0.002
	l0.007,7.303l3.304-0.003l-0.007-7.3l7.658-0.018l0.002,7.312l3.309-0.004l-0.007-7.309l18.342-0.022L57.818,37.086z M68.078,26.52
	h0.006c4.123,0,7.48,3.354,7.484,7.477c0.002,4.124-3.348,7.48-7.471,7.484c-4.121-0.002-7.479-3.355-7.49-7.473
	C60.604,29.882,63.955,26.523,68.078,26.52"/>
</svg>
