<?xml version="1.0" encoding="utf-8"?>
<!-- Generator: Adobe Illustrator 16.0.0, SVG Export Plug-In . SVG Version: 6.00 Build 0)  -->
<!DOCTYPE svg PUBLIC "-//W3C//DTD SVG 1.1//EN" "http://www.w3.org/Graphics/SVG/1.1/DTD/svg11.dtd">
<svg version="1.1" id="Layer_1" xmlns="http://www.w3.org/2000/svg" xmlns:xlink="http://www.w3.org/1999/xlink" x="0px" y="0px"
	 width="800px" height="800px" viewBox="0 0 800 800" enable-background="new 0 0 800 800" xml:space="preserve">
<g>
	<g>
		<path fill="#FFFFFF" d="M61.318,377.314l230.707,74.418l-143.28,196.262c-3.686,6.178-5.556,10.57-5.556,13.062
			c0,5.583,2.467,10.189,7.425,13.929l78.159,56.75c6.803,3.741,12.085,5.583,15.799,5.583c4.958,0,9.294-3.143,13.008-9.322
			L399.939,531.68l143.28,196.316c3.688,6.18,8.024,9.322,13.009,9.322c4.336,0,9.596-1.842,15.829-5.583l78.157-56.75
			c4.933-4.336,7.371-8.996,7.371-13.929c0-2.492-1.842-6.885-5.53-13.062L508.75,451.732l230.734-74.418
			c8.673-3.958,13.062-9.894,13.062-17.752c0-1.301-0.65-3.928-1.898-7.887l-27.914-97.427c-3.089-9.159-8.346-13.684-15.824-13.684
			l-9.269,1.816l-230.737,78.808V82.133c0-12.873-6.178-19.268-18.589-19.268h-95.828c-12.412,0.569-18.592,7.02-18.592,19.268
			v239.055l-230.708-78.672c-4.987-1.329-8.076-1.951-9.323-1.951c-8.047,0-13.333,4.553-15.799,13.766l-27.914,97.402l-1.87,7.831
			C48.282,367.42,52.618,373.356,61.318,377.314z"/>
	</g>
</g>
</svg>
