<?xml version="1.0" encoding="utf-8"?>
<!-- Generator: Adobe Illustrator 16.0.0, SVG Export Plug-In . SVG Version: 6.00 Build 0)  -->
<!DOCTYPE svg PUBLIC "-//W3C//DTD SVG 1.1//EN" "http://www.w3.org/Graphics/SVG/1.1/DTD/svg11.dtd">
<svg version="1.1" id="Layer_1" xmlns="http://www.w3.org/2000/svg" xmlns:xlink="http://www.w3.org/1999/xlink" x="0px" y="0px"
	 width="589px" height="800px" viewBox="109.5 0 589 800" enable-background="new 109.5 0 589 800" xml:space="preserve">
<g>
	<g>
		<path fill="#FFFFFF" d="M213.421,387.291l129.663,41.825l-80.527,110.304c-2.072,3.471-3.123,5.939-3.123,7.341
			c0,3.138,1.387,5.728,4.174,7.827l43.927,31.895c3.824,2.104,6.792,3.139,8.88,3.139c2.787,0,5.224-1.766,7.311-5.24
			l80.009-110.333L484.26,584.38c2.072,3.475,4.512,5.241,7.311,5.241c2.438,0,5.395-1.035,8.898-3.138l43.926-31.895
			c2.771-2.438,4.143-5.057,4.143-7.828c0-1.4-1.035-3.868-3.107-7.341l-80.541-110.305l129.678-41.824
			c4.875-2.225,7.34-5.561,7.34-9.978c0-0.73-0.365-2.208-1.066-4.433l-15.689-54.756c-1.734-5.148-4.689-7.691-8.893-7.691
			l-5.211,1.021l-129.678,44.291V221.392c0-7.234-3.471-10.829-10.447-10.829h-53.857c-6.977,0.32-10.449,3.945-10.449,10.829
			v134.354l-129.664-44.214c-2.802-0.748-4.539-1.097-5.239-1.097c-4.523,0-7.493,2.558-8.88,7.736l-15.688,54.742l-1.051,4.4
			C206.094,381.729,208.531,385.066,213.421,387.291z"/>
	</g>
</g>
</svg>
