<?xml version="1.0" encoding="utf-8"?>
<!-- Generator: Adobe Illustrator 16.0.0, SVG Export Plug-In . SVG Version: 6.00 Build 0)  -->
<!DOCTYPE svg PUBLIC "-//W3C//DTD SVG 1.1//EN" "http://www.w3.org/Graphics/SVG/1.1/DTD/svg11.dtd">
<svg version="1.1" id="Layer_1" xmlns="http://www.w3.org/2000/svg" xmlns:xlink="http://www.w3.org/1999/xlink" x="0px" y="0px"
	 width="60px" height="50px" viewBox="0 0 60 50" enable-background="new 0 0 60 50" xml:space="preserve">
<path fill="#FFFFFF" d="M18.397,7.784c-0.413,0-0.748,0.335-0.748,0.749v20.21c0,0.414,0.335,0.748,0.748,0.748h2.994
	c0.413,0,0.749-0.334,0.749-0.748V8.533c0-0.414-0.336-0.749-0.749-0.749H18.397z M25.134,13.023c-0.413,0-0.749,0.334-0.749,0.748
	v27.695c0,0.414,0.336,0.749,0.749,0.749h2.994c0.413,0,0.748-0.335,0.748-0.749V13.771c0-0.414-0.335-0.748-0.748-0.748H25.134z
	 M31.87,13.023c-0.413,0-0.748,0.334-0.748,0.748v27.695c0,0.414,0.335,0.749,0.748,0.749h2.994c0.413,0,0.749-0.335,0.749-0.749
	V13.771c0-0.414-0.336-0.748-0.749-0.748H31.87z M38.607,13.023c-0.413,0-0.749,0.334-0.749,0.748v14.972
	c0,0.414,0.336,0.748,0.749,0.748h2.994c0.412,0,0.749-0.334,0.749-0.748V13.771c0-0.414-0.337-0.748-0.749-0.748H38.607z"/>
</svg>
