<?xml version="1.0" encoding="utf-8"?>
<!-- Generator: Adobe Illustrator 19.0.0, SVG Export Plug-In . SVG Version: 6.00 Build 0)  -->
<svg version="1.1" id="Layer_1" xmlns="http://www.w3.org/2000/svg" xmlns:xlink="http://www.w3.org/1999/xlink" x="0px" y="0px"
	 viewBox="0 0 200 55" style="enable-background:new 0 0 200 55;" xml:space="preserve">
<g id="XMLID_15_">
	<path id="XMLID_16_" d="M15.1,14.5h4.8v20.1h12.4v3.8H15.1V14.5z"/>
	<path id="XMLID_18_" d="M44.1,21.2c1.7,0,3.1,0.2,4.3,0.6c1.2,0.4,2.2,1,3,1.8c0.8,0.8,1.4,1.7,1.7,2.8c0.4,1.1,0.6,2.3,0.6,3.6
		c0,2.8-0.8,5-2.4,6.5c-1.6,1.5-4,2.3-7.2,2.3c-3.2,0-5.6-0.8-7.2-2.3c-1.6-1.5-2.4-3.7-2.4-6.5c0-1.3,0.2-2.5,0.6-3.6s1-2,1.8-2.8
		c0.8-0.8,1.8-1.4,3-1.8C41,21.4,42.4,21.2,44.1,21.2z M44.1,24.3c-0.9,0-1.7,0.2-2.3,0.5c-0.6,0.3-1.2,0.7-1.6,1.3
		c-0.4,0.5-0.7,1.1-0.9,1.8c-0.2,0.7-0.3,1.4-0.3,2.1c0,0.7,0.1,1.4,0.3,2.1c0.2,0.7,0.5,1.3,0.9,1.8c0.4,0.5,0.9,0.9,1.6,1.2
		c0.6,0.3,1.4,0.5,2.3,0.5c0.9,0,1.7-0.2,2.3-0.5c0.6-0.3,1.2-0.7,1.6-1.2c0.4-0.5,0.7-1.1,0.9-1.8c0.2-0.7,0.3-1.4,0.3-2.1
		c0-0.7-0.1-1.4-0.3-2.1c-0.2-0.7-0.5-1.3-0.9-1.8c-0.4-0.5-0.9-0.9-1.6-1.3C45.7,24.5,45,24.3,44.1,24.3z"/>
	<path id="XMLID_21_" d="M57.4,26.3c0.1-0.7,0.3-1.4,0.7-2c0.4-0.6,0.9-1.2,1.6-1.7c0.7-0.5,1.5-0.8,2.5-1.1c1-0.3,2.1-0.4,3.4-0.4
		c1.5,0,2.8,0.2,3.9,0.5c1,0.3,1.9,0.8,2.5,1.4s1.1,1.4,1.3,2.2c0.3,0.9,0.4,1.8,0.4,2.9v7.7c0,0.5,0,1,0,1.3c0,0.3,0.1,0.6,0.1,0.8
		c0,0.2,0.1,0.4,0.1,0.4h-4.1c0-0.1-0.1-0.2-0.1-0.4c0-0.2-0.1-0.4-0.1-0.7c0-0.3,0-0.7,0-1.2c-0.2,0.4-0.5,0.8-0.9,1.1
		c-0.4,0.3-0.8,0.6-1.3,0.9c-0.5,0.2-1,0.4-1.6,0.6c-0.6,0.1-1.1,0.2-1.7,0.2c-1,0-1.9-0.1-2.8-0.3s-1.8-0.5-2.5-0.9
		c-0.7-0.4-1.4-1-1.8-1.6c-0.5-0.7-0.7-1.5-0.7-2.5c0-0.9,0.2-1.7,0.7-2.3c0.5-0.7,1.1-1.2,1.8-1.6c0.7-0.4,1.6-0.8,2.5-1
		c0.9-0.2,1.8-0.3,2.7-0.4l5.2-0.2v-0.8c0-1-0.3-1.7-0.9-2.2c-0.6-0.5-1.5-0.7-2.7-0.7c-1,0-1.8,0.2-2.5,0.6
		c-0.7,0.4-1.1,0.9-1.1,1.5L57.4,26.3z M69.3,31.1l-5,0.2c-1.2,0-2,0.3-2.6,0.7c-0.6,0.4-0.8,0.9-0.8,1.6c0,0.5,0.3,1,1,1.3
		c0.6,0.4,1.5,0.5,2.5,0.5c0.7,0,1.4-0.1,2-0.3c0.6-0.2,1.1-0.5,1.6-0.9c0.4-0.4,0.8-0.8,1-1.2c0.2-0.5,0.4-1,0.4-1.5V31.1z"/>
	<path id="XMLID_24_" d="M91.5,36.5c-0.3,0.4-0.8,0.8-1.3,1.1c-0.5,0.3-1,0.6-1.7,0.8c-0.7,0.2-1.5,0.3-2.5,0.3
		c-2.9,0-5.1-0.8-6.7-2.3c-1.6-1.5-2.4-3.7-2.4-6.5c0-1.3,0.2-2.5,0.6-3.6s1-2,1.8-2.8c0.8-0.8,1.8-1.4,3-1.8
		c1.2-0.4,2.7-0.6,4.3-0.6c0.4,0,0.8,0,1.2,0.1c0.4,0.1,0.9,0.2,1.3,0.4c0.4,0.2,0.9,0.4,1.2,0.6s0.7,0.5,1,0.8v-8.6h4.5v23.9h-4.3
		V36.5z M86.5,24.3c-0.9,0-1.7,0.2-2.3,0.5s-1.2,0.7-1.6,1.3c-0.4,0.5-0.7,1.1-0.9,1.8s-0.3,1.4-0.3,2.1c0,0.7,0.1,1.4,0.3,2.1
		c0.2,0.7,0.5,1.3,0.9,1.8c0.4,0.5,0.9,0.9,1.6,1.2c0.6,0.3,1.4,0.5,2.3,0.5c0.8,0,1.5-0.2,2.2-0.5c0.6-0.3,1.1-0.7,1.5-1.2
		s0.7-1,0.9-1.6c0.2-0.6,0.3-1.2,0.3-1.8v-0.7c0-0.7-0.1-1.4-0.3-2c-0.2-0.6-0.5-1.2-0.9-1.7c-0.4-0.5-0.9-0.9-1.5-1.2
		S87.3,24.3,86.5,24.3z"/>
	<path id="XMLID_27_" d="M99.7,18.2v-4.1h4.8v4.1H99.7z M99.8,38.4v-17h4.6v17H99.8z"/>
	<path id="XMLID_30_" d="M112.9,21.5v1.7c0.6-0.7,1.5-1.2,2.4-1.5c1-0.3,1.9-0.5,2.8-0.5c2.6,0,4.7,0.5,6.2,1.5s2.3,2.6,2.3,4.8v11
		h-4.6V27.6c0-0.5-0.1-1-0.4-1.4c-0.2-0.4-0.6-0.7-1-1s-0.9-0.5-1.5-0.6c-0.6-0.1-1.1-0.2-1.8-0.2c-1.3,0-2.4,0.3-3.3,1
		c-0.9,0.6-1.3,1.5-1.3,2.7v10.4h-4.6v-17H112.9z"/>
	<path id="XMLID_32_" d="M144.2,36.6c-0.4,0.4-0.8,0.8-1.3,1.1c-0.4,0.3-1,0.5-1.6,0.7c-0.6,0.2-1.4,0.3-2.2,0.3
		c-1.6,0-3-0.2-4.2-0.7c-1.2-0.4-2.2-1-2.9-1.8c-0.8-0.8-1.3-1.7-1.7-2.8c-0.4-1.1-0.6-2.3-0.6-3.6c0-1.4,0.2-2.6,0.7-3.7
		s1.1-2,1.9-2.8c0.8-0.8,1.8-1.3,3-1.7c1.2-0.4,2.5-0.6,3.9-0.6c0.9,0,1.6,0.1,2.3,0.3c0.6,0.2,1.2,0.5,1.6,0.7
		c0.5,0.3,0.9,0.6,1.3,1v-1.7h4.4v17.3c0,1.1-0.2,2.1-0.7,2.9c-0.4,0.9-1.1,1.6-1.9,2.2s-1.8,1.1-2.8,1.4c-1.1,0.3-2.3,0.5-3.6,0.5
		c-1.4,0-2.6-0.1-3.7-0.3c-1.1-0.2-2.1-0.5-2.9-1s-1.4-1-1.9-1.7s-0.7-1.5-0.7-2.5h4.9c0.1,0.6,0.5,1.1,1.2,1.4
		c0.7,0.4,1.6,0.6,2.7,0.6c1.5,0,2.7-0.3,3.6-0.9c0.9-0.6,1.3-1.5,1.3-2.7V36.6z M139.4,24.3c-0.8,0-1.6,0.1-2.2,0.4
		c-0.6,0.3-1.2,0.7-1.6,1.2c-0.4,0.5-0.7,1.1-0.9,1.8s-0.3,1.4-0.3,2.2c0,0.8,0.1,1.5,0.3,2.2c0.2,0.7,0.5,1.3,0.9,1.8
		c0.4,0.5,1,0.9,1.6,1.2c0.6,0.3,1.4,0.4,2.2,0.4c0.9,0,1.6-0.2,2.2-0.5c0.6-0.3,1.1-0.7,1.5-1.3c0.4-0.5,0.7-1.1,0.8-1.8
		c0.2-0.7,0.3-1.3,0.3-2s-0.1-1.3-0.3-2c-0.2-0.7-0.5-1.3-0.8-1.8c-0.4-0.5-0.9-1-1.5-1.3C141,24.5,140.3,24.3,139.4,24.3z"/>
	<path id="XMLID_35_" d="M159.6,38.4h-5.5v-4.6h5.5V38.4z"/>
	<path id="XMLID_37_" d="M171.8,38.4h-5.5v-4.6h5.5V38.4z"/>
	<path id="XMLID_39_" d="M184.1,38.4h-5.5v-4.6h5.5V38.4z"/>
</g>
</svg>
