<?xml version="1.0" encoding="utf-8"?>
<!-- Generator: Adobe Illustrator 16.0.0, SVG Export Plug-In . SVG Version: 6.00 Build 0)  -->
<!DOCTYPE svg PUBLIC "-//W3C//DTD SVG 1.1//EN" "http://www.w3.org/Graphics/SVG/1.1/DTD/svg11.dtd">
<svg version="1.1" id="Layer_1" xmlns="http://www.w3.org/2000/svg" xmlns:xlink="http://www.w3.org/1999/xlink" x="0px" y="0px"
	 width="25px" height="25px" viewBox="0 0 25 25" enable-background="new 0 0 25 25" xml:space="preserve">
<path d="M12.5,0.685c-2.966,0-5.371,2.405-5.371,5.371v14.231c0,2.223,1.806,4.027,4.028,4.027c2.222,0,4.029-1.805,4.029-4.027
	v-3.088V7.13c0-1.479-1.207-2.686-2.686-2.686c-1.478,0-2.685,1.207-2.685,2.686v10.741c-0.004,0.297,0.233,0.539,0.529,0.545
	c0.297,0.004,0.541-0.234,0.545-0.529v-0.016V7.13c0-0.902,0.709-1.612,1.611-1.612c0.902,0,1.611,0.71,1.611,1.612v10.069v3.088
	c0,1.646-1.309,2.953-2.955,2.953c-1.645,0-2.953-1.307-2.953-2.953V6.056c0-2.39,1.906-4.297,4.296-4.297
	c2.391,0,4.296,1.907,4.296,4.297v12.889c-0.004,0.295,0.233,0.539,0.53,0.543c0.297,0.006,0.539-0.23,0.545-0.527v-0.016V6.056
	C17.871,3.09,15.466,0.685,12.5,0.685"/>
</svg>
