<?xml version="1.0" encoding="utf-8"?>
<!-- Generator: Adobe Illustrator 16.0.0, SVG Export Plug-In . SVG Version: 6.00 Build 0)  -->
<!DOCTYPE svg PUBLIC "-//W3C//DTD SVG 1.1//EN" "http://www.w3.org/Graphics/SVG/1.1/DTD/svg11.dtd">
<svg version="1.1" id="Layer_1" xmlns="http://www.w3.org/2000/svg" xmlns:xlink="http://www.w3.org/1999/xlink" x="0px" y="0px"
	 width="60px" height="50px" viewBox="0 0 60 50" enable-background="new 0 0 60 50" xml:space="preserve">
<g>
	<path fill="#FFFFFF" d="M43.276,16.823h3.413c0.188,0,0.333-0.146,0.333-0.333c0-0.188-0.146-0.333-0.333-0.333h-3.413
		c-0.187,0-0.333,0.146-0.333,0.333C42.943,16.677,43.09,16.823,43.276,16.823"/>
	<path fill="#FFFFFF" d="M43.276,10.705h1.021v1.04l-1.207,0.833c-0.146,0.104-0.188,0.312-0.084,0.479
		c0.104,0.146,0.312,0.187,0.479,0.083l0.957-0.665c0.229,0.457,0.688,0.749,1.229,0.749c0.748,0,1.373-0.625,1.373-1.374v-1.498
		c0-0.125-0.062-0.229-0.146-0.291c-0.063-0.042-0.125-0.063-0.187-0.063H44.67h-1.352c-0.188,0-0.333,0.146-0.333,0.333
		C42.943,10.56,43.09,10.705,43.276,10.705 M46.336,11.87c0,0.375-0.312,0.688-0.688,0.688s-0.688-0.312-0.688-0.688v-1.165h1.354
		L46.336,11.87z"/>
	<path fill="#FFFFFF" d="M46.689,25.771c-0.188,0-0.334,0.146-0.334,0.333v1.019h-3.059c-0.188,0-0.333,0.146-0.333,0.333
		c0,0.188,0.146,0.333,0.333,0.333h3.059v1.041c0,0.188,0.146,0.333,0.334,0.333c0.187,0,0.332-0.146,0.332-0.333v-1.374v-1.352
		C47.021,25.916,46.876,25.771,46.689,25.771"/>
	<path fill="#FFFFFF" d="M44.982,19.694c-1.145,0-2.08,0.936-2.08,2.081c0,1.144,0.936,2.081,2.08,2.081
		c1.146,0,2.082-0.938,2.082-2.081C47.064,20.63,46.128,19.694,44.982,19.694 M44.982,23.169c-0.77,0-1.394-0.624-1.394-1.394
		c0-0.771,0.624-1.395,1.394-1.395c0.771,0,1.395,0.624,1.395,1.395C46.377,22.545,45.753,23.169,44.982,23.169"/>
	<path fill="#FFFFFF" d="M46.918,32.699c-0.062-0.062-0.125-0.083-0.229-0.083h-3.434c-0.084,0-0.146,0.021-0.229,0.083
		c-0.063,0.062-0.084,0.125-0.084,0.229c0,0.083,0.021,0.146,0.084,0.229c0.062,0.083,0.125,0.083,0.229,0.083h3.434
		c0.062,0,0.146-0.021,0.229-0.083c0.062-0.063,0.083-0.125,0.083-0.229C47.001,32.845,46.98,32.761,46.918,32.699"/>
	<path fill="#FFFFFF" d="M47.001,36.507v-0.042c0-0.083-0.021-0.166-0.083-0.229c-0.062-0.062-0.125-0.083-0.229-0.083h-3.434
		c-0.062,0-0.146,0-0.229,0.063c-0.063,0.062-0.084,0.124-0.084,0.229s0.021,0.146,0.084,0.229c0.062,0.083,0.125,0.083,0.229,0.083
		h2.518l-1.52,1.019c-0.083,0.084-0.124,0.167-0.124,0.271c0,0.104,0.062,0.208,0.146,0.27l1.519,1.041h-2.519
		c-0.062,0-0.145,0.021-0.228,0.083c-0.063,0.062-0.084,0.125-0.084,0.229c0,0.104,0.021,0.146,0.084,0.229
		c0.062,0.083,0.124,0.083,0.228,0.083h3.414c0.082,0,0.145-0.021,0.229-0.083c0.083-0.062,0.083-0.125,0.083-0.229v-0.042
		c0-0.104-0.021-0.229-0.146-0.291l-1.914-1.27l1.914-1.27C46.939,36.735,47.001,36.632,47.001,36.507"/>
	<path fill="#FFFFFF" d="M44.754,30.431c0.062,0,0.125,0.021,0.188,0.083c0.041,0.042,0.084,0.104,0.084,0.188
		c0,0.062-0.021,0.124-0.084,0.187c-0.041,0.041-0.104,0.083-0.188,0.083H44.65c-0.063,0-0.125-0.021-0.188-0.083
		c-0.041-0.042-0.083-0.104-0.083-0.187c0-0.084,0.021-0.146,0.083-0.188c0.042-0.041,0.104-0.083,0.188-0.083H44.754z"/>
	<path fill="#FFFFFF" d="M25.777,10.039h-8.552c-2.372,0-4.286,1.914-4.286,4.286v21.392c0,2.372,1.914,4.286,4.286,4.286
		c2.372,0,4.286-1.914,4.286-4.286V31.43h4.287c5.909,0,10.695-4.786,10.695-10.695S31.666,10.039,25.777,10.039"/>
	<path fill="#939393" d="M14.767,10.828c1.935-1.345,4.593-0.867,5.937,1.068c1.345,1.934,0.867,4.592-1.067,5.937
		c-1.934,1.345-4.593,0.867-5.937-1.068C12.355,14.831,12.833,12.173,14.767,10.828"/>
	<path fill="#939393" d="M35.702,33.24c1.354,1.935,0.896,4.599-1.061,5.95c-1.956,1.354-4.599,0.896-5.951-1.061l-6.409-9.155
		c-1.352-1.935-0.874-4.599,1.061-5.951s4.599-0.874,5.951,1.062L35.702,33.24z"/>
</g>
</svg>
