<?xml version="1.0" encoding="utf-8"?>
<!-- Generator: Adobe Illustrator 19.0.0, SVG Export Plug-In . SVG Version: 6.00 Build 0)  -->
<svg version="1.1" id="Layer_1" focusable="false" xmlns="http://www.w3.org/2000/svg" xmlns:xlink="http://www.w3.org/1999/xlink"
	 x="0px" y="0px" viewBox="-228 42.3 384 512" style="enable-background:new -228 42.3 384 512;" xml:space="preserve">
<path d="M86,80.3v20H57.8H15.7l4.3,41.9l12.2,118.3l2.2,21.5L54,291c19.8,9.2,36.1,21.4,47.4,35.4c7.6,9.5,12.7,19.5,15,29.9H-4h-38
	h-26h-120.4c2.4-10.3,7.3-20.3,14.9-29.7c11.3-14.1,27.7-26.4,47.5-35.6l19.6-9.1l2.2-21.5L-92,142.2l4.3-41.9h-42.1H-158v-20H86
	 M100,42.3h-272c-13.3,0-24,10.7-24,24v48c0,13.3,10.7,24,24,24h42.2L-142,256.5c-48.5,22.6-86,63-86,113.7c0,13.3,10.7,24,24,24
	h136v104c0,1.2,0.3,2.5,0.8,3.6l24,48c1.5,2.9,4.3,4.4,7.2,4.4c2.8,0,5.7-1.5,7.2-4.4l24-48c0.6-1.1,0.8-2.3,0.8-3.6v-104h136
	c13.3,0,24-10.7,24-24c0-51.2-38-91.4-86-113.7L57.8,138.3H100c13.3,0,24-10.7,24-24v-48C124,53,113.3,42.3,100,42.3L100,42.3z"/>
</svg>
