<?xml version="1.0" encoding="utf-8"?><svg xmlns="http://www.w3.org/2000/svg" xmlns:xlink="http://www.w3.org/1999/xlink"><symbol fill="none" viewBox="0 0 14 9" id="arrowUp" xmlns="http://www.w3.org/2000/svg"><path d="M12.293 8.707a1 1 0 101.414-1.414l-1.414 1.414zM7 2l.707-.707L7 .586l-.707.707L7 2zM.293 7.293a1 1 0 001.414 1.414L.293 7.293zm13.414 0l-6-6-1.414 1.414 6 6 1.414-1.414zm-7.414-6l-6 6 1.414 1.414 6-6-1.414-1.414z" fill="#5B13F4"/></symbol><symbol fill="none" viewBox="0 0 24 24" id="close" xmlns="http://www.w3.org/2000/svg"><path d="M18 6L6 18M6 6l12 12" stroke="#000" stroke-width="2" stroke-linecap="round" stroke-linejoin="round"/></symbol><symbol fill="none" viewBox="0 0 24 24" id="dropdown" xmlns="http://www.w3.org/2000/svg"><path d="M11.808 16.77l-3.715-4.458A.8.8 0 018.708 11h6.584a.8.8 0 01.614 1.312l-3.714 4.458a.25.25 0 01-.384 0z" fill="#000"/></symbol><symbol fill="none" viewBox="0 0 24 24" id="file" xmlns="http://www.w3.org/2000/svg"><path d="M13 7V3H9c-1.886 0-2.828 0-3.414.586C5 4.172 5 5.114 5 7v10c0 1.886 0 2.828.586 3.414C6.172 21 7.114 21 9 21h6c1.886 0 2.828 0 3.414-.586C19 19.828 19 18.886 19 17V9h-4c-.943 0-1.414 0-1.707-.293C13 8.414 13 7.943 13 7z" fill="#E2D5FF"/><path d="M13.172 3H9c-1.886 0-2.828 0-3.414.586C5 4.172 5 5.114 5 7v10c0 1.886 0 2.828.586 3.414C6.172 21 7.114 21 9 21h6c1.886 0 2.828 0 3.414-.586C19 19.828 19 18.886 19 17V8.828c0-.408 0-.613-.076-.796-.076-.184-.22-.329-.51-.618l-3.828-3.828c-.29-.29-.434-.434-.617-.51C13.785 3 13.58 3 13.171 3z" stroke="#5B13F4" stroke-width="1.2"/><path d="M9 13h6M9 17h4" stroke="#5B13F4" stroke-width="1.2" stroke-linecap="round"/><path d="M13 3v4c0 .943 0 1.414.293 1.707C13.586 9 14.057 9 15 9h4" stroke="#5B13F4" stroke-width="1.2"/></symbol><symbol fill="none" viewBox="0 0 24 24" id="import" xmlns="http://www.w3.org/2000/svg"><path d="M12 14.572l-.707.707.707.707.707-.707-.707-.707zM13 3a1 1 0 10-2 0h2zM4.864 8.85l6.429 6.429 1.414-1.415L6.28 7.436 4.864 8.85zm7.843 6.429l6.429-6.429-1.415-1.414-6.428 6.428 1.414 1.415zm.293-.707V3h-2v11.572h2z" fill="#5B13F4"/><path d="M3 17.143v1.285A2.571 2.571 0 005.571 21H18.43A2.571 2.571 0 0021 18.428v-1.285" stroke="#5B13F4" stroke-width="2"/></symbol><symbol fill="none" viewBox="0 0 24 24" id="menu" xmlns="http://www.w3.org/2000/svg"><path d="M5 7h14M5 12h14M5 17h14" stroke="#000" stroke-linecap="round"/></symbol><symbol id="metamask" viewBox="0 0 318.6 318.6" xml:space="preserve" xmlns="http://www.w3.org/2000/svg"><style>.gst0{fill:#e2761b;stroke:#e2761b;stroke-linecap:round;stroke-linejoin:round}.gst1,.gst2,.gst3,.gst4,.gst5,.gst6,.gst7,.gst8,.gst9{fill:#e4761b;stroke:#e4761b;stroke-linecap:round;stroke-linejoin:round}.gst2,.gst3,.gst4,.gst5,.gst6,.gst7,.gst8,.gst9{fill:#d7c1b3;stroke:#d7c1b3}.gst3,.gst4,.gst5,.gst6,.gst7,.gst8,.gst9{fill:#233447;stroke:#233447}.gst4,.gst5,.gst6,.gst7,.gst8,.gst9{fill:#cd6116;stroke:#cd6116}.gst5,.gst6,.gst7,.gst8,.gst9{fill:#e4751f;stroke:#e4751f}.gst6,.gst7,.gst8,.gst9{fill:#f6851b;stroke:#f6851b}.gst7,.gst8,.gst9{fill:#c0ad9e;stroke:#c0ad9e}.gst8,.gst9{fill:#161616;stroke:#161616}.gst9{fill:#763d16;stroke:#763d16}</style><path class="gst0" d="M274.1 35.5l-99.5 73.9L193 65.8z"/><path class="gst1" d="M44.4 35.5l98.7 74.6-17.5-44.3zM238.3 206.8l-26.5 40.6 56.7 15.6 16.3-55.3zM33.9 207.7L50.1 263l56.7-15.6-26.5-40.6z"/><path class="gst1" d="M103.6 138.2l-15.8 23.9 56.3 2.5-2-60.5zM214.9 138.2l-39-34.8-1.3 61.2 56.2-2.5zM106.8 247.4l33.8-16.5-29.2-22.8zM177.9 230.9l33.9 16.5-4.7-39.3z"/><path class="gst2" d="M211.8 247.4l-33.9-16.5 2.7 22.1-.3 9.3zM106.8 247.4l31.5 14.9-.2-9.3 2.5-22.1z"/><path class="gst3" d="M138.8 193.5l-28.2-8.3 19.9-9.1zM179.7 193.5l8.3-17.4 20 9.1z"/><path class="gst4" d="M106.8 247.4l4.8-40.6-31.3.9zM207 206.8l4.8 40.6 26.5-39.7zM230.8 162.1l-56.2 2.5 5.2 28.9 8.3-17.4 20 9.1zM110.6 185.2l20-9.1 8.2 17.4 5.3-28.9-56.3-2.5z"/><g><path class="gst5" d="M87.8 162.1l23.6 46-.8-22.9zM208.1 185.2l-1 22.9 23.7-46zM144.1 164.6l-5.3 28.9 6.6 34.1 1.5-44.9zM174.6 164.6l-2.7 18 1.2 45 6.7-34.1z"/></g><path class="gst6" d="M179.8 193.5l-6.7 34.1 4.8 3.3 29.2-22.8 1-22.9zM110.6 185.2l.8 22.9 29.2 22.8 4.8-3.3-6.6-34.1z"/><path class="gst7" d="M180.3 262.3l.3-9.3-2.5-2.2h-37.7l-2.3 2.2.2 9.3-31.5-14.9 11 9 22.3 15.5h38.3l22.4-15.5 11-9z"/><path class="gst8" d="M177.9 230.9l-4.8-3.3h-27.7l-4.8 3.3-2.5 22.1 2.3-2.2h37.7l2.5 2.2z"/><g><path class="gst9" d="M278.3 114.2l8.5-40.8-12.7-37.9-96.2 71.4 37 31.3 52.3 15.3 11.6-13.5-5-3.6 8-7.3-6.2-4.8 8-6.1zM31.8 73.4l8.5 40.8-5.4 4 8 6.1-6.1 4.8 8 7.3-5 3.6 11.5 13.5 52.3-15.3 37-31.3-96.2-71.4z"/></g><path class="gst6" d="M267.2 153.5l-52.3-15.3 15.9 23.9-23.7 46 31.2-.4h46.5zM103.6 138.2l-52.3 15.3-17.4 54.2h46.4l31.1.4-23.6-46zM174.6 164.6l3.3-57.7 15.2-41.1h-67.5l15 41.1 3.5 57.7 1.2 18.2.1 44.8h27.7l.2-44.8z"/></symbol><symbol fill="none" viewBox="0 0 24 24" id="music" xmlns="http://www.w3.org/2000/svg"><path d="M6.694 20.461l.296-.06c.38-.075.571-.113.731-.175a2 2 0 001.25-1.524C9 18.532 9 18.338 9 17.95V16H6.252c-.234 0-.351 0-.45.01a2 2 0 00-1.792 1.792c-.01.099-.01.216-.01.45 0 .28 0 .42.012.531a2 2 0 002.16 1.77c.11-.01.248-.037.522-.092zM16.694 18.461l.296-.06c.38-.075.571-.113.732-.175a2 2 0 001.249-1.524c.029-.17.029-.364.029-.752V14h-2.747c-.235 0-.352 0-.451.01a2 2 0 00-1.792 1.792c-.01.099-.01.216-.01.45 0 .28 0 .42.012.531a2 2 0 002.16 1.77c.11-.01.248-.037.522-.092z" fill="#E2D5FF"/><path d="M6.694 20.461l.296-.06c.38-.075.571-.113.731-.175a2 2 0 001.25-1.524C9 18.532 9 18.338 9 17.95V16H6.252c-.234 0-.351 0-.45.01a2 2 0 00-1.792 1.792c-.01.099-.01.216-.01.45 0 .28 0 .42.012.531a2 2 0 002.16 1.77c.11-.01.248-.037.522-.092zM16.694 18.461l.296-.06c.38-.075.571-.113.732-.175a2 2 0 001.249-1.524c.029-.17.029-.364.029-.752V14h-2.747c-.235 0-.352 0-.451.01a2 2 0 00-1.792 1.792c-.01.099-.01.216-.01.45 0 .28 0 .42.012.531a2 2 0 002.16 1.77c.11-.01.248-.037.522-.092z" stroke="#fff" stroke-width="1.2"/><path d="M9 16H6.252c-.234 0-.351 0-.45.01a2 2 0 00-1.792 1.792c-.01.099-.01.216-.01.45v0c0 .28 0 .42.012.531a2 2 0 002.16 1.77c.11-.01.248-.037.522-.092l.296-.06c.38-.075.571-.113.731-.175a2 2 0 001.25-1.524C9 18.532 9 18.338 9 17.95V9.28c0-1.57 0-2.355.453-2.908.454-.553 1.223-.707 2.763-1.015l2-.4c2.213-.443 3.32-.664 4.052-.064.732.6.732 1.729.732 3.986V9m0 5v1.95c0 .389 0 .582-.03.752a2 2 0 01-1.248 1.524c-.161.062-.351.1-.732.176l-.296.06c-.274.054-.411.082-.523.091a2 2 0 01-2.159-1.77c-.012-.11-.012-.25-.012-.53v0c0-.235 0-.352.01-.451a2 2 0 011.792-1.792c.099-.01.216-.01.45-.01H19zm0 0V9m0 0L9 11" stroke="#5B13F4" stroke-width="1.2"/></symbol><symbol fill="none" viewBox="0 0 24 24" id="options" xmlns="http://www.w3.org/2000/svg"><path d="M12 6a2 2 0 100-4 2 2 0 000 4zM12 14a2 2 0 100-4 2 2 0 000 4zM12 22a2 2 0 100-4 2 2 0 000 4z" fill="#888"/></symbol><symbol fill="none" viewBox="0 0 24 24" id="picture" xmlns="http://www.w3.org/2000/svg"><mask id="ja" style="mask-type:alpha" maskUnits="userSpaceOnUse" x="3" y="3" width="18" height="18"><path d="M3 11c0-3.771 0-5.657 1.172-6.828C5.343 3 7.229 3 11 3h2c3.771 0 5.657 0 6.828 1.172C21 5.343 21 7.229 21 11v2c0 3.771 0 5.657-1.172 6.828C18.657 21 16.771 21 13 21h-2c-3.771 0-5.657 0-6.828-1.172C3 18.657 3 16.771 3 13v-2z" fill="#273B4A"/></mask><g mask="url(#ja)"><path d="M5.41 12.59l-.153.153c-.98.98-1.47 1.47-1.764 2.073-.102.209-.186.427-.25.65-.185.644-.148 1.337-.075 2.722L3.5 24.5H21v-4.743c0-1.451 0-2.177-.239-2.836a3.994 3.994 0 00-.233-.525c-.33-.619-.87-1.104-1.95-2.075l-.214-.193c-.896-.807-1.344-1.21-1.856-1.324a1.999 1.999 0 00-.973.025c-.505.141-.932.568-1.784 1.42-.633.633-.949.949-1.288.992a1 1 0 01-.61-.118c-.3-.166-.479-.583-.836-1.418-.761-1.775-1.141-2.662-1.795-2.99a2 2 0 00-1.065-.205c-.729.062-1.401.735-2.747 2.08h0z" fill="#E2D5FF" stroke="#5B13F4"/></g><path d="M3 11c0-3.771 0-5.657 1.172-6.828C5.343 3 7.229 3 11 3h2c3.771 0 5.657 0 6.828 1.172C21 5.343 21 7.229 21 11v2c0 3.771 0 5.657-1.172 6.828C18.657 21 16.771 21 13 21h-2c-3.771 0-5.657 0-6.828-1.172C3 18.657 3 16.771 3 13v-2z" stroke="#5B13F4" stroke-width="1.2"/><circle cx="16.5" cy="7.5" r="1.5" fill="#5B13F4"/></symbol><symbol fill="none" viewBox="0 0 24 24" id="video" xmlns="http://www.w3.org/2000/svg"><path fill-rule="evenodd" clip-rule="evenodd" d="M12 21a9 9 0 100-18 9 9 0 000 18zM9.737 7.868l6.474 3.238a1 1 0 010 1.789l-6.474 3.237A1.2 1.2 0 018 15.058V8.943a1.2 1.2 0 011.737-1.074z" fill="#E2D5FF"/><path d="M9.737 16.132l.268.536-.268-.536zm.268-8.8l6.475 3.237-.537 1.073-6.475-3.237.537-1.073zm6.475 6.1l-6.475 3.236-.537-1.073 6.475-3.237.537 1.073zM8.6 8.941v6.116H7.4V8.942h1.2zm1.405 7.726a1.8 1.8 0 01-2.605-1.61h1.2a.6.6 0 00.868.537l.537 1.073zm6.475-6.1c1.179.59 1.179 2.273 0 2.863l-.537-1.073a.4.4 0 000-.716l.537-1.073zM9.468 8.406a.6.6 0 00-.868.537H7.4a1.8 1.8 0 012.605-1.61l-.537 1.073z" fill="#5B13F4"/><circle cx="12" cy="12" r="9" stroke="#5B13F4" stroke-width="1.2"/></symbol></svg>