<?xml version="1.0" encoding="utf-8"?><svg xmlns="http://www.w3.org/2000/svg" xmlns:xlink="http://www.w3.org/1999/xlink"><symbol fill="none" viewBox="0 0 24 24" id="add" xmlns="http://www.w3.org/2000/svg"><path fill-rule="evenodd" clip-rule="evenodd" d="M12.005 22a9.58 9.58 0 003.86-.787 10.248 10.248 0 005.353-5.353A9.621 9.621 0 0022 11.995a9.579 9.579 0 00-.787-3.86 10.31 10.31 0 00-2.167-3.196 10.06 10.06 0 00-3.191-2.162A9.687 9.687 0 0011.995 2a9.65 9.65 0 00-3.855.777A10.136 10.136 0 004.949 4.94a10.192 10.192 0 00-2.167 3.196A9.632 9.632 0 002 11.995c0 1.372.262 2.66.787 3.865a10.263 10.263 0 002.167 3.186c.92.92 1.982 1.642 3.186 2.167a9.568 9.568 0 003.865.787zm0-1.832a8.011 8.011 0 01-3.18-.633A8.201 8.201 0 016.22 17.78a8.131 8.131 0 01-1.75-2.605 8.07 8.07 0 01-.627-3.18c0-1.132.209-2.193.627-3.18A8.147 8.147 0 018.82 4.46a8.032 8.032 0 013.176-.629 8.07 8.07 0 013.18.628 8.131 8.131 0 012.605 1.75 8.201 8.201 0 011.755 2.604c.422.988.633 2.049.633 3.18a7.888 7.888 0 01-.623 3.181 8.245 8.245 0 01-1.75 2.605 8.126 8.126 0 01-2.604 1.755 8.048 8.048 0 01-3.186.633zm-4.272-7.56a.82.82 0 01-.247-.613c0-.26.083-.474.247-.638a.85.85 0 01.628-.247h2.759V8.35c0-.26.08-.472.242-.633a.83.83 0 01.612-.242c.261 0 .474.08.639.242a.847.847 0 01.247.633v2.759h2.768a.85.85 0 01.628.247.864.864 0 01.247.638.82.82 0 01-.247.612.86.86 0 01-.628.242H12.86v2.77c0 .26-.083.47-.247.627a.885.885 0 01-.639.237.83.83 0 01-.612-.242.843.843 0 01-.242-.623V12.85H8.36a.86.86 0 01-.628-.242z" fill="#5B13F4"/></symbol><symbol fill="none" viewBox="0 0 14 9" id="arrowUp" xmlns="http://www.w3.org/2000/svg"><path d="M12.293 8.707a1 1 0 101.414-1.414l-1.414 1.414zM7 2l.707-.707L7 .586l-.707.707L7 2zM.293 7.293a1 1 0 001.414 1.414L.293 7.293zm13.414 0l-6-6-1.414 1.414 6 6 1.414-1.414zm-7.414-6l-6 6 1.414 1.414 6-6-1.414-1.414z" fill="#5B13F4"/></symbol><symbol fill="none" viewBox="0 0 24 24" id="checkmark" xmlns="http://www.w3.org/2000/svg"><path d="M5 14l3.233 2.425a1 1 0 001.374-.167L18 6" stroke="#1ABB00" stroke-width="2" stroke-linecap="round"/></symbol><symbol fill="none" viewBox="0 0 24 24" id="close" xmlns="http://www.w3.org/2000/svg"><path d="M18 6L6 18M6 6l12 12" stroke="#000" stroke-width="2" stroke-linecap="round" stroke-linejoin="round"/></symbol><symbol fill="none" viewBox="0 0 24 24" id="dropdown" xmlns="http://www.w3.org/2000/svg"><path d="M11.808 16.77l-3.715-4.458A.8.8 0 018.708 11h6.584a.8.8 0 01.614 1.312l-3.714 4.458a.25.25 0 01-.384 0z" fill="#000"/></symbol><symbol fill="none" viewBox="0 0 24 24" id="file" xmlns="http://www.w3.org/2000/svg"><path d="M13 7V3H9c-1.886 0-2.828 0-3.414.586C5 4.172 5 5.114 5 7v10c0 1.886 0 2.828.586 3.414C6.172 21 7.114 21 9 21h6c1.886 0 2.828 0 3.414-.586C19 19.828 19 18.886 19 17V9h-4c-.943 0-1.414 0-1.707-.293C13 8.414 13 7.943 13 7z" fill="#E2D5FF"/><path d="M13.172 3H9c-1.886 0-2.828 0-3.414.586C5 4.172 5 5.114 5 7v10c0 1.886 0 2.828.586 3.414C6.172 21 7.114 21 9 21h6c1.886 0 2.828 0 3.414-.586C19 19.828 19 18.886 19 17V8.828c0-.408 0-.613-.076-.796-.076-.184-.22-.329-.51-.618l-3.828-3.828c-.29-.29-.434-.434-.617-.51C13.785 3 13.58 3 13.171 3z" stroke="#5B13F4" stroke-width="1.2"/><path d="M9 13h6M9 17h4" stroke="#5B13F4" stroke-width="1.2" stroke-linecap="round"/><path d="M13 3v4c0 .943 0 1.414.293 1.707C13.586 9 14.057 9 15 9h4" stroke="#5B13F4" stroke-width="1.2"/></symbol><symbol fill="none" viewBox="0 0 80 80" id="folder" xmlns="http://www.w3.org/2000/svg"><path d="M10 24.667c0-3.772 0-5.657 1.172-6.829 1.171-1.171 3.057-1.171 6.828-1.171h13.677c.817 0 1.226 0 1.593.152.368.152.657.441 1.235 1.02l8.828 8.828v10H10v-12z" fill="#D1BCFF"/><path d="M10 33.067c0-2.24 0-3.36.436-4.216a4 4 0 011.748-1.748c.856-.436 1.976-.436 4.216-.436h47.2c2.24 0 3.36 0 4.216.436a4 4 0 011.748 1.748c.436.855.436 1.976.436 4.216v23.866c0 2.24 0 3.36-.436 4.216a4 4 0 01-1.748 1.748c-.856.436-1.976.436-4.216.436H16.4c-2.24 0-3.36 0-4.216-.436a4 4 0 01-1.748-1.748C10 60.294 10 59.173 10 56.933V33.067z" fill="#5B13F4"/></symbol><symbol fill="none" viewBox="0 0 80 80" id="folderEncrypted" xmlns="http://www.w3.org/2000/svg"><path d="M10 24.667c0-3.772 0-5.657 1.172-6.829 1.171-1.171 3.057-1.171 6.828-1.171h13.677c.817 0 1.226 0 1.593.152.368.152.657.441 1.235 1.02l8.828 8.828v10H10v-12z" fill="#D1BCFF"/><path d="M10 33.067c0-2.24 0-3.36.436-4.216a4 4 0 011.748-1.748c.856-.436 1.976-.436 4.216-.436h47.2c2.24 0 3.36 0 4.216.436a4 4 0 011.748 1.748c.436.855.436 1.975.436 4.216v23.866c0 2.24 0 3.36-.436 4.216a4 4 0 01-1.748 1.748c-.856.436-1.976.436-4.216.436H16.4c-2.24 0-3.36 0-4.216-.436a4 4 0 01-1.748-1.748C10 60.294 10 59.173 10 56.933V33.067z" fill="#5B13F4"/><path d="M43.11 41.947v-.836A3.111 3.111 0 0040 38v0a3.111 3.111 0 00-3.111 3.111v.836" stroke="#fff" stroke-width="2" stroke-linecap="round"/><path fill-rule="evenodd" clip-rule="evenodd" d="M33.432 42.607C33 43.322 33 44.292 33 46.233c0 2.587 0 3.881.576 4.835a4 4 0 001.356 1.356c.954.576 2.248.576 4.835.576h.466c2.587 0 3.881 0 4.835-.576a4 4 0 001.356-1.356C47 50.114 47 48.82 47 46.233c0-1.94 0-2.91-.432-3.626a3 3 0 00-1.017-1.017c-.715-.432-1.686-.432-3.626-.432h-3.85c-1.94 0-2.91 0-3.626.432a3 3 0 00-1.017 1.017zM40 47.053c.156 0 .334-.137.334-.369 0-.231-.178-.368-.334-.368-.156 0-.333.137-.333.368 0 .232.177.369.333.369zm2.334-.369c0 .945-.546 1.761-1.334 2.141v1.807h-2v-1.807a2.372 2.372 0 01-1.333-2.14c0-1.309 1.045-2.369 2.333-2.369 1.289 0 2.334 1.06 2.334 2.368z" fill="#fff"/></symbol><symbol fill="none" viewBox="0 0 24 24" id="import" xmlns="http://www.w3.org/2000/svg"><path d="M12 14.572l-.707.707.707.707.707-.707-.707-.707zM13 3a1 1 0 10-2 0h2zM4.864 8.85l6.429 6.429 1.414-1.415L6.28 7.436 4.864 8.85zm7.843 6.429l6.429-6.429-1.415-1.414-6.428 6.428 1.414 1.415zm.293-.707V3h-2v11.572h2z" fill="#5B13F4"/><path d="M3 17.143v1.285A2.571 2.571 0 005.571 21H18.43A2.571 2.571 0 0021 18.428v-1.285" stroke="#5B13F4" stroke-width="2"/></symbol><symbol fill="none" viewBox="0 0 24 24" id="menu" xmlns="http://www.w3.org/2000/svg"><path d="M5 7h14M5 12h14M5 17h14" stroke="#000" stroke-linecap="round"/></symbol><symbol fill="none" viewBox="0 0 24 24" id="metamask" xmlns="http://www.w3.org/2000/svg"><path fill-rule="evenodd" clip-rule="evenodd" d="M7.294 20.383l2.882.779v-1.018l.236-.24h1.647v2.036h-1.765l-2.177-.958-.823-.599z" fill="#CDBDB2"/><path fill-rule="evenodd" clip-rule="evenodd" d="M16.706 20.383l-2.823.779v-1.018l-.236-.24H12v2.036h1.765l2.176-.958.765-.599z" fill="#CDBDB2"/><path fill-rule="evenodd" clip-rule="evenodd" d="M10.412 18.168l-.236 1.976.294-.24h3.06l.352.24-.235-1.976-.47-.3-2.354.06-.411.24z" fill="#393939"/><path fill-rule="evenodd" clip-rule="evenodd" d="M8.824 4.814l1.412 3.354.647 9.76h2.294l.706-9.76 1.294-3.354H8.824z" fill="#F89C35"/><path fill-rule="evenodd" clip-rule="evenodd" d="M2.647 12.18L1 17.03l4.118-.24h2.647v-2.096l-.118-4.31-.588.478-4.412 1.318z" fill="#F89D35"/><path fill-rule="evenodd" clip-rule="evenodd" d="M5.765 12.719l4.823.12-.53 2.514-2.293-.599-2-2.035z" fill="#D87C30"/><path fill-rule="evenodd" clip-rule="evenodd" d="M5.765 12.779l2 1.916v1.916l-2-3.832z" fill="#EA8D3A"/><path fill-rule="evenodd" clip-rule="evenodd" d="M7.765 14.755l2.353.598.764 2.575-.53.3-2.587-1.557v-1.916z" fill="#F89D35"/><path fill-rule="evenodd" clip-rule="evenodd" d="M7.765 16.67l-.471 3.713 3.118-2.215-2.647-1.497z" fill="#EB8F35"/><path fill-rule="evenodd" clip-rule="evenodd" d="M10.589 12.839l.294 5.09L10 15.323l.588-2.485z" fill="#EA8E3A"/><path fill-rule="evenodd" clip-rule="evenodd" d="M5.059 16.73l2.705-.06-.47 3.713-2.235-3.652z" fill="#D87C30"/><path fill-rule="evenodd" clip-rule="evenodd" d="M2.294 22l5-1.617-2.235-3.652-4.059.3L2.294 22z" fill="#EB8F35"/><path fill-rule="evenodd" clip-rule="evenodd" d="M10.235 8.168l-2.53 2.156-1.94 2.395 4.823.18-.353-4.731z" fill="#E8821E"/><path fill-rule="evenodd" clip-rule="evenodd" d="M7.294 20.383l3.118-2.215-.236 1.916v1.078l-2.117-.42-.765-.359zM16.706 20.383l-3.059-2.215.236 1.916v1.078l2.117-.42.706-.359z" fill="#DFCEC3"/><path fill-rule="evenodd" clip-rule="evenodd" d="M9.294 13.916l.647 1.378-2.294-.6 1.647-.778z" fill="#393939"/><path fill-rule="evenodd" clip-rule="evenodd" d="M2.235 2l8 6.168-1.352-3.354L2.235 2z" fill="#E88F35"/><path fill-rule="evenodd" clip-rule="evenodd" d="M2.235 2L1.176 5.293l.589 3.593-.412.24.588.539-.47.419.646.599-.411.359.94 1.197 4.413-1.377c2.157-1.756 3.215-2.654 3.176-2.694-.04-.04-2.706-2.096-8-6.168z" fill="#8E5A30"/><path fill-rule="evenodd" clip-rule="evenodd" d="M21.353 12.18L23 17.03l-4.118-.24h-2.647v-2.096l.118-4.31.588.478 4.412 1.318z" fill="#F89D35"/><path fill-rule="evenodd" clip-rule="evenodd" d="M18.235 12.719l-4.823.12.53 2.514 2.293-.599 2-2.035z" fill="#D87C30"/><path fill-rule="evenodd" clip-rule="evenodd" d="M18.235 12.779l-2 1.916v1.916l2-3.832z" fill="#EA8D3A"/><path fill-rule="evenodd" clip-rule="evenodd" d="M16.235 14.755l-2.353.598-.764 2.575.53.3 2.587-1.557v-1.916z" fill="#F89D35"/><path fill-rule="evenodd" clip-rule="evenodd" d="M16.235 16.67l.471 3.713-3.059-2.155 2.588-1.557z" fill="#EB8F35"/><path fill-rule="evenodd" clip-rule="evenodd" d="M13.412 12.839l-.294 5.09.882-2.605-.588-2.485z" fill="#EA8E3A"/><path fill-rule="evenodd" clip-rule="evenodd" d="M18.941 16.73l-2.706-.06.471 3.713 2.235-3.652z" fill="#D87C30"/><path fill-rule="evenodd" clip-rule="evenodd" d="M21.706 22l-5-1.617 2.235-3.652 4.059.3L21.706 22z" fill="#EB8F35"/><path fill-rule="evenodd" clip-rule="evenodd" d="M13.765 8.168l2.53 2.156 1.94 2.395-4.823.18.353-4.731z" fill="#E8821E"/><path fill-rule="evenodd" clip-rule="evenodd" d="M14.706 13.916l-.647 1.378 2.294-.6-1.647-.778z" fill="#393939"/><path fill-rule="evenodd" clip-rule="evenodd" d="M21.765 2l-8 6.168 1.353-3.354L21.765 2z" fill="#E88F35"/><path fill-rule="evenodd" clip-rule="evenodd" d="M21.765 2l1.059 3.293-.589 3.593.412.24-.588.539.47.419-.646.599.411.359-.94 1.197-4.413-1.377c-2.156-1.756-3.215-2.654-3.176-2.694.04-.04 2.706-2.096 8-6.168z" fill="#8E5A30"/></symbol><symbol fill="none" viewBox="0 0 24 24" id="music" xmlns="http://www.w3.org/2000/svg"><path d="M6.694 20.461l.296-.06c.38-.075.571-.113.731-.175a2 2 0 001.25-1.524C9 18.532 9 18.338 9 17.95V16H6.252c-.234 0-.351 0-.45.01a2 2 0 00-1.792 1.792c-.01.099-.01.216-.01.45 0 .28 0 .42.012.531a2 2 0 002.16 1.77c.11-.01.248-.037.522-.092zM16.694 18.461l.296-.06c.38-.075.571-.113.732-.175a2 2 0 001.249-1.524c.029-.17.029-.364.029-.752V14h-2.747c-.235 0-.352 0-.451.01a2 2 0 00-1.792 1.792c-.01.099-.01.216-.01.45 0 .28 0 .42.012.531a2 2 0 002.16 1.77c.11-.01.248-.037.522-.092z" fill="#E2D5FF"/><path d="M6.694 20.461l.296-.06c.38-.075.571-.113.731-.175a2 2 0 001.25-1.524C9 18.532 9 18.338 9 17.95V16H6.252c-.234 0-.351 0-.45.01a2 2 0 00-1.792 1.792c-.01.099-.01.216-.01.45 0 .28 0 .42.012.531a2 2 0 002.16 1.77c.11-.01.248-.037.522-.092zM16.694 18.461l.296-.06c.38-.075.571-.113.732-.175a2 2 0 001.249-1.524c.029-.17.029-.364.029-.752V14h-2.747c-.235 0-.352 0-.451.01a2 2 0 00-1.792 1.792c-.01.099-.01.216-.01.45 0 .28 0 .42.012.531a2 2 0 002.16 1.77c.11-.01.248-.037.522-.092z" stroke="#fff" stroke-width="1.2"/><path d="M9 16H6.252c-.234 0-.351 0-.45.01a2 2 0 00-1.792 1.792c-.01.099-.01.216-.01.45v0c0 .28 0 .42.012.531a2 2 0 002.16 1.77c.11-.01.248-.037.522-.092l.296-.06c.38-.075.571-.113.731-.175a2 2 0 001.25-1.524C9 18.532 9 18.338 9 17.95V9.28c0-1.57 0-2.355.453-2.908.454-.553 1.223-.707 2.763-1.015l2-.4c2.213-.443 3.32-.664 4.052-.064.732.6.732 1.729.732 3.986V9m0 5v1.95c0 .389 0 .582-.03.752a2 2 0 01-1.248 1.524c-.161.062-.351.1-.732.176l-.296.06c-.274.054-.411.082-.523.091a2 2 0 01-2.159-1.77c-.012-.11-.012-.25-.012-.53v0c0-.235 0-.352.01-.451a2 2 0 011.792-1.792c.099-.01.216-.01.45-.01H19zm0 0V9m0 0L9 11" stroke="#5B13F4" stroke-width="1.2"/></symbol><symbol fill="none" viewBox="0 0 24 24" id="options" xmlns="http://www.w3.org/2000/svg"><path d="M12 6a2 2 0 100-4 2 2 0 000 4zM12 14a2 2 0 100-4 2 2 0 000 4zM12 22a2 2 0 100-4 2 2 0 000 4z" fill="#888"/></symbol><symbol fill="none" viewBox="0 0 24 24" id="picture" xmlns="http://www.w3.org/2000/svg"><mask id="na" style="mask-type:alpha" maskUnits="userSpaceOnUse" x="3" y="3" width="18" height="18"><path d="M3 11c0-3.771 0-5.657 1.172-6.828C5.343 3 7.229 3 11 3h2c3.771 0 5.657 0 6.828 1.172C21 5.343 21 7.229 21 11v2c0 3.771 0 5.657-1.172 6.828C18.657 21 16.771 21 13 21h-2c-3.771 0-5.657 0-6.828-1.172C3 18.657 3 16.771 3 13v-2z" fill="#273B4A"/></mask><g mask="url(#na)"><path d="M5.41 12.59l-.153.153c-.98.98-1.47 1.47-1.764 2.073-.102.209-.186.427-.25.65-.185.644-.148 1.337-.075 2.722L3.5 24.5H21v-4.743c0-1.451 0-2.177-.239-2.836a3.994 3.994 0 00-.233-.525c-.33-.619-.87-1.104-1.95-2.075l-.214-.193c-.896-.807-1.344-1.21-1.856-1.324a1.999 1.999 0 00-.973.025c-.505.141-.932.568-1.784 1.42-.633.633-.949.949-1.288.992a1 1 0 01-.61-.118c-.3-.166-.479-.583-.836-1.418-.761-1.775-1.141-2.662-1.795-2.99a2 2 0 00-1.065-.205c-.729.062-1.401.735-2.747 2.08h0z" fill="#E2D5FF" stroke="#5B13F4"/></g><path d="M3 11c0-3.771 0-5.657 1.172-6.828C5.343 3 7.229 3 11 3h2c3.771 0 5.657 0 6.828 1.172C21 5.343 21 7.229 21 11v2c0 3.771 0 5.657-1.172 6.828C18.657 21 16.771 21 13 21h-2c-3.771 0-5.657 0-6.828-1.172C3 18.657 3 16.771 3 13v-2z" stroke="#5B13F4" stroke-width="1.2"/><circle cx="16.5" cy="7.5" r="1.5" fill="#5B13F4"/></symbol><symbol fill="none" viewBox="0 0 24 24" id="video" xmlns="http://www.w3.org/2000/svg"><path fill-rule="evenodd" clip-rule="evenodd" d="M12 21a9 9 0 100-18 9 9 0 000 18zM9.737 7.868l6.474 3.238a1 1 0 010 1.789l-6.474 3.237A1.2 1.2 0 018 15.058V8.943a1.2 1.2 0 011.737-1.074z" fill="#E2D5FF"/><path d="M9.737 16.132l.268.536-.268-.536zm.268-8.8l6.475 3.237-.537 1.073-6.475-3.237.537-1.073zm6.475 6.1l-6.475 3.236-.537-1.073 6.475-3.237.537 1.073zM8.6 8.941v6.116H7.4V8.942h1.2zm1.405 7.726a1.8 1.8 0 01-2.605-1.61h1.2a.6.6 0 00.868.537l.537 1.073zm6.475-6.1c1.179.59 1.179 2.273 0 2.863l-.537-1.073a.4.4 0 000-.716l.537-1.073zM9.468 8.406a.6.6 0 00-.868.537H7.4a1.8 1.8 0 012.605-1.61l-.537 1.073z" fill="#5B13F4"/><circle cx="12" cy="12" r="9" stroke="#5B13F4" stroke-width="1.2"/></symbol><symbol fill="none" viewBox="0 0 24 24" id="warning" xmlns="http://www.w3.org/2000/svg"><path d="M11.866 3.268L3.109 20.783a.15.15 0 00.134.217h17.514a.15.15 0 00.134-.217L12.135 3.268a.15.15 0 00-.268 0z" stroke="#CD1900" stroke-width="1.5" stroke-linecap="round"/><path d="M12 18.25a.75.75 0 100-1.5.75.75 0 000 1.5z" fill="#CD1900" stroke="#CD1900" stroke-width=".5"/><path d="M12 15v-5" stroke="#CD1900" stroke-width="1.2" stroke-linecap="round"/></symbol></svg>