<?xml version="1.0" encoding="utf-8"?>
<!-- Generator: Adobe Illustrator 16.0.0, SVG Export Plug-In . SVG Version: 6.00 Build 0)  -->
<!DOCTYPE svg PUBLIC "-//W3C//DTD SVG 1.1//EN" "http://www.w3.org/Graphics/SVG/1.1/DTD/svg11.dtd">
<svg version="1.1" id="Layer_1" xmlns="http://www.w3.org/2000/svg" xmlns:xlink="http://www.w3.org/1999/xlink" x="0px" y="0px"
	 width="70px" height="70px" viewBox="0 0 70 70" enable-background="new 0 0 70 70" xml:space="preserve">
<polygon fill-rule="evenodd" clip-rule="evenodd" fill="#FFFFFF" points="34.323,24.455 50.021,67.395 34.617,60.488 19.281,68.141 
	"/>
<path fill="#FFFFFF" d="M23.751,17.017l-7.132-7.132c-0.433-0.432-0.433-1.135,0-1.567l0.554-0.555c0.433-0.432,1.134-0.432,1.567,0
	l7.132,7.133c0.433,0.435,0.433,1.135,0,1.567l-0.554,0.554C24.886,17.45,24.184,17.45,23.751,17.017"/>
<path fill="#FFFFFF" d="M20.607,26.214H10.521c-0.612,0-1.108-0.496-1.108-1.107v-0.784c0-0.612,0.496-1.108,1.108-1.108h10.087
	c0.612,0,1.108,0.496,1.108,1.108v0.784C21.715,25.718,21.219,26.214,20.607,26.214"/>
<path fill="#FFFFFF" d="M35.042,13.303h-0.784c-0.612,0-1.108-0.495-1.108-1.107V2.108C33.15,1.496,33.646,1,34.258,1h0.784
	c0.612,0,1.108,0.496,1.108,1.108v10.087C36.15,12.808,35.654,13.303,35.042,13.303"/>
<path fill="#FFFFFF" d="M43.982,17.017l-0.555-0.554c-0.433-0.433-0.433-1.133,0-1.567l7.133-7.133c0.433-0.432,1.135-0.432,1.568,0
	l0.554,0.555c0.433,0.433,0.433,1.136,0,1.567l-7.134,7.132C45.117,17.45,44.416,17.45,43.982,17.017"/>
<path fill="#FFFFFF" d="M58.779,26.214H48.693c-0.613,0-1.108-0.496-1.108-1.107v-0.784c0-0.612,0.495-1.108,1.108-1.108h10.086
	c0.612,0,1.108,0.496,1.108,1.108v0.784C59.888,25.718,59.392,26.214,58.779,26.214"/>
</svg>
