<?xml version="1.0" encoding="utf-8"?>
<!-- Generator: Adobe Illustrator 16.0.0, SVG Export Plug-In . SVG Version: 6.00 Build 0)  -->
<!DOCTYPE svg PUBLIC "-//W3C//DTD SVG 1.1//EN" "http://www.w3.org/Graphics/SVG/1.1/DTD/svg11.dtd">
<svg version="1.1" id="Layer_1" xmlns="http://www.w3.org/2000/svg" xmlns:xlink="http://www.w3.org/1999/xlink" x="0px" y="0px"
	 width="120px" height="50px" viewBox="0 0 120 50" enable-background="new 0 0 120 50" xml:space="preserve">
<g>
	<path fill="#FFFFFF" d="M64.546,24.146h-4.771c-0.123,0-0.223,0.101-0.223,0.224v2.333c0,0.123,0.1,0.223,0.223,0.223h1.86v2.897
		c0,0-0.418,0.143-1.572,0.143c-1.363,0-3.267-0.498-3.267-4.686s1.981-4.738,3.844-4.738c1.61,0,2.305,0.282,2.747,0.42
		c0.139,0.043,0.267-0.097,0.267-0.219l0.533-2.254c0-0.058-0.021-0.127-0.087-0.175c-0.178-0.127-1.272-0.74-4.037-0.74
		c-3.185,0-6.453,1.355-6.453,7.869c0,6.516,3.741,7.485,6.894,7.485c2.609,0,4.192-1.115,4.192-1.115
		c0.066-0.036,0.073-0.127,0.073-0.169v-7.274C64.77,24.246,64.669,24.146,64.546,24.146"/>
	<path fill="#FFFFFF" d="M89.134,18.354c0-0.124-0.098-0.224-0.221-0.224h-2.688c-0.121,0-0.221,0.1-0.221,0.224v5.191h-4.188
		v-5.191c0-0.124-0.1-0.224-0.223-0.224h-2.686c-0.122,0-0.223,0.1-0.223,0.224v14.057c0,0.124,0.101,0.226,0.223,0.226h2.686
		c0.123,0,0.223-0.102,0.223-0.226v-6.013h4.188l-0.008,6.013c0,0.124,0.1,0.226,0.223,0.226h2.692c0.123,0,0.222-0.102,0.222-0.226
		V18.354z"/>
	<path fill="#FFFFFF" d="M69.616,20.199c0-0.968-0.775-1.749-1.732-1.749c-0.956,0-1.732,0.781-1.732,1.749
		c0,0.966,0.776,1.75,1.732,1.75C68.841,21.949,69.616,21.165,69.616,20.199"/>
	<path fill="#FFFFFF" d="M69.423,29.446v-6.489c0-0.123-0.099-0.224-0.222-0.224h-2.678c-0.123,0-0.233,0.127-0.233,0.25v9.297
		c0,0.273,0.172,0.354,0.391,0.354h2.412c0.267,0,0.33-0.13,0.33-0.358V29.446z"/>
	<path fill="#FFFFFF" d="M99.344,22.755h-2.666c-0.122,0-0.222,0.101-0.222,0.225v6.892c0,0-0.678,0.496-1.639,0.496
		s-1.216-0.436-1.216-1.377v-6.011c0-0.124-0.1-0.225-0.222-0.225h-2.705c-0.123,0-0.223,0.101-0.223,0.225v6.466
		c0,2.795,1.559,3.479,3.701,3.479c1.758,0,3.176-0.972,3.176-0.972s0.067,0.513,0.099,0.572c0.03,0.062,0.11,0.122,0.196,0.122
		l1.721-0.008c0.123,0,0.223-0.101,0.223-0.225v-9.436C99.567,22.855,99.467,22.755,99.344,22.755"/>
	<path fill="#FFFFFF" d="M106.63,22.439c-1.514,0-2.545,0.675-2.545,0.675v-4.76c0-0.124-0.098-0.225-0.221-0.225h-2.693
		c-0.123,0-0.223,0.101-0.223,0.225v14.057c0,0.125,0.1,0.225,0.223,0.225h1.869c0.084,0,0.147-0.043,0.194-0.119
		c0.048-0.074,0.114-0.647,0.114-0.647s1.102,1.044,3.188,1.044c2.447,0,3.852-1.242,3.852-5.575S108.145,22.439,106.63,22.439
		 M105.579,30.359c-0.926-0.028-1.553-0.448-1.553-0.448V25.46c0,0,0.619-0.38,1.379-0.447c0.959-0.086,1.885,0.204,1.885,2.493
		C107.29,29.922,106.872,30.398,105.579,30.359"/>
	<path fill="#FFFFFF" d="M77.145,22.732H75.13l-0.004-2.662c0-0.102-0.051-0.151-0.168-0.151h-2.746
		c-0.107,0-0.164,0.047-0.164,0.149v2.751c0,0-1.377,0.333-1.469,0.359c-0.094,0.026-0.162,0.112-0.162,0.215v1.728
		c0,0.125,0.101,0.225,0.223,0.225h1.408v4.159c0,3.089,2.166,3.394,3.629,3.394c0.668,0,1.468-0.215,1.599-0.265
		c0.08-0.028,0.126-0.111,0.126-0.2l0.003-1.902c0-0.124-0.104-0.226-0.223-0.226s-0.418,0.049-0.728,0.049
		c-0.99,0-1.324-0.46-1.324-1.057c0-0.595-0.002-3.952-0.002-3.952h2.017c0.123,0,0.222-0.1,0.222-0.225v-2.165
		C77.366,22.832,77.268,22.732,77.145,22.732"/>
	<path fill-rule="evenodd" clip-rule="evenodd" fill="#FFFFFF" d="M24.97,10.02c-8.48,0-15.357,6.876-15.357,15.36
		c0,6.786,4.399,12.542,10.504,14.574c0.768,0.14,1.049-0.334,1.049-0.741c0-0.364-0.014-1.33-0.021-2.612
		c-4.272,0.928-5.174-2.059-5.174-2.059c-0.698-1.774-1.706-2.247-1.706-2.247c-1.394-0.953,0.106-0.934,0.106-0.934
		c1.541,0.108,2.353,1.583,2.353,1.583c1.37,2.348,3.596,1.669,4.471,1.276c0.139-0.993,0.535-1.67,0.975-2.054
		c-3.411-0.388-6.996-1.705-6.996-7.591c0-1.677,0.598-3.048,1.581-4.121c-0.158-0.39-0.685-1.95,0.15-4.065
		c0,0,1.29-0.413,4.224,1.575c1.225-0.341,2.539-0.511,3.845-0.519c1.306,0.008,2.619,0.178,3.846,0.519
		c2.933-1.988,4.22-1.575,4.22-1.575c0.838,2.115,0.31,3.676,0.153,4.065c0.983,1.073,1.577,2.444,1.577,4.121
		c0,5.9-3.59,7.198-7.012,7.578c0.551,0.476,1.043,1.412,1.043,2.846c0,2.053-0.019,3.71-0.019,4.213
		c0,0.411,0.275,0.889,1.056,0.739c6.098-2.035,10.494-7.788,10.494-14.572C40.33,16.896,33.453,10.02,24.97,10.02"/>
</g>
</svg>
