<svg width="182" height="80" viewBox="0 0 182 80" fill="none" xmlns="http://www.w3.org/2000/svg">
<path d="M72.4015 30.3581L74.1278 30.9101L73.0592 32.3899C73.0592 32.3899 73.0592 32.4603 73.0592 32.4838C73.0476 32.518 73.0476 32.5553 73.0592 32.5895L73.6463 33.0123H73.7638C73.7847 33.0111 73.8047 33.0038 73.8215 32.9913C73.8382 32.9788 73.8508 32.9615 73.8577 32.9418L74.9265 31.462L76.007 32.9418C76.0138 32.9615 76.0265 32.9788 76.0432 32.9913C76.06 33.0038 76.08 33.0111 76.1008 33.0123C76.1396 33.0199 76.1796 33.0199 76.2183 33.0123L76.8055 32.5895C76.8171 32.5553 76.8171 32.518 76.8055 32.4838C76.8055 32.4838 76.8055 32.4838 76.8055 32.3899L75.7368 30.9101L77.5101 30.3581C77.539 30.348 77.5637 30.3288 77.5806 30.3034C77.5976 30.2779 77.6058 30.2476 77.6041 30.2171C77.6078 30.1978 77.6078 30.1779 77.6041 30.1585L77.3927 29.4304C77.3927 29.3599 77.334 29.3246 77.2752 29.3246H77.2048L75.4785 29.9236V28.1855C75.4802 28.1665 75.4778 28.1474 75.4715 28.1295C75.465 28.1115 75.4546 28.0953 75.4412 28.0818C75.4277 28.0684 75.4115 28.058 75.3935 28.0515C75.3756 28.0451 75.3565 28.0428 75.3375 28.0445H74.6211C74.6022 28.0428 74.5831 28.0451 74.5651 28.0515C74.5472 28.058 74.531 28.0684 74.5175 28.0818C74.504 28.0953 74.4936 28.1115 74.4872 28.1295C74.4807 28.1474 74.4783 28.1665 74.4802 28.1855V29.9823L72.7186 29.3599H72.6481C72.619 29.3598 72.5907 29.3705 72.569 29.39C72.5472 29.4095 72.5336 29.4365 72.5307 29.4655L72.3193 30.1936V30.2524C72.3232 30.2755 72.3327 30.2973 72.3471 30.3156C72.3613 30.3341 72.3801 30.3486 72.4015 30.3581Z" fill="black"/>
<path d="M68.8081 21.844L70.5462 22.4076L69.4657 23.8756C69.4588 23.9105 69.4588 23.9465 69.4657 23.9814C69.4584 23.996 69.4547 24.012 69.4547 24.0284C69.4547 24.0446 69.4584 24.0608 69.4657 24.0753L70.0529 24.5099H70.1703C70.1703 24.5099 70.2408 24.5099 70.2761 24.4394L71.3448 22.9714L72.4134 24.4394C72.4134 24.4394 72.4134 24.5099 72.5192 24.5099H72.6366L73.2238 24.0753C73.2311 24.0608 73.2348 24.0446 73.2348 24.0284C73.2348 24.012 73.2311 23.996 73.2238 23.9814C73.2308 23.9465 73.2308 23.9105 73.2238 23.8756L72.1433 22.4076L73.8814 21.844C73.9083 21.8345 73.9317 21.817 73.9486 21.794C73.9653 21.7709 73.9747 21.7433 73.9754 21.7148L73.7641 20.9866C73.7641 20.9161 73.7641 20.881 73.6466 20.881H73.5761L71.8498 21.4681V19.6361C71.8498 19.5421 71.8498 19.4834 71.7088 19.4834H70.9807C70.9622 19.4849 70.9441 19.49 70.9276 19.4985C70.9111 19.507 70.8963 19.5186 70.8843 19.5329C70.8723 19.547 70.8632 19.5635 70.8576 19.5813C70.8519 19.5989 70.8499 19.6175 70.8516 19.6361V21.4211L69.1134 20.834H69.0547C69.0547 20.834 68.9607 20.834 68.9372 20.9396L68.7258 21.6678C68.7143 21.7021 68.7164 21.7395 68.7317 21.7723C68.7471 21.8051 68.7743 21.8308 68.8081 21.844Z" fill="black"/>
<path d="M63.3354 14.4451L65.0735 14.9971L63.993 16.4416C63.9866 16.4726 63.9866 16.5045 63.993 16.5355C63.9855 16.5521 63.9818 16.5701 63.9818 16.5884C63.9818 16.6066 63.9855 16.6246 63.993 16.6412L64.5685 17.064C64.6113 17.0705 64.6549 17.0705 64.6976 17.064C64.6976 17.064 64.6976 17.064 64.7916 16.9936L65.8603 15.5139L66.9408 17.0757C66.9408 17.0757 66.9995 17.1462 67.0465 17.1462H67.1639L67.7511 16.7235C67.7648 16.6895 67.7648 16.6516 67.7511 16.6177C67.7574 16.5867 67.7574 16.5547 67.7511 16.5237L66.6706 15.0441L68.4088 14.4921C68.4358 14.4794 68.4588 14.4595 68.4753 14.4346C68.4919 14.4099 68.5013 14.381 68.5028 14.3511L68.2913 13.623C68.2913 13.5526 68.2913 13.5174 68.1739 13.5174H68.1151L66.3888 14.1162V12.2255C66.3906 12.2065 66.3883 12.1874 66.3818 12.1695C66.3754 12.1516 66.365 12.1353 66.3515 12.1218C66.338 12.1084 66.3218 12.098 66.3039 12.0916C66.2859 12.0852 66.2668 12.0828 66.2479 12.0846H65.5315C65.5125 12.0828 65.4934 12.0852 65.4755 12.0916C65.4575 12.098 65.4413 12.1084 65.4278 12.1218C65.4144 12.1353 65.404 12.1516 65.3975 12.1695C65.3911 12.1874 65.3888 12.2065 65.3905 12.2255V14.0224L63.6524 13.4234H63.582C63.582 13.4234 63.488 13.4234 63.4645 13.5291L63.2531 14.2572C63.2435 14.2932 63.2464 14.3314 63.2614 14.3655C63.2763 14.3997 63.3024 14.4277 63.3354 14.4451Z" fill="black"/>
<path d="M56.2537 8.52519L57.9919 9.07716L56.9115 10.5687C56.9051 10.5996 56.9051 10.6316 56.9115 10.6626C56.9022 10.6787 56.8972 10.6969 56.8972 10.7155C56.8972 10.734 56.9022 10.7522 56.9115 10.7683L57.4868 11.1911C57.5292 11.2026 57.5739 11.2026 57.6161 11.1911C57.637 11.1899 57.657 11.1826 57.6737 11.1701C57.6905 11.1576 57.7031 11.1403 57.71 11.1206L58.7787 9.64088L59.8945 11.1559C59.9054 11.1751 59.9205 11.1914 59.9389 11.2037C59.9572 11.2159 59.9782 11.2237 60.0001 11.2263C60.0386 11.2368 60.0791 11.2368 60.1176 11.2263L60.7047 10.8035C60.7185 10.7696 60.7185 10.7317 60.7047 10.6978C60.7111 10.6668 60.7111 10.6349 60.7047 10.6039L59.6244 9.12414L61.3625 8.57218C61.3902 8.56058 61.414 8.54101 61.4307 8.51593C61.4475 8.49085 61.4564 8.46139 61.4564 8.43124L61.245 7.70311C61.245 7.63265 61.1862 7.59743 61.1275 7.59743L61.0689 7.51521L59.3425 8.10241V6.30558C59.3442 6.28663 59.3419 6.2675 59.3355 6.24958C59.329 6.23165 59.3187 6.21536 59.3052 6.2019C59.2917 6.18844 59.2755 6.17811 59.2575 6.17168C59.2396 6.16523 59.2205 6.16284 59.2015 6.16465H58.4851C58.4662 6.16284 58.4471 6.16523 58.4291 6.17168C58.4112 6.17811 58.395 6.18844 58.3815 6.2019C58.368 6.21536 58.3577 6.23165 58.3512 6.24958C58.3449 6.2675 58.3424 6.28663 58.3442 6.30558V8.10241L56.6061 7.51521H56.5356C56.5356 7.51521 56.4417 7.51521 56.4182 7.62091L56.2069 8.34904C56.1946 8.37954 56.1926 8.41316 56.2011 8.4449C56.2096 8.47663 56.2281 8.50479 56.2537 8.52519Z" fill="black"/>
<path d="M47.9272 4.39236L49.6652 4.95607L48.5849 6.42406C48.5779 6.45895 48.5779 6.49487 48.5849 6.52976C48.5711 6.56366 48.5711 6.60156 48.5849 6.63546L49.172 7.05824L49.3247 7.0465C49.3247 7.0465 49.3952 7.0465 49.4304 7.0465L50.4991 5.55501L51.5444 7.0465C51.5444 7.0465 51.5444 7.0465 51.65 7.0465H51.7675L52.3546 6.62371C52.3684 6.58981 52.3684 6.55191 52.3546 6.51802C52.3616 6.48312 52.3616 6.44721 52.3546 6.41232L51.2743 4.94432L53.0124 4.38061C53.0393 4.37111 53.0626 4.35369 53.0794 4.33062C53.0961 4.30755 53.1055 4.27994 53.1063 4.25142L52.8479 3.5233C52.8479 3.45284 52.8479 3.41761 52.7305 3.41761H52.66L50.9219 4.01655V2.18449C50.9219 2.09054 50.9219 2.04356 50.7928 2.04356H50.0646C50.0456 2.04174 50.0265 2.04414 50.0086 2.05057C49.9906 2.05701 49.9744 2.06734 49.9609 2.08081C49.9475 2.09427 49.9371 2.11055 49.9307 2.12847C49.9242 2.1464 49.9219 2.16552 49.9236 2.18449V3.98132L48.1974 3.38237H48.1504C48.0916 3.38237 48.0564 3.38237 48.0329 3.48807L47.8215 4.2162C47.8162 4.23471 47.8149 4.25411 47.8174 4.2732C47.8199 4.29227 47.8264 4.31064 47.8362 4.32714C47.8461 4.34365 47.8594 4.35795 47.875 4.36916C47.8906 4.38039 47.9084 4.38827 47.9272 4.39236Z" fill="black"/>
<path d="M38.7552 2.91191L40.458 3.5226L39.3894 4.9906C39.3823 5.02152 39.3823 5.05362 39.3894 5.08455C39.3819 5.10117 39.378 5.11918 39.378 5.1374C39.378 5.15561 39.3819 5.17362 39.3894 5.19025L39.9765 5.62477H40.094C40.1149 5.62363 40.1349 5.61633 40.1517 5.60378C40.1684 5.59125 40.181 5.57402 40.1879 5.55431L41.2567 4.08631L42.3372 5.55431C42.344 5.57402 42.3567 5.59125 42.3734 5.60378C42.3902 5.61633 42.4102 5.62363 42.431 5.62477H42.5485L43.1357 5.19025C43.1357 5.19025 43.1357 5.19025 43.1357 5.08455C43.1428 5.05362 43.1428 5.02152 43.1357 4.9906L42.0905 3.5226L43.8168 2.95888C43.8469 2.95333 43.874 2.93731 43.8934 2.91366C43.9127 2.89001 43.923 2.86026 43.9225 2.82971C43.9254 2.81023 43.9254 2.79045 43.9225 2.77098L43.7112 2.03111C43.7057 2.00418 43.6909 1.98003 43.6694 1.96287C43.648 1.94571 43.6212 1.93661 43.5937 1.93716H43.4528L41.7264 2.52436V0.692299C41.7283 0.67334 41.7258 0.654214 41.7194 0.636289C41.7129 0.618365 41.7027 0.602087 41.6892 0.588619C41.6757 0.575152 41.6594 0.564828 41.6415 0.558389C41.6235 0.551949 41.6044 0.549553 41.5855 0.551372H40.8692C40.7752 0.551372 40.7282 0.598348 40.7282 0.692299V2.48913L39.0018 1.90193H38.9313C38.9022 1.90178 38.8739 1.91253 38.8522 1.93207C38.8305 1.95162 38.8168 1.97856 38.8139 2.00762L38.6025 2.73575V2.79447C38.6039 2.81261 38.609 2.83025 38.6177 2.84625C38.6263 2.86226 38.6382 2.87626 38.6525 2.88735C38.667 2.89842 38.6835 2.90635 38.7013 2.91058C38.7189 2.91481 38.7373 2.91527 38.7552 2.91191Z" fill="black"/>
<path d="M29.5362 3.72243L31.2626 4.28615L30.1821 5.75415C30.1751 5.78903 30.1751 5.82495 30.1821 5.85985C30.1746 5.87646 30.1708 5.89447 30.1708 5.91268C30.1708 5.93091 30.1746 5.94891 30.1821 5.96553L30.7576 6.38832H30.8867C30.9016 6.39478 30.9176 6.39812 30.9337 6.39812C30.9498 6.39812 30.9658 6.39478 30.9807 6.38832L32.0493 4.90858L33.1181 6.38832C33.1523 6.39996 33.1894 6.39996 33.2238 6.38832H33.3412L33.9284 5.96553C33.9569 5.96478 33.9846 5.95541 34.0076 5.93863C34.0307 5.92186 34.0481 5.89847 34.0576 5.87158C34.0646 5.8367 34.0646 5.80077 34.0576 5.76588L32.8832 4.28615L34.6213 3.72243C34.6482 3.71293 34.6716 3.69551 34.6883 3.67245C34.7051 3.64937 34.7144 3.62176 34.7152 3.59325C34.7191 3.57386 34.7191 3.55392 34.7152 3.53453L34.5038 2.80641C34.5038 2.73595 34.4452 2.70071 34.3864 2.70071H34.3159L32.5896 3.29966V1.51457C32.5914 1.49561 32.5891 1.47648 32.5826 1.45856C32.5762 1.44063 32.5658 1.42436 32.5523 1.41088C32.5388 1.39742 32.5226 1.3871 32.5047 1.38066C32.4867 1.37422 32.4676 1.37182 32.4487 1.37363H31.7088C31.6898 1.37182 31.6707 1.37422 31.6528 1.38066C31.6348 1.3871 31.6186 1.39742 31.6051 1.41088C31.5917 1.42436 31.5813 1.44063 31.5749 1.45856C31.5684 1.47648 31.5661 1.49561 31.5678 1.51457V3.3114L29.8298 2.71246H29.7593C29.7006 2.71246 29.6653 2.71246 29.6418 2.81815L29.4422 3.52278V3.58151C29.4383 3.61237 29.4456 3.64362 29.4628 3.66952C29.4801 3.69541 29.5062 3.7142 29.5362 3.72243Z" fill="black"/>
<path d="M20.7869 6.58864L22.5132 7.15235L21.4445 8.62035C21.4344 8.65485 21.4344 8.69154 21.4445 8.72605C21.45 8.76745 21.471 8.80525 21.5032 8.83174L22.0905 9.25453H22.2079C22.2227 9.26099 22.2387 9.26433 22.2549 9.26433C22.271 9.26433 22.287 9.26099 22.3019 9.25453L23.3705 7.77479L24.451 9.25453C24.4659 9.26099 24.4819 9.26433 24.498 9.26433C24.5141 9.26433 24.5301 9.26099 24.545 9.25453H24.6624L25.2496 8.83174C25.2819 8.80525 25.3029 8.76745 25.3084 8.72605C25.3184 8.69154 25.3184 8.65485 25.3084 8.62035L24.2396 7.15235L25.8367 6.58864C25.8669 6.58309 25.894 6.56706 25.9132 6.54341C25.9326 6.51976 25.943 6.49001 25.9425 6.45946L25.7429 5.73133C25.7372 5.70128 25.7212 5.67418 25.6976 5.65481C25.674 5.63546 25.6442 5.62513 25.6136 5.62564H25.5432L23.8169 6.22458V4.38078C23.8186 4.36181 23.8162 4.34269 23.8099 4.32476C23.8034 4.30684 23.793 4.29056 23.7796 4.27709C23.7661 4.26363 23.7499 4.2533 23.7319 4.24686C23.714 4.24043 23.6949 4.23803 23.6759 4.23985H22.9595C22.9405 4.23803 22.9214 4.24043 22.9035 4.24686C22.8856 4.2533 22.8692 4.26363 22.8559 4.27709C22.8424 4.29056 22.832 4.30684 22.8256 4.32476C22.8191 4.34269 22.8167 4.36181 22.8186 4.38078V6.1776L21.1392 5.57866H21.0687C21.0395 5.57851 21.0112 5.58926 20.9896 5.6088C20.9679 5.62835 20.9542 5.65529 20.9512 5.68435L20.7399 6.41248C20.7229 6.44209 20.7182 6.47725 20.727 6.51026C20.7359 6.54328 20.7574 6.57146 20.7869 6.58864Z" fill="black"/>
<path d="M12.9183 11.4734L14.6565 12.0254L13.576 13.5051C13.576 13.5051 13.576 13.5756 13.576 13.5991C13.5815 13.6405 13.6025 13.6783 13.6347 13.7048L14.222 14.1276H14.3393C14.3613 14.1249 14.3822 14.1171 14.4006 14.1049C14.419 14.0926 14.4342 14.0763 14.4451 14.0571L15.5021 12.5774L16.559 14.0924C16.566 14.112 16.5786 14.1293 16.5953 14.1419C16.612 14.1544 16.6321 14.1616 16.653 14.1628C16.6917 14.1704 16.7316 14.1704 16.7703 14.1628L17.3576 13.74C17.3752 13.7285 17.3898 13.7129 17.4001 13.6945C17.4103 13.676 17.4158 13.6554 17.4163 13.6344C17.4226 13.6034 17.4226 13.5714 17.4163 13.5404L16.3358 12.0606L18.0622 11.5087C18.0913 11.4976 18.1168 11.4785 18.1356 11.4536C18.1542 11.4286 18.1655 11.3988 18.168 11.3677C18.1655 11.3482 18.1655 11.3285 18.168 11.309L17.9096 10.5691C17.9045 10.541 17.8901 10.5154 17.8688 10.4963C17.8476 10.4771 17.8206 10.4656 17.7921 10.4635H17.7216L15.9836 11.0624V9.25382C15.9853 9.23487 15.983 9.21573 15.9765 9.19782C15.9701 9.17989 15.9597 9.16361 15.9463 9.15014C15.9328 9.13667 15.9166 9.12636 15.8986 9.11991C15.8807 9.11347 15.8616 9.11108 15.8426 9.11289H15.1262C15.1072 9.11108 15.0881 9.11347 15.0702 9.11991C15.0523 9.12636 15.036 9.13667 15.0226 9.15014C15.0091 9.16361 14.9987 9.17989 14.9923 9.19782C14.9858 9.21573 14.9835 9.23487 14.9853 9.25382V11.0507L13.259 10.4517H13.1885C13.1592 10.4516 13.1311 10.4623 13.1093 10.4819C13.0876 10.5014 13.074 10.5283 13.0711 10.5574L12.9183 11.2738V11.3325C12.908 11.3545 12.9025 11.3786 12.9025 11.403C12.9025 11.4273 12.908 11.4514 12.9183 11.4734Z" fill="black"/>
<path d="M6.43575 18.1091L8.22083 18.6729L7.04643 20.1409C7.03947 20.1758 7.03947 20.2116 7.04643 20.2465C7.03898 20.2631 7.03512 20.2811 7.03512 20.2994C7.03512 20.3176 7.03898 20.3356 7.04643 20.3523L7.63363 20.775H7.75107C7.76535 20.7833 7.78156 20.7876 7.79805 20.7876C7.81453 20.7876 7.83073 20.7833 7.84502 20.775L8.91372 19.2953L9.98242 20.775C9.99905 20.7825 10.0171 20.7864 10.0353 20.7864C10.0535 20.7864 10.0715 20.7825 10.0881 20.775H10.2056L10.7928 20.3523C10.8044 20.318 10.8044 20.2809 10.7928 20.2465C10.7979 20.2115 10.7979 20.1759 10.7928 20.1409L9.78278 18.6729L11.5209 18.1091C11.5478 18.0996 11.5712 18.0823 11.5879 18.0591C11.6047 18.0361 11.6141 18.0085 11.6148 17.98C11.6186 17.9606 11.6186 17.9406 11.6148 17.9213L11.4034 17.1931C11.4034 17.1226 11.4034 17.0874 11.286 17.0874H11.2038L9.47743 17.6864V15.9013C9.48203 15.8719 9.47637 15.8419 9.4614 15.8163C9.44642 15.7905 9.42305 15.7708 9.39522 15.7604H8.62012C8.60117 15.7585 8.58203 15.7609 8.56411 15.7674C8.54618 15.7738 8.52991 15.7841 8.51645 15.7976C8.50297 15.8111 8.49265 15.8274 8.48621 15.8453C8.47977 15.8633 8.47737 15.8824 8.4792 15.9013V17.6981L6.74108 17.0991H6.67062C6.67062 17.0991 6.57667 17.0991 6.55318 17.2049L6.3418 17.933V17.9918C6.34323 18.0186 6.35307 18.0445 6.36992 18.0655C6.38676 18.0866 6.40978 18.1019 6.43575 18.1091Z" fill="black"/>
<path d="M2.14907 26.3878L3.87545 27.0102L2.80673 28.4196C2.8016 28.4546 2.8016 28.4902 2.80673 28.5252C2.79511 28.5595 2.79511 28.5967 2.80673 28.631L3.39393 29.0537H3.51138C3.53225 29.0526 3.55232 29.0453 3.56905 29.0327C3.58576 29.0202 3.5984 29.003 3.60533 28.9832L4.69752 27.5505L5.77797 29.0185C5.78491 29.0382 5.79753 29.0555 5.81426 29.068C5.83099 29.0805 5.85105 29.0878 5.87192 29.089H5.98936L6.57656 28.6662C6.5882 28.6318 6.5882 28.5947 6.57656 28.5605C6.58667 28.526 6.58667 28.4893 6.57656 28.4548L5.50786 27.0102L7.23422 26.4466C7.26427 26.441 7.29138 26.425 7.31073 26.4013C7.33008 26.3777 7.34042 26.348 7.33992 26.3173V26.2587L7.14027 25.5306C7.14558 25.5136 7.14734 25.4957 7.14542 25.478C7.14351 25.4603 7.13797 25.4432 7.12915 25.4278C7.12034 25.4123 7.10842 25.399 7.09417 25.3883C7.07992 25.3777 7.06362 25.3701 7.04632 25.3661H6.92887L5.19077 25.9533V24.18C5.19077 24.086 5.19077 24.0273 5.04983 24.0273H4.33346C4.31392 24.0272 4.29458 24.0312 4.27667 24.0391C4.25876 24.0468 4.24266 24.0583 4.22941 24.0726C4.21616 24.087 4.20604 24.104 4.19969 24.1225C4.19334 24.141 4.1909 24.1605 4.19253 24.18V25.9651L2.46616 25.3778H2.34872C2.31951 25.3777 2.29128 25.3885 2.26957 25.408C2.24786 25.4276 2.23421 25.4545 2.23128 25.4836L2.0199 26.2117V26.2705C2.02283 26.3026 2.03772 26.3325 2.06165 26.3542C2.08556 26.376 2.11676 26.388 2.14907 26.3878Z" fill="black"/>
<path d="M0.0939208 35.408L1.83203 35.96L0.751584 37.4397C0.745256 37.4707 0.745256 37.5026 0.751584 37.5336C0.743324 37.55 0.739021 37.5681 0.739021 37.5865C0.739021 37.6049 0.743324 37.623 0.751584 37.6394L1.33879 38.0621H1.45623C1.45623 38.0621 1.52669 38.0621 1.56191 37.9916L2.63063 36.5119L3.69933 37.9916C3.69933 37.9916 3.69933 38.0621 3.80501 38.0621C3.84346 38.0726 3.88401 38.0726 3.92246 38.0621L4.50965 37.6394C4.52336 37.6055 4.52336 37.5675 4.50965 37.5336C4.51599 37.5026 4.51599 37.4707 4.50965 37.4397L3.42921 35.96L5.16731 35.408C5.20451 35.3971 5.23668 35.3736 5.25816 35.3414C5.27965 35.3091 5.28908 35.2704 5.28476 35.2319C5.28749 35.2124 5.28749 35.1926 5.28476 35.1731L5.07336 34.445C5.07336 34.3745 5.07336 34.3392 4.95593 34.3392H4.88546L3.14735 34.9265V33.1884C3.14735 33.0945 3.14735 33.0475 3.01818 33.0475H2.2783C2.25934 33.0456 2.24021 33.048 2.22229 33.0545C2.20436 33.0609 2.18809 33.0712 2.17463 33.0847C2.16115 33.0981 2.15083 33.1145 2.14439 33.1324C2.13795 33.1502 2.13555 33.1694 2.13738 33.1884V34.9852L0.411009 34.398H0.340544C0.340544 34.398 0.246593 34.398 0.223105 34.5037L-3.09497e-05 35.2319C-0.00586807 35.2675 0.000167737 35.304 0.017146 35.3359C0.0341242 35.3676 0.0611022 35.393 0.0939208 35.408Z" fill="black"/>
<path d="M0.140869 44.6273L1.87898 45.1909L0.798532 46.6354C0.793867 46.6665 0.793867 46.6983 0.798532 46.7294C0.789255 46.7454 0.784372 46.7637 0.784372 46.7823C0.784372 46.8008 0.789255 46.819 0.798532 46.8352L1.37399 47.2697H1.50317C1.50317 47.2697 1.56189 47.2697 1.59713 47.1992L2.68932 45.8017L3.75802 47.2697C3.75802 47.2697 3.75802 47.34 3.86372 47.34H3.98115L4.56835 46.9055C4.57662 46.8892 4.58092 46.871 4.58092 46.8527C4.58092 46.8344 4.57662 46.8163 4.56835 46.7999C4.57302 46.7687 4.57302 46.737 4.56835 46.7059L3.52314 45.1674L5.23775 44.6273C5.26465 44.6178 5.28803 44.6003 5.3048 44.5773C5.32158 44.5542 5.33095 44.5265 5.3317 44.498L5.12032 43.7699C5.12032 43.6994 5.12032 43.6643 5.00288 43.6643H4.92067L3.1943 44.2514V42.3959C3.1943 42.2902 3.1943 42.2432 3.05338 42.2432H2.34874C2.3302 42.2447 2.31215 42.2498 2.29562 42.2583C2.27908 42.2668 2.26438 42.2784 2.25237 42.2927C2.24037 42.3068 2.23128 42.3233 2.22565 42.341C2.22002 42.3587 2.21794 42.3774 2.21955 42.3959V44.1809L0.481444 43.5938H0.387493C0.387493 43.5938 0.29354 43.5938 0.270053 43.6994L0.0586611 44.4275C0.0491212 44.4458 0.0436902 44.4659 0.0427498 44.4865C0.0418093 44.507 0.0453823 44.5275 0.0532176 44.5465C0.0610527 44.5657 0.0729601 44.5827 0.0881028 44.5967C0.103245 44.6105 0.121256 44.621 0.140869 44.6273Z" fill="black"/>
<path d="M2.34881 53.5877L4.07517 54.1514L3.00647 55.6194C2.99942 55.6504 2.99942 55.6825 3.00647 55.7134C2.99902 55.73 2.99517 55.748 2.99517 55.7662C2.99517 55.7844 2.99902 55.8025 3.00647 55.819L3.59367 56.2536H3.71111C3.73199 56.2525 3.75205 56.2451 3.76877 56.2326C3.7855 56.2201 3.79812 56.2029 3.80506 56.1831L4.87376 54.7151L5.872 56.2184C5.87894 56.2381 5.89157 56.2552 5.9083 56.2679C5.92501 56.2804 5.94509 56.2876 5.96596 56.2889H6.0834L6.6706 55.8542C6.6706 55.8542 6.6706 55.7956 6.6706 55.7486C6.67765 55.7176 6.67765 55.6856 6.6706 55.6546L5.6019 54.1866L7.32826 53.6229C7.35831 53.6174 7.38542 53.6014 7.40477 53.5777C7.42412 53.554 7.43446 53.5242 7.43395 53.4937C7.43685 53.4742 7.43685 53.4545 7.43395 53.435L7.23431 52.6951C7.22481 52.6682 7.20737 52.6449 7.18431 52.6281C7.16125 52.6114 7.13364 52.602 7.10512 52.6012H7.0464L5.32004 53.1884V51.3681C5.32186 51.3491 5.31946 51.33 5.31302 51.3121C5.30659 51.2941 5.29626 51.2779 5.28279 51.2644C5.26932 51.251 5.25305 51.2406 5.23512 51.2341C5.2172 51.2277 5.19807 51.2254 5.17911 51.2271H4.47447C4.38052 51.2271 4.33355 51.2741 4.33355 51.3681V53.1649L2.60717 52.5777H2.53671C2.50924 52.5771 2.48244 52.5862 2.46099 52.6034C2.43952 52.6206 2.42476 52.6447 2.41927 52.6716L2.20789 53.4115V53.4702C2.20936 53.4872 2.21419 53.5037 2.22207 53.5189C2.22997 53.534 2.24079 53.5474 2.25389 53.5584C2.26699 53.5692 2.28211 53.5775 2.29841 53.5825C2.3147 53.5875 2.33184 53.5894 2.34881 53.5877Z" fill="black"/>
<path d="M6.565 61.867L8.3031 62.419L7.22266 63.8987C7.21799 63.9299 7.21799 63.9615 7.22266 63.9926C7.21338 64.0087 7.2085 64.0268 7.2085 64.0455C7.2085 64.064 7.21338 64.0822 7.22266 64.0984L7.79811 64.5211C7.84041 64.5326 7.885 64.5326 7.9273 64.5211C7.9273 64.5211 7.98601 64.5211 8.02125 64.4506L9.08995 62.9826L10.1587 64.4506C10.1587 64.4506 10.2174 64.5211 10.2644 64.5211C10.3028 64.5316 10.3434 64.5316 10.3818 64.5211L10.969 64.0984C10.9827 64.0645 10.9827 64.0265 10.969 63.9926C10.9737 63.9615 10.9737 63.9299 10.969 63.8987L9.88854 62.419L11.6267 61.867C11.6854 61.867 11.7206 61.7965 11.7206 61.7377L11.5092 60.9979C11.5092 60.9275 11.4505 60.904 11.3918 60.904H11.3448L9.61843 61.4911V59.6474C9.62025 59.6284 9.61785 59.6092 9.61141 59.5914C9.60498 59.5734 9.59465 59.5571 9.58119 59.5437C9.56771 59.5302 9.55144 59.5199 9.53351 59.5135C9.51559 59.507 9.49646 59.5046 9.4775 59.5065H8.74938C8.66716 59.5065 8.62019 59.5065 8.62019 59.6474V61.4442L6.88209 60.857H6.81161C6.81161 60.857 6.71766 60.857 6.69418 60.951L6.48279 61.6909C6.48279 61.6909 6.50628 61.8317 6.565 61.867Z" fill="black"/>
<path d="M13.1532 68.4559L14.8913 69.0196L13.8108 70.4641C13.8062 70.4952 13.8062 70.5269 13.8108 70.558C13.8016 70.5741 13.7967 70.5924 13.7967 70.6109C13.7967 70.6295 13.8016 70.6476 13.8108 70.6637L14.3863 71.0982H14.5154C14.5363 71.0971 14.5564 71.0899 14.5731 71.0772C14.5898 71.0647 14.6024 71.0475 14.6094 71.0277L15.6781 69.5597L16.7468 71.0277C16.7468 71.0277 16.8056 71.0982 16.8526 71.0982H16.9699L17.5572 70.6637C17.5646 70.6471 17.5684 70.6291 17.5684 70.6109C17.5684 70.5926 17.5646 70.5746 17.5572 70.558C17.5821 70.5304 17.6019 70.4986 17.6158 70.4641L16.5354 68.9961L18.2736 68.4324C18.3004 68.4229 18.3238 68.4055 18.3406 68.3824C18.3573 68.3594 18.3667 68.3317 18.3674 68.3032L18.1561 67.5634C18.1488 67.5374 18.1336 67.5144 18.1124 67.4975C18.0914 67.4806 18.0656 67.4709 18.0387 67.4694H17.9682L16.2418 68.0566V66.2362C16.2437 66.2172 16.2412 66.1981 16.2348 66.1802C16.2283 66.1624 16.2181 66.146 16.2046 66.1326C16.1911 66.1191 16.1748 66.1087 16.1569 66.1023C16.1389 66.0958 16.1198 66.0935 16.1009 66.0953H15.3846C15.2906 66.0953 15.2436 66.1422 15.2436 66.2362V68.0331L13.5054 67.4459H13.4351C13.3763 67.4459 13.3411 67.4459 13.3176 67.5516L13.1062 68.2797C13.0918 68.3099 13.0887 68.3441 13.0973 68.3764C13.1059 68.4086 13.1257 68.4369 13.1532 68.4559Z" fill="black"/>
<path d="M21.0571 73.2586L22.7835 73.8105L21.7147 75.2903C21.7077 75.3213 21.7077 75.3534 21.7147 75.3843C21.7152 75.4054 21.7207 75.426 21.731 75.4444C21.7412 75.4628 21.7559 75.4785 21.7735 75.49L22.3607 75.9128C22.3991 75.9233 22.4397 75.9233 22.4781 75.9128C22.499 75.9116 22.5191 75.9043 22.5359 75.8918C22.5525 75.8793 22.5651 75.862 22.5721 75.8423L23.6407 74.3625L24.6625 75.8893C24.6695 75.909 24.6821 75.9261 24.6989 75.9388C24.7155 75.9513 24.7356 75.9585 24.7565 75.9598C24.7946 75.9723 24.8357 75.9723 24.8739 75.9598L25.4611 75.5369C25.4727 75.5026 25.4727 75.4655 25.4611 75.4313C25.4681 75.4003 25.4681 75.3683 25.4611 75.3373L24.3924 73.8575L26.1187 73.3055C26.1892 73.3055 26.2245 73.2351 26.2245 73.1646L26.0249 72.4365C26.0192 72.4065 26.0032 72.3794 25.9796 72.36C25.956 72.3406 25.9262 72.3303 25.8956 72.3308H25.8369L24.0989 72.918V71.039C24.1006 71.02 24.0982 71.0009 24.0917 70.983C24.0854 70.965 24.075 70.9488 24.0616 70.9353C24.0481 70.9219 24.0319 70.9115 24.0139 70.905C23.996 70.8986 23.9769 70.8963 23.9579 70.898H23.2415C23.2225 70.8963 23.2034 70.8986 23.1855 70.905C23.1676 70.9115 23.1512 70.9219 23.1379 70.9353C23.1244 70.9488 23.114 70.965 23.1076 70.983C23.1011 71.0009 23.0987 71.02 23.1006 71.039V72.8124L21.3742 72.2251H21.3037C21.2745 72.225 21.2464 72.2358 21.2246 72.2553C21.2029 72.2748 21.1892 72.3018 21.1864 72.3308L20.9749 73.0589C20.9654 73.0771 20.96 73.0973 20.959 73.1179C20.9581 73.1384 20.9616 73.1589 20.9695 73.1779C20.9774 73.197 20.9892 73.214 21.0044 73.228C21.0195 73.2419 21.0375 73.2524 21.0571 73.2586Z" fill="black"/>
<path d="M29.8296 76.031L31.5677 76.5947L30.5342 78.0627V78.1567C30.5269 78.1734 30.523 78.1914 30.523 78.2096C30.523 78.2277 30.5269 78.2457 30.5342 78.2624L31.1215 78.6852C31.1599 78.6957 31.2005 78.6957 31.2389 78.6852C31.2609 78.6825 31.2817 78.6747 31.3001 78.6625C31.3185 78.6504 31.3337 78.634 31.3446 78.6147L32.4016 77.1467L33.4467 78.6852C33.4537 78.7049 33.4664 78.7221 33.4831 78.7347C33.4997 78.7472 33.5199 78.7545 33.5407 78.7556C33.5789 78.7682 33.62 78.7682 33.6581 78.7556L34.2454 78.3329C34.263 78.3214 34.2776 78.3057 34.2879 78.2874C34.2981 78.2689 34.3036 78.2482 34.3041 78.2272C34.3087 78.196 34.3087 78.1644 34.3041 78.1332L33.2236 76.6652L34.95 76.1015C35.0205 76.1015 35.0557 76.0311 35.0557 75.9724L34.7974 75.162C34.79 75.136 34.7747 75.113 34.7537 75.0961C34.7326 75.0794 34.7069 75.0695 34.6799 75.068H34.6094L32.8714 75.6552V73.8115C32.8731 73.7925 32.8707 73.7734 32.8642 73.7555C32.8579 73.7375 32.8475 73.7212 32.8341 73.7077C32.8206 73.6942 32.8044 73.684 32.7864 73.6775C32.7685 73.6711 32.7494 73.6687 32.7304 73.6705H32.014C31.995 73.6687 31.9759 73.6711 31.958 73.6775C31.9401 73.684 31.9237 73.6942 31.9104 73.7077C31.8969 73.7212 31.8865 73.7375 31.8801 73.7555C31.8736 73.7734 31.8712 73.7925 31.8731 73.8115V75.6082L30.1467 75.0211H30.0762C30.0487 75.0205 30.022 75.0296 30.0005 75.0467C29.9791 75.064 29.9642 75.0881 29.9589 75.115L29.7474 75.8549C29.7356 75.9606 29.7709 75.9959 29.8296 76.031Z" fill="black"/>
<path d="M39.0368 76.7462L40.7632 77.31L39.6828 78.778C39.6781 78.8091 39.6781 78.8408 39.6828 78.872C39.6806 78.8935 39.6851 78.9151 39.6956 78.934C39.7061 78.9529 39.7221 78.9681 39.7416 78.9776L40.3287 79.4121H40.4462C40.4671 79.411 40.4871 79.4037 40.5038 79.3911C40.5206 79.3786 40.5332 79.3614 40.5401 79.3417L41.6088 77.8737L42.6774 79.3417C42.6883 79.3609 42.7036 79.3772 42.7219 79.3895C42.7403 79.4017 42.7613 79.4095 42.7832 79.4121H42.9007L43.4878 78.9776C43.4953 78.961 43.4992 78.943 43.4992 78.9247C43.4992 78.9066 43.4953 78.8886 43.4878 78.872V78.778L42.4074 77.31L44.1454 76.7462C44.1724 76.7367 44.1958 76.7194 44.2126 76.6962C44.2293 76.6732 44.2387 76.6456 44.2394 76.6171L44.0281 75.8772C44.0207 75.8512 44.0054 75.8282 43.9844 75.8114C43.9633 75.7945 43.9376 75.7847 43.9106 75.7832H43.8049L42.0786 76.3705V74.5384C42.0786 74.4327 42.0786 74.3857 41.9377 74.3857H41.2212C41.2017 74.3856 41.1823 74.3896 41.1644 74.3975C41.1466 74.4052 41.1304 74.4167 41.1172 74.4311C41.1039 74.4454 41.0938 74.4624 41.0874 74.4809C41.0812 74.4994 41.0787 74.519 41.0803 74.5384V76.3352L39.3422 75.748H39.2717C39.2717 75.748 39.1778 75.748 39.1543 75.8537L38.9429 76.5819C38.9376 76.5989 38.9358 76.6167 38.9378 76.6344C38.9397 76.652 38.9452 76.6691 38.9541 76.6845C38.9628 76.7 38.9748 76.7134 38.9891 76.724C39.0033 76.7346 39.0196 76.7422 39.0368 76.7462Z" fill="black"/>
<path d="M48.2323 75.2674L49.9587 75.8194L48.8901 77.2991C48.8901 77.2991 48.8901 77.3695 48.8901 77.393C48.8826 77.4096 48.8787 77.4276 48.8787 77.4459C48.8787 77.4641 48.8826 77.4821 48.8901 77.4988L49.4772 77.9215C49.5157 77.932 49.5562 77.932 49.5947 77.9215C49.6156 77.9204 49.6356 77.9131 49.6523 77.9005C49.6691 77.888 49.6817 77.8708 49.6886 77.8511L50.7573 76.3714L51.8378 77.8511C51.8447 77.8708 51.8573 77.888 51.8741 77.9005C51.8908 77.9131 51.9108 77.9204 51.9317 77.9215C51.9698 77.9341 52.0111 77.9341 52.0492 77.9215L52.6363 77.4988C52.6687 77.4723 52.6897 77.4345 52.6951 77.393C52.6951 77.393 52.6951 77.393 52.6951 77.2991L51.6263 75.8194L53.3527 75.2674C53.382 75.2564 53.4073 75.2372 53.4261 75.2122C53.4448 75.1874 53.456 75.1575 53.4585 75.1265L53.2588 74.3984C53.2532 74.3682 53.2372 74.3411 53.2136 74.3219C53.19 74.3025 53.1602 74.2921 53.1296 74.2926H53.0592L51.3328 74.8799V73.0477C51.3346 73.0289 51.3322 73.0096 51.3258 72.9917C51.3193 72.9739 51.309 72.9576 51.2956 72.9441C51.2821 72.9306 51.2658 72.9202 51.2478 72.9139C51.23 72.9074 51.2108 72.905 51.1918 72.9069H50.4755C50.4565 72.905 50.4373 72.9074 50.4195 72.9139C50.4016 72.9202 50.3852 72.9306 50.3718 72.9441C50.3583 72.9576 50.348 72.9739 50.3416 72.9917C50.3351 73.0096 50.3327 73.0289 50.3346 73.0477V74.8446L48.6082 74.2574H48.5377C48.5085 74.2573 48.4803 74.268 48.4586 74.2875C48.4368 74.3071 48.4232 74.334 48.4203 74.3631L48.2088 75.0913C48.192 75.1189 48.1851 75.1514 48.1893 75.1835C48.1936 75.2155 48.2088 75.2451 48.2323 75.2674Z" fill="black"/>
<path d="M56.5355 71.0506L58.2619 71.6025L57.1814 73.0823C57.1752 73.1133 57.1752 73.1453 57.1814 73.1763C57.1819 73.1974 57.1874 73.218 57.1977 73.2364C57.2079 73.2548 57.2225 73.2705 57.2401 73.2819L57.8274 73.7048C57.8662 73.7124 57.906 73.7124 57.9448 73.7048C57.9657 73.7036 57.9858 73.6963 58.0024 73.6838C58.0192 73.6713 58.0318 73.654 58.0388 73.6343L59.1074 72.1545L60.1761 73.6343C60.187 73.6535 60.2023 73.6699 60.2207 73.6821C60.2389 73.6943 60.2599 73.7021 60.2818 73.7048C60.3206 73.7124 60.3605 73.7124 60.3993 73.7048L60.9865 73.2819C61.0188 73.2555 61.0398 73.2176 61.0451 73.1763C61.0451 73.1763 61.0451 73.1763 61.0451 73.0823L59.8943 71.6378L61.6324 71.0858C61.6594 71.073 61.6824 71.0533 61.6989 71.0284C61.7154 71.0035 61.7249 70.9748 61.7264 70.9449C61.7301 70.9255 61.7301 70.9055 61.7264 70.8861L61.5149 70.158C61.5149 70.0876 61.5149 70.0524 61.3975 70.0524H61.3035L59.5772 70.6513V68.831C59.579 68.812 59.5767 68.7929 59.5702 68.775C59.5638 68.757 59.5534 68.7408 59.5399 68.7273C59.5265 68.7139 59.5101 68.7035 59.4923 68.697C59.4744 68.6906 59.4553 68.6883 59.4363 68.69H58.7199C58.7009 68.6883 58.6818 68.6906 58.6639 68.697C58.6459 68.7035 58.6297 68.7139 58.6162 68.7273C58.6028 68.7408 58.5924 68.757 58.586 68.775C58.5795 68.7929 58.5772 68.812 58.5789 68.831V70.6278L56.8409 70.0289H56.7704C56.7117 70.0289 56.6764 70.0289 56.6529 70.1345L56.4415 70.8626V70.9214C56.4449 70.9491 56.4554 70.9755 56.4718 70.9981C56.4883 71.0208 56.5102 71.0388 56.5355 71.0506Z" fill="black"/>
<path d="M63.5584 65.05L65.2848 65.6137L64.2162 67.0817C64.206 67.1162 64.206 67.1528 64.2162 67.1873C64.2045 67.2216 64.2045 67.2588 64.2162 67.2931L64.8033 67.7158H64.9208C64.9417 67.7147 64.9617 67.7075 64.9784 67.6948C64.9952 67.6823 65.0078 67.6651 65.0147 67.6453L66.0834 66.1773L67.1639 67.6453C67.1708 67.6651 67.1834 67.6823 67.2002 67.6948C67.2169 67.7075 67.2369 67.7147 67.2578 67.7158H67.3753L67.9624 67.2931C67.974 67.2588 67.974 67.2216 67.9624 67.1873C67.9725 67.1528 67.9725 67.1162 67.9624 67.0817L66.9408 65.6137L68.667 65.05C68.6949 65.0421 68.7194 65.0251 68.7364 65.0016C68.7534 64.9782 68.7622 64.9497 68.761 64.9208C68.7655 64.9015 68.7655 64.8813 68.761 64.8621L68.5497 64.134C68.5497 64.0635 68.4909 64.0282 68.4322 64.0282H68.3618L66.6002 64.592V62.8421C66.6002 62.7481 66.6002 62.6895 66.4593 62.6895H65.7663C65.7468 62.6893 65.7274 62.6933 65.7095 62.7012C65.6917 62.709 65.6755 62.7205 65.6623 62.7347C65.649 62.7491 65.6389 62.7661 65.6325 62.7846C65.6262 62.8031 65.6238 62.8226 65.6254 62.8421V64.592L63.899 63.993H63.8285C63.8138 63.9913 63.7987 63.9928 63.7845 63.9975C63.7703 64.002 63.7572 64.0095 63.7462 64.0195C63.7351 64.0295 63.7262 64.0417 63.7202 64.0553C63.7142 64.069 63.7111 64.0837 63.7112 64.0987L63.4998 64.8268V64.8856C63.4872 64.9153 63.4863 64.9487 63.4972 64.9792C63.508 65.0096 63.5299 65.0348 63.5584 65.05Z" fill="black"/>
<path d="M68.9486 57.5456L70.6868 58.0976L69.6064 59.5773C69.6016 59.6085 69.6016 59.6401 69.6064 59.6712C69.5981 59.6876 69.5938 59.7058 69.5938 59.7241C69.5938 59.7425 69.5981 59.7606 69.6064 59.777L70.1935 60.1997H70.311C70.311 60.1997 70.3814 60.1997 70.4166 60.1292L71.4971 58.72L72.5659 60.188C72.5659 60.188 72.6245 60.2585 72.6715 60.2585C72.71 60.269 72.7505 60.269 72.789 60.2585L73.3761 59.8356C73.3899 59.8017 73.3899 59.7639 73.3761 59.73C73.3809 59.6989 73.3809 59.6671 73.3761 59.636L72.2958 58.1562L74.0455 57.5456C74.1043 57.5456 74.1395 57.4751 74.1395 57.4164L73.9281 56.6765C73.9281 56.6061 73.9281 56.5826 73.8106 56.5826H73.7403L72.0021 57.1697V55.373C72.0021 55.279 72.0021 55.232 71.8729 55.232H71.1448C71.1259 55.2303 71.1068 55.2326 71.0888 55.239C71.0709 55.2455 71.0546 55.2559 71.0411 55.2693C71.0276 55.2828 71.0174 55.299 71.0109 55.317C71.0045 55.3349 71.002 55.354 71.0039 55.373V57.1697L69.2893 56.5826H69.2188C69.16 56.5826 69.1249 56.5826 69.1014 56.6765L68.89 57.4164C68.89 57.4164 68.89 57.5456 68.9486 57.5456Z" fill="black"/>
<path d="M72.4485 49.0545L74.1749 49.6182L73.1062 51.0862C73.0991 51.1171 73.0991 51.1492 73.1062 51.1801C73.0987 51.1967 73.0949 51.2147 73.0949 51.233C73.0949 51.2512 73.0987 51.2692 73.1062 51.2859L73.6934 51.7204H73.8109C73.8317 51.7192 73.8517 51.712 73.8685 51.6994C73.8852 51.6869 73.8979 51.6696 73.9047 51.6499L74.9735 50.1819L76.0656 51.6734C76.0726 51.6931 76.0852 51.7104 76.102 51.7229C76.1187 51.7354 76.1387 51.7427 76.1596 51.7439H76.2771L76.8642 51.3094C76.8642 51.3094 76.8642 51.2506 76.8642 51.2036C76.8712 51.1727 76.8712 51.1406 76.8642 51.1097L75.7956 49.6417L77.5101 49.0545C77.5402 49.049 77.5674 49.0329 77.5867 49.0092C77.606 48.9856 77.6164 48.9559 77.6159 48.9254L77.4162 48.1502C77.4067 48.1234 77.3892 48.1 77.3662 48.0831C77.3431 48.0664 77.3155 48.057 77.287 48.0562L75.549 48.6435V46.8349C75.5507 46.8159 75.5484 46.7967 75.5419 46.7789C75.5355 46.761 75.5251 46.7446 75.5117 46.7312C75.4982 46.7177 75.482 46.7074 75.464 46.701C75.4461 46.6945 75.427 46.6921 75.408 46.694H74.6916C74.5976 46.694 74.5507 46.7409 74.5507 46.8349V48.6317L72.8126 48.0445H72.6951C72.6676 48.044 72.6409 48.053 72.6194 48.0702C72.598 48.0874 72.5832 48.1115 72.5777 48.1385L72.3664 48.8784C72.3589 48.8951 72.3551 48.9134 72.3554 48.9319C72.3555 48.9502 72.3596 48.9684 72.3675 48.9851C72.3752 49.0017 72.3865 49.0166 72.4005 49.0285C72.4145 49.0405 72.4309 49.0494 72.4485 49.0545Z" fill="black"/>
<path d="M73.9871 39.8591L75.7252 40.4111L74.6448 41.8909C74.6384 41.9219 74.6384 41.9539 74.6448 41.9849C74.6311 42.0187 74.6311 42.0566 74.6448 42.0905L75.2319 42.5134H75.3494C75.3494 42.5134 75.4198 42.5134 75.4551 42.4429L76.5238 40.9631L77.5103 42.4899C77.5103 42.4899 77.5103 42.5602 77.6159 42.5602H77.7334L78.3207 42.1375C78.3343 42.1036 78.3343 42.0657 78.3207 42.0319C78.3269 42.0009 78.3269 41.9689 78.3207 41.9379L77.2402 40.4581L78.9783 39.9061C79.0053 39.8934 79.0283 39.8735 79.0448 39.8487C79.0613 39.8239 79.0708 39.795 79.0722 39.7652L78.8608 39.0371C78.8608 38.9666 78.8022 38.9314 78.7434 38.9314H78.6847L76.9583 39.5304V37.6396C76.9602 37.6206 76.9577 37.6015 76.9513 37.5836C76.9448 37.5656 76.9346 37.5494 76.9211 37.5359C76.9076 37.5224 76.8913 37.5121 76.8734 37.5056C76.8554 37.4992 76.8363 37.4969 76.8174 37.4986H76.0893C75.9953 37.4986 75.9601 37.4986 75.9601 37.6396V39.4364L74.2219 38.8492H74.1516C74.1516 38.8492 74.0576 38.8492 74.0341 38.9549L73.8227 39.683C73.8211 39.7056 73.8242 39.7282 73.8317 39.7495C73.8392 39.7709 73.8511 39.7904 73.8664 39.807C73.8819 39.8235 73.9006 39.8366 73.9213 39.8456C73.9421 39.8546 73.9644 39.8592 73.9871 39.8591Z" fill="black"/>
<path d="M181.879 0H94.4332V80H181.879V0Z" fill="black"/>
<path d="M111.016 22.8298H114.445V21.7495H111.016V19.4358H115.584V18.3555H109.924V26.7406H111.016V22.8298Z" fill="white"/>
<path d="M121.785 18.3555H120.963L117.91 26.7406H119.084L119.977 24.2626H122.854L123.747 26.7406H124.921L121.879 18.3907L121.785 18.3555ZM122.431 23.194H120.282L121.363 20.0701L122.431 23.194Z" fill="white"/>
<path d="M132.766 25.672H130.851V19.4358H132.707V18.3555H127.915V19.4358H129.759V25.672H127.856V26.7406H132.766V25.672Z" fill="white"/>
<path d="M137.699 23.3006H139.824L141.315 26.7416H142.49L140.927 23.101L141.562 22.7603L142.161 21.9031L142.49 20.7286L142.137 19.5542L141.256 18.6735L140.152 18.3916H136.63V26.7768H137.721L137.699 23.3006ZM137.699 19.4369H140.047L140.716 19.6247L141.186 20.1062L141.374 20.7639L141.186 21.4215L140.869 21.9031L140.2 22.2201H137.745L137.699 19.4369Z" fill="white"/>
<path d="M115.49 39.4709L114.985 38.4493L114.163 37.6154L112.848 37.0869H109.724V45.4839H112.836L114.152 44.9672L114.974 44.1333L115.502 43.0882L115.76 42.0429V40.5044L115.49 39.4709ZM110.793 44.4034V38.1674H112.613L113.517 38.5432L114.046 39.0834L114.433 39.8115L114.645 40.6337V41.9254L114.422 42.7358L114.046 43.4874L113.529 44.0159L112.601 44.4034H110.793Z" fill="white"/>
<path d="M121.785 37.0869H120.963L117.91 45.4839H119.084L119.977 42.9942H122.854L123.747 45.4839H124.921L121.879 37.1339L121.785 37.0869ZM122.431 41.9254H120.282L121.363 38.8015L122.431 41.9254Z" fill="white"/>
<path d="M129.736 45.4839H130.827V38.1674H133.541V37.0869H127.07V38.1674H129.736V45.4839Z" fill="white"/>
<path d="M139.754 37.0869H138.896L135.842 45.4839H137.017L137.91 42.9942H140.787L141.68 45.4839H142.854L139.754 37.1339V37.0869ZM140.4 41.9254H138.25L139.331 38.8015L140.4 41.9254Z" fill="white"/>
<path d="M114.034 59.5771L111.568 58.9077L111.004 58.485L110.863 58.2501L110.758 57.7686L110.922 57.1931L111.333 56.7821L112.002 56.5706H112.907L113.94 56.8407L114.645 57.2636L115.232 56.3475L114.422 55.8542L113.059 55.4902H111.826L110.734 55.8425L109.959 56.6411L109.63 57.6629L109.795 58.6376L110.182 59.2717L111.075 59.906L113.459 60.5636L113.987 60.869L114.234 61.374V62.0434L114.081 62.3605L113.823 62.6657L112.977 62.9946H111.991L110.969 62.6775L110.499 62.3722L110.253 62.0434L109.454 62.8067L109.759 63.1707L110.476 63.6757L111.756 64.0634L113.165 64.0751L114.433 63.6054L115.021 62.9476L115.326 62.3017V61.1509L114.938 60.2114L114.034 59.5771Z" fill="white"/>
<path d="M124.486 57.7686L123.946 56.7234L123.112 55.9247L121.938 55.4902H120.916L119.742 55.913L118.896 56.7116L118.344 57.7569L118.109 58.8372V60.6694L118.333 61.7027L118.873 62.7832L119.671 63.5936L120.846 64.0634H121.926L123.101 63.6054L123.911 62.7832L124.463 61.7145L124.686 60.6459V58.8137L124.486 57.7686ZM121.081 62.9946L120.27 62.6892L119.754 62.1842L119.366 61.4092L119.178 60.5519V58.9312L119.342 58.1679L119.765 57.3222L120.294 56.8407L121.081 56.5706H121.727L122.513 56.8407L123.042 57.3222L123.465 58.1444L123.629 58.9195V60.5401L123.453 61.4092L123.054 62.1842L122.549 62.6892L121.727 62.9946H121.081Z" fill="white"/>
<path d="M128.961 57.475L129.501 56.9347L130.3 56.5706H131.192L132.05 56.9347L132.39 57.2166L132.849 57.7216L133.624 56.9817L133.119 56.3945L132.601 55.9835L131.369 55.4902H130.124L128.879 56.0305L128.056 56.8172L127.527 57.886L127.305 58.9312V60.6459L127.54 61.6676L128.045 62.701L128.831 63.5114L130.1 64.0634L131.356 64.0751L132.577 63.5936L133.13 63.159L133.624 62.5836L132.849 61.8437L132.414 62.337L132.061 62.6306L131.192 62.9946H130.3L129.489 62.6071L128.961 62.0669L128.574 61.3152L128.397 60.5519V59.0134L128.561 58.2501L128.961 57.475Z" fill="white"/>
<path d="M139.812 56.6644H141.656V55.584H136.865V56.6644H138.72V62.9005H136.806V63.9809H141.715V62.9005H139.812V56.6644Z" fill="white"/>
<path d="M145.742 63.9809H151.169V62.9005H146.835V60.0584H149.865V58.978H146.835V56.6644H151.169V55.584H145.742V63.9809Z" fill="white"/>
<path d="M153.94 56.6644H156.606V63.9809H157.699V56.6644H160.399V55.584H153.94V56.6644Z" fill="white"/>
<path d="M168.35 55.584L166.13 59.1424L163.935 55.6192L163.911 55.584H162.607L165.59 60.2346V63.9809H166.671V60.2346L169.654 55.584H168.35Z" fill="white"/>
</svg>
